%TF.GenerationSoftware,KiCad,Pcbnew,(5.1.6)-1*%
%TF.CreationDate,2020-09-30T19:57:20-06:00*%
%TF.ProjectId,PCB_LDE,5043425f-4c44-4452-9e6b-696361645f70,v1.0*%
%TF.SameCoordinates,Original*%
%TF.FileFunction,Copper,L2,Bot*%
%TF.FilePolarity,Positive*%
%FSLAX46Y46*%
G04 Gerber Fmt 4.6, Leading zero omitted, Abs format (unit mm)*
G04 Created by KiCad (PCBNEW (5.1.6)-1) date 2020-09-30 19:57:20*
%MOMM*%
%LPD*%
G01*
G04 APERTURE LIST*
%TA.AperFunction,ComponentPad*%
%ADD10R,1.600000X1.600000*%
%TD*%
%TA.AperFunction,ComponentPad*%
%ADD11C,1.600000*%
%TD*%
%TA.AperFunction,ComponentPad*%
%ADD12R,1.800000X1.800000*%
%TD*%
%TA.AperFunction,ComponentPad*%
%ADD13C,1.800000*%
%TD*%
%TA.AperFunction,ComponentPad*%
%ADD14O,1.500000X1.050000*%
%TD*%
%TA.AperFunction,ComponentPad*%
%ADD15R,1.500000X1.050000*%
%TD*%
%TA.AperFunction,ComponentPad*%
%ADD16O,1.600000X1.600000*%
%TD*%
%TA.AperFunction,ComponentPad*%
%ADD17R,1.980000X3.960000*%
%TD*%
%TA.AperFunction,ComponentPad*%
%ADD18O,1.980000X3.960000*%
%TD*%
%TA.AperFunction,Conductor*%
%ADD19C,0.300000*%
%TD*%
%TA.AperFunction,Conductor*%
%ADD20C,0.254000*%
%TD*%
G04 APERTURE END LIST*
D10*
%TO.P,C1,1*%
%TO.N,Net-(C1-Pad1)*%
X154559000Y-105156000D03*
D11*
%TO.P,C1,2*%
%TO.N,Net-(C1-Pad2)*%
X154559000Y-107656000D03*
%TD*%
%TO.P,C2,2*%
%TO.N,Net-(C2-Pad2)*%
X146507200Y-107529000D03*
D10*
%TO.P,C2,1*%
%TO.N,Net-(C2-Pad1)*%
X146507200Y-105029000D03*
%TD*%
D12*
%TO.P,D1,1*%
%TO.N,Net-(D1-Pad1)*%
X125857000Y-82169000D03*
D13*
%TO.P,D1,2*%
%TO.N,VCC*%
X128397000Y-82169000D03*
%TD*%
%TO.P,D2,2*%
%TO.N,VCC*%
X128397000Y-95504000D03*
D12*
%TO.P,D2,1*%
%TO.N,Net-(D2-Pad1)*%
X125857000Y-95504000D03*
%TD*%
%TO.P,D3,1*%
%TO.N,Net-(D3-Pad1)*%
X125857000Y-88773000D03*
D13*
%TO.P,D3,2*%
%TO.N,VCC*%
X128397000Y-88773000D03*
%TD*%
D14*
%TO.P,Q1,2*%
%TO.N,Net-(C2-Pad2)*%
X126161800Y-106476800D03*
%TO.P,Q1,3*%
%TO.N,Net-(C1-Pad1)*%
X126161800Y-107746800D03*
D15*
%TO.P,Q1,1*%
%TO.N,Earth*%
X126161800Y-105206800D03*
%TD*%
%TO.P,Q2,1*%
%TO.N,Earth*%
X135915400Y-104902000D03*
D14*
%TO.P,Q2,3*%
%TO.N,Net-(C2-Pad1)*%
X135915400Y-107442000D03*
%TO.P,Q2,2*%
%TO.N,Net-(C1-Pad2)*%
X135915400Y-106172000D03*
%TD*%
D11*
%TO.P,R1,1*%
%TO.N,Net-(D1-Pad1)*%
X139573000Y-97790000D03*
D16*
%TO.P,R1,2*%
%TO.N,Net-(C1-Pad1)*%
X147193000Y-97790000D03*
%TD*%
D11*
%TO.P,R2,1*%
%TO.N,Net-(D2-Pad1)*%
X140208000Y-92583000D03*
D16*
%TO.P,R2,2*%
%TO.N,Net-(C1-Pad1)*%
X147828000Y-92583000D03*
%TD*%
%TO.P,R3,2*%
%TO.N,Net-(C2-Pad2)*%
X151892000Y-119888000D03*
D11*
%TO.P,R3,1*%
%TO.N,VCC*%
X144272000Y-119888000D03*
%TD*%
%TO.P,R4,1*%
%TO.N,VCC*%
X115443000Y-83489800D03*
D16*
%TO.P,R4,2*%
%TO.N,Net-(C1-Pad2)*%
X115443000Y-91109800D03*
%TD*%
%TO.P,R5,2*%
%TO.N,Net-(C2-Pad1)*%
X151892000Y-115062000D03*
D11*
%TO.P,R5,1*%
%TO.N,Net-(D3-Pad1)*%
X144272000Y-115062000D03*
%TD*%
D17*
%TO.P,J1,1*%
%TO.N,Earth*%
X119761000Y-117348000D03*
D18*
%TO.P,J1,2*%
%TO.N,VCC*%
X114761000Y-117348000D03*
%TD*%
D19*
%TO.N,Net-(C1-Pad1)*%
X126161800Y-107746800D02*
X122834400Y-107746800D01*
X122834400Y-107746800D02*
X121412000Y-106324400D01*
X121412000Y-106324400D02*
X121412000Y-101981000D01*
X121412000Y-101981000D02*
X122275600Y-101117400D01*
X143865600Y-101117400D02*
X147193000Y-97790000D01*
X122275600Y-101117400D02*
X143865600Y-101117400D01*
X147193000Y-97790000D02*
X153416000Y-97790000D01*
X154559000Y-98933000D02*
X154559000Y-105156000D01*
X153416000Y-97790000D02*
X154559000Y-98933000D01*
%TO.N,Net-(C1-Pad2)*%
X154559000Y-107656000D02*
X151242400Y-107656000D01*
X151242400Y-107656000D02*
X149555200Y-105968800D01*
X149555200Y-105968800D02*
X149555200Y-101727000D01*
X149555200Y-101727000D02*
X149377400Y-101904800D01*
X149377400Y-101904800D02*
X143510000Y-101904800D01*
X139242800Y-106172000D02*
X135915400Y-106172000D01*
X143510000Y-101904800D02*
X139242800Y-106172000D01*
%TO.N,Net-(C2-Pad2)*%
X126161800Y-106476800D02*
X128676400Y-106476800D01*
X128676400Y-106476800D02*
X131749800Y-109550200D01*
X144486000Y-109550200D02*
X146507200Y-107529000D01*
X131749800Y-109550200D02*
X144486000Y-109550200D01*
X151892000Y-119888000D02*
X149250400Y-117246400D01*
X149250400Y-114314600D02*
X144486000Y-109550200D01*
X149250400Y-117246400D02*
X149250400Y-114314600D01*
%TO.N,Net-(D2-Pad1)*%
X125857000Y-96704000D02*
X127984400Y-98831400D01*
X125857000Y-95504000D02*
X125857000Y-96704000D01*
X127984400Y-98831400D02*
X135864600Y-98831400D01*
X135864600Y-98831400D02*
X136677400Y-98018600D01*
X136677400Y-96113600D02*
X140208000Y-92583000D01*
X136677400Y-98018600D02*
X136677400Y-96113600D01*
%TD*%
D20*
%TO.N,Earth*%
G36*
X144978212Y-83231860D02*
G01*
X144980630Y-83233821D01*
X146072830Y-84097421D01*
X146093779Y-84110874D01*
X146116949Y-84119982D01*
X146149966Y-84124789D01*
X165760227Y-84377173D01*
X165709776Y-121055555D01*
X152839340Y-120970056D01*
X153006637Y-120802759D01*
X153163680Y-120567727D01*
X153271853Y-120306574D01*
X153327000Y-120029335D01*
X153327000Y-119746665D01*
X153271853Y-119469426D01*
X153163680Y-119208273D01*
X153006637Y-118973241D01*
X152806759Y-118773363D01*
X152571727Y-118616320D01*
X152310574Y-118508147D01*
X152033335Y-118453000D01*
X151750665Y-118453000D01*
X151597603Y-118483446D01*
X150035400Y-116921243D01*
X150035400Y-114920665D01*
X150457000Y-114920665D01*
X150457000Y-115203335D01*
X150512147Y-115480574D01*
X150620320Y-115741727D01*
X150777363Y-115976759D01*
X150977241Y-116176637D01*
X151212273Y-116333680D01*
X151473426Y-116441853D01*
X151750665Y-116497000D01*
X152033335Y-116497000D01*
X152310574Y-116441853D01*
X152571727Y-116333680D01*
X152806759Y-116176637D01*
X153006637Y-115976759D01*
X153163680Y-115741727D01*
X153271853Y-115480574D01*
X153327000Y-115203335D01*
X153327000Y-114920665D01*
X153271853Y-114643426D01*
X153163680Y-114382273D01*
X153006637Y-114147241D01*
X152806759Y-113947363D01*
X152571727Y-113790320D01*
X152310574Y-113682147D01*
X152033335Y-113627000D01*
X151750665Y-113627000D01*
X151473426Y-113682147D01*
X151212273Y-113790320D01*
X150977241Y-113947363D01*
X150777363Y-114147241D01*
X150620320Y-114382273D01*
X150512147Y-114643426D01*
X150457000Y-114920665D01*
X150035400Y-114920665D01*
X150035400Y-114353152D01*
X150039197Y-114314599D01*
X150035400Y-114276046D01*
X150035400Y-114276039D01*
X150024041Y-114160713D01*
X150019955Y-114147241D01*
X149979154Y-114012740D01*
X149906262Y-113876367D01*
X149808164Y-113756836D01*
X149778216Y-113732258D01*
X145596157Y-109550200D01*
X146212804Y-108933554D01*
X146365865Y-108964000D01*
X146648535Y-108964000D01*
X146925774Y-108908853D01*
X147186927Y-108800680D01*
X147421959Y-108643637D01*
X147621837Y-108443759D01*
X147778880Y-108208727D01*
X147887053Y-107947574D01*
X147942200Y-107670335D01*
X147942200Y-107387665D01*
X147887053Y-107110426D01*
X147778880Y-106849273D01*
X147621837Y-106614241D01*
X147455257Y-106447661D01*
X147551380Y-106418502D01*
X147661694Y-106359537D01*
X147758385Y-106280185D01*
X147837737Y-106183494D01*
X147896702Y-106073180D01*
X147933012Y-105953482D01*
X147945272Y-105829000D01*
X147945272Y-104229000D01*
X147933012Y-104104518D01*
X147896702Y-103984820D01*
X147837737Y-103874506D01*
X147758385Y-103777815D01*
X147661694Y-103698463D01*
X147551380Y-103639498D01*
X147431682Y-103603188D01*
X147307200Y-103590928D01*
X145707200Y-103590928D01*
X145582718Y-103603188D01*
X145463020Y-103639498D01*
X145352706Y-103698463D01*
X145256015Y-103777815D01*
X145176663Y-103874506D01*
X145117698Y-103984820D01*
X145081388Y-104104518D01*
X145069128Y-104229000D01*
X145069128Y-105829000D01*
X145081388Y-105953482D01*
X145117698Y-106073180D01*
X145176663Y-106183494D01*
X145256015Y-106280185D01*
X145352706Y-106359537D01*
X145463020Y-106418502D01*
X145559143Y-106447661D01*
X145392563Y-106614241D01*
X145235520Y-106849273D01*
X145127347Y-107110426D01*
X145072200Y-107387665D01*
X145072200Y-107670335D01*
X145102646Y-107823396D01*
X144160843Y-108765200D01*
X132074958Y-108765200D01*
X129258747Y-105948990D01*
X129234164Y-105919036D01*
X129114633Y-105820938D01*
X128978260Y-105748046D01*
X128830287Y-105703159D01*
X128714961Y-105691800D01*
X128714953Y-105691800D01*
X128676400Y-105688003D01*
X128637847Y-105691800D01*
X127549358Y-105691800D01*
X127546800Y-105492550D01*
X127388050Y-105333800D01*
X126614909Y-105333800D01*
X126614200Y-105333585D01*
X126443779Y-105316800D01*
X125879821Y-105316800D01*
X125709400Y-105333585D01*
X125708691Y-105333800D01*
X124935550Y-105333800D01*
X124776800Y-105492550D01*
X124773728Y-105731800D01*
X124785988Y-105856282D01*
X124822298Y-105975980D01*
X124856893Y-106040702D01*
X124793585Y-106249400D01*
X124771188Y-106476800D01*
X124793585Y-106704200D01*
X124859915Y-106922860D01*
X124880729Y-106961800D01*
X123159558Y-106961800D01*
X122197000Y-105999243D01*
X122197000Y-104681800D01*
X124773728Y-104681800D01*
X124776800Y-104921050D01*
X124935550Y-105079800D01*
X126034800Y-105079800D01*
X126034800Y-104205550D01*
X126288800Y-104205550D01*
X126288800Y-105079800D01*
X127388050Y-105079800D01*
X127546800Y-104921050D01*
X127549872Y-104681800D01*
X127537612Y-104557318D01*
X127501302Y-104437620D01*
X127468900Y-104377000D01*
X134527328Y-104377000D01*
X134530400Y-104616250D01*
X134689150Y-104775000D01*
X135788400Y-104775000D01*
X135788400Y-103900750D01*
X136042400Y-103900750D01*
X136042400Y-104775000D01*
X137141650Y-104775000D01*
X137300400Y-104616250D01*
X137303472Y-104377000D01*
X137291212Y-104252518D01*
X137254902Y-104132820D01*
X137195937Y-104022506D01*
X137116585Y-103925815D01*
X137019894Y-103846463D01*
X136909580Y-103787498D01*
X136789882Y-103751188D01*
X136665400Y-103738928D01*
X136201150Y-103742000D01*
X136042400Y-103900750D01*
X135788400Y-103900750D01*
X135629650Y-103742000D01*
X135165400Y-103738928D01*
X135040918Y-103751188D01*
X134921220Y-103787498D01*
X134810906Y-103846463D01*
X134714215Y-103925815D01*
X134634863Y-104022506D01*
X134575898Y-104132820D01*
X134539588Y-104252518D01*
X134527328Y-104377000D01*
X127468900Y-104377000D01*
X127442337Y-104327306D01*
X127362985Y-104230615D01*
X127266294Y-104151263D01*
X127155980Y-104092298D01*
X127036282Y-104055988D01*
X126911800Y-104043728D01*
X126447550Y-104046800D01*
X126288800Y-104205550D01*
X126034800Y-104205550D01*
X125876050Y-104046800D01*
X125411800Y-104043728D01*
X125287318Y-104055988D01*
X125167620Y-104092298D01*
X125057306Y-104151263D01*
X124960615Y-104230615D01*
X124881263Y-104327306D01*
X124822298Y-104437620D01*
X124785988Y-104557318D01*
X124773728Y-104681800D01*
X122197000Y-104681800D01*
X122197000Y-102306157D01*
X122600757Y-101902400D01*
X142402242Y-101902400D01*
X138917643Y-105387000D01*
X137302958Y-105387000D01*
X137300400Y-105187750D01*
X137141650Y-105029000D01*
X136368509Y-105029000D01*
X136367800Y-105028785D01*
X136197379Y-105012000D01*
X135633421Y-105012000D01*
X135463000Y-105028785D01*
X135462291Y-105029000D01*
X134689150Y-105029000D01*
X134530400Y-105187750D01*
X134527328Y-105427000D01*
X134539588Y-105551482D01*
X134575898Y-105671180D01*
X134610493Y-105735902D01*
X134547185Y-105944600D01*
X134524788Y-106172000D01*
X134547185Y-106399400D01*
X134613515Y-106618060D01*
X134714505Y-106807000D01*
X134613515Y-106995940D01*
X134547185Y-107214600D01*
X134524788Y-107442000D01*
X134547185Y-107669400D01*
X134613515Y-107888060D01*
X134721229Y-108089579D01*
X134866188Y-108266212D01*
X135042821Y-108411171D01*
X135244340Y-108518885D01*
X135463000Y-108585215D01*
X135633421Y-108602000D01*
X136197379Y-108602000D01*
X136367800Y-108585215D01*
X136586460Y-108518885D01*
X136787979Y-108411171D01*
X136964612Y-108266212D01*
X137109571Y-108089579D01*
X137217285Y-107888060D01*
X137283615Y-107669400D01*
X137306012Y-107442000D01*
X137283615Y-107214600D01*
X137217285Y-106995940D01*
X137196471Y-106957000D01*
X139204247Y-106957000D01*
X139242800Y-106960797D01*
X139281353Y-106957000D01*
X139281361Y-106957000D01*
X139396687Y-106945641D01*
X139544660Y-106900754D01*
X139681033Y-106827862D01*
X139800564Y-106729764D01*
X139825147Y-106699810D01*
X143835158Y-102689800D01*
X148770201Y-102689800D01*
X148770200Y-105930247D01*
X148766403Y-105968800D01*
X148770200Y-106007353D01*
X148770200Y-106007360D01*
X148781559Y-106122686D01*
X148826446Y-106270659D01*
X148899338Y-106407032D01*
X148997436Y-106526564D01*
X149027390Y-106551147D01*
X150660058Y-108183816D01*
X150684636Y-108213764D01*
X150714584Y-108238342D01*
X150714587Y-108238345D01*
X150743959Y-108262450D01*
X150804167Y-108311862D01*
X150940540Y-108384754D01*
X151088512Y-108429641D01*
X151102890Y-108431057D01*
X151203839Y-108441000D01*
X151203846Y-108441000D01*
X151242399Y-108444797D01*
X151280952Y-108441000D01*
X153357661Y-108441000D01*
X153444363Y-108570759D01*
X153644241Y-108770637D01*
X153879273Y-108927680D01*
X154140426Y-109035853D01*
X154417665Y-109091000D01*
X154700335Y-109091000D01*
X154977574Y-109035853D01*
X155238727Y-108927680D01*
X155473759Y-108770637D01*
X155673637Y-108570759D01*
X155830680Y-108335727D01*
X155938853Y-108074574D01*
X155994000Y-107797335D01*
X155994000Y-107514665D01*
X155938853Y-107237426D01*
X155830680Y-106976273D01*
X155673637Y-106741241D01*
X155507057Y-106574661D01*
X155603180Y-106545502D01*
X155713494Y-106486537D01*
X155810185Y-106407185D01*
X155889537Y-106310494D01*
X155948502Y-106200180D01*
X155984812Y-106080482D01*
X155997072Y-105956000D01*
X155997072Y-104356000D01*
X155984812Y-104231518D01*
X155948502Y-104111820D01*
X155889537Y-104001506D01*
X155810185Y-103904815D01*
X155713494Y-103825463D01*
X155603180Y-103766498D01*
X155483482Y-103730188D01*
X155359000Y-103717928D01*
X155344000Y-103717928D01*
X155344000Y-98971552D01*
X155347797Y-98932999D01*
X155344000Y-98894446D01*
X155344000Y-98894439D01*
X155332641Y-98779113D01*
X155287754Y-98631140D01*
X155214862Y-98494767D01*
X155116764Y-98375236D01*
X155086817Y-98350659D01*
X153998347Y-97262190D01*
X153973764Y-97232236D01*
X153854233Y-97134138D01*
X153717860Y-97061246D01*
X153569887Y-97016359D01*
X153454561Y-97005000D01*
X153454553Y-97005000D01*
X153416000Y-97001203D01*
X153377447Y-97005000D01*
X148394339Y-97005000D01*
X148307637Y-96875241D01*
X148107759Y-96675363D01*
X147872727Y-96518320D01*
X147611574Y-96410147D01*
X147334335Y-96355000D01*
X147051665Y-96355000D01*
X146774426Y-96410147D01*
X146513273Y-96518320D01*
X146278241Y-96675363D01*
X146078363Y-96875241D01*
X145921320Y-97110273D01*
X145813147Y-97371426D01*
X145758000Y-97648665D01*
X145758000Y-97931335D01*
X145788446Y-98084396D01*
X143540443Y-100332400D01*
X122314156Y-100332400D01*
X122275600Y-100328603D01*
X122237044Y-100332400D01*
X122237039Y-100332400D01*
X122196626Y-100336380D01*
X122121713Y-100343758D01*
X121973740Y-100388646D01*
X121837367Y-100461538D01*
X121717836Y-100559636D01*
X121693255Y-100589588D01*
X120884185Y-101398658D01*
X120854237Y-101423236D01*
X120829659Y-101453184D01*
X120829655Y-101453188D01*
X120796690Y-101493356D01*
X120756139Y-101542767D01*
X120723976Y-101602940D01*
X120683246Y-101679141D01*
X120638359Y-101827114D01*
X120623203Y-101981000D01*
X120627001Y-102019563D01*
X120627000Y-106285847D01*
X120623203Y-106324400D01*
X120627000Y-106362953D01*
X120627000Y-106362960D01*
X120638359Y-106478286D01*
X120683246Y-106626259D01*
X120756138Y-106762632D01*
X120854236Y-106882164D01*
X120884190Y-106906747D01*
X122252058Y-108274616D01*
X122276636Y-108304564D01*
X122306584Y-108329142D01*
X122306587Y-108329145D01*
X122335959Y-108353250D01*
X122396167Y-108402662D01*
X122532540Y-108475554D01*
X122646072Y-108509994D01*
X122680512Y-108520441D01*
X122694890Y-108521857D01*
X122795839Y-108531800D01*
X122795846Y-108531800D01*
X122834399Y-108535597D01*
X122872952Y-108531800D01*
X125080408Y-108531800D01*
X125112588Y-108571012D01*
X125289221Y-108715971D01*
X125490740Y-108823685D01*
X125709400Y-108890015D01*
X125879821Y-108906800D01*
X126443779Y-108906800D01*
X126614200Y-108890015D01*
X126832860Y-108823685D01*
X127034379Y-108715971D01*
X127211012Y-108571012D01*
X127355971Y-108394379D01*
X127463685Y-108192860D01*
X127530015Y-107974200D01*
X127552412Y-107746800D01*
X127530015Y-107519400D01*
X127463685Y-107300740D01*
X127442871Y-107261800D01*
X128351243Y-107261800D01*
X131167458Y-110078016D01*
X131192036Y-110107964D01*
X131221984Y-110132542D01*
X131221987Y-110132545D01*
X131251359Y-110156650D01*
X131311567Y-110206062D01*
X131447940Y-110278954D01*
X131595913Y-110323842D01*
X131670826Y-110331220D01*
X131711239Y-110335200D01*
X131711244Y-110335200D01*
X131749800Y-110338997D01*
X131788355Y-110335200D01*
X144160843Y-110335200D01*
X148465401Y-114639759D01*
X148465400Y-117207847D01*
X148461603Y-117246400D01*
X148465400Y-117284953D01*
X148465400Y-117284960D01*
X148476759Y-117400286D01*
X148521646Y-117548259D01*
X148594538Y-117684632D01*
X148692636Y-117804164D01*
X148722590Y-117828747D01*
X150487446Y-119593603D01*
X150457000Y-119746665D01*
X150457000Y-120029335D01*
X150512147Y-120306574D01*
X150620320Y-120567727D01*
X150777363Y-120802759D01*
X150931990Y-120957386D01*
X145269626Y-120919770D01*
X145386637Y-120802759D01*
X145543680Y-120567727D01*
X145651853Y-120306574D01*
X145707000Y-120029335D01*
X145707000Y-119746665D01*
X145651853Y-119469426D01*
X145543680Y-119208273D01*
X145386637Y-118973241D01*
X145186759Y-118773363D01*
X144951727Y-118616320D01*
X144690574Y-118508147D01*
X144413335Y-118453000D01*
X144130665Y-118453000D01*
X143853426Y-118508147D01*
X143592273Y-118616320D01*
X143357241Y-118773363D01*
X143157363Y-118973241D01*
X143000320Y-119208273D01*
X142892147Y-119469426D01*
X142837000Y-119746665D01*
X142837000Y-120029335D01*
X142892147Y-120306574D01*
X143000320Y-120567727D01*
X143157363Y-120802759D01*
X143261031Y-120906427D01*
X108560959Y-120675913D01*
X107392982Y-118417823D01*
X113136000Y-118417823D01*
X113159513Y-118656555D01*
X113252432Y-118962868D01*
X113403325Y-119245169D01*
X113606392Y-119492608D01*
X113853830Y-119695675D01*
X114136131Y-119846568D01*
X114442444Y-119939487D01*
X114761000Y-119970862D01*
X115079555Y-119939487D01*
X115385868Y-119846568D01*
X115668169Y-119695675D01*
X115915608Y-119492608D01*
X116050698Y-119328000D01*
X118132928Y-119328000D01*
X118145188Y-119452482D01*
X118181498Y-119572180D01*
X118240463Y-119682494D01*
X118319815Y-119779185D01*
X118416506Y-119858537D01*
X118526820Y-119917502D01*
X118646518Y-119953812D01*
X118771000Y-119966072D01*
X119475250Y-119963000D01*
X119634000Y-119804250D01*
X119634000Y-117475000D01*
X119888000Y-117475000D01*
X119888000Y-119804250D01*
X120046750Y-119963000D01*
X120751000Y-119966072D01*
X120875482Y-119953812D01*
X120995180Y-119917502D01*
X121105494Y-119858537D01*
X121202185Y-119779185D01*
X121281537Y-119682494D01*
X121340502Y-119572180D01*
X121376812Y-119452482D01*
X121389072Y-119328000D01*
X121386000Y-117633750D01*
X121227250Y-117475000D01*
X119888000Y-117475000D01*
X119634000Y-117475000D01*
X118294750Y-117475000D01*
X118136000Y-117633750D01*
X118132928Y-119328000D01*
X116050698Y-119328000D01*
X116118675Y-119245170D01*
X116269568Y-118962869D01*
X116362487Y-118656556D01*
X116386000Y-118417824D01*
X116386000Y-116278176D01*
X116362487Y-116039444D01*
X116269568Y-115733131D01*
X116118675Y-115450830D01*
X116050699Y-115368000D01*
X118132928Y-115368000D01*
X118136000Y-117062250D01*
X118294750Y-117221000D01*
X119634000Y-117221000D01*
X119634000Y-114891750D01*
X119888000Y-114891750D01*
X119888000Y-117221000D01*
X121227250Y-117221000D01*
X121386000Y-117062250D01*
X121389072Y-115368000D01*
X121376812Y-115243518D01*
X121340502Y-115123820D01*
X121281537Y-115013506D01*
X121205345Y-114920665D01*
X142837000Y-114920665D01*
X142837000Y-115203335D01*
X142892147Y-115480574D01*
X143000320Y-115741727D01*
X143157363Y-115976759D01*
X143357241Y-116176637D01*
X143592273Y-116333680D01*
X143853426Y-116441853D01*
X144130665Y-116497000D01*
X144413335Y-116497000D01*
X144690574Y-116441853D01*
X144951727Y-116333680D01*
X145186759Y-116176637D01*
X145386637Y-115976759D01*
X145543680Y-115741727D01*
X145651853Y-115480574D01*
X145707000Y-115203335D01*
X145707000Y-114920665D01*
X145651853Y-114643426D01*
X145543680Y-114382273D01*
X145386637Y-114147241D01*
X145186759Y-113947363D01*
X144951727Y-113790320D01*
X144690574Y-113682147D01*
X144413335Y-113627000D01*
X144130665Y-113627000D01*
X143853426Y-113682147D01*
X143592273Y-113790320D01*
X143357241Y-113947363D01*
X143157363Y-114147241D01*
X143000320Y-114382273D01*
X142892147Y-114643426D01*
X142837000Y-114920665D01*
X121205345Y-114920665D01*
X121202185Y-114916815D01*
X121105494Y-114837463D01*
X120995180Y-114778498D01*
X120875482Y-114742188D01*
X120751000Y-114729928D01*
X120046750Y-114733000D01*
X119888000Y-114891750D01*
X119634000Y-114891750D01*
X119475250Y-114733000D01*
X118771000Y-114729928D01*
X118646518Y-114742188D01*
X118526820Y-114778498D01*
X118416506Y-114837463D01*
X118319815Y-114916815D01*
X118240463Y-115013506D01*
X118181498Y-115123820D01*
X118145188Y-115243518D01*
X118132928Y-115368000D01*
X116050699Y-115368000D01*
X115915608Y-115203392D01*
X115668170Y-115000325D01*
X115385869Y-114849432D01*
X115079556Y-114756513D01*
X114761000Y-114725138D01*
X114442445Y-114756513D01*
X114136132Y-114849432D01*
X113853831Y-115000325D01*
X113606393Y-115203392D01*
X113403326Y-115450830D01*
X113252433Y-115733131D01*
X113159514Y-116039444D01*
X113136001Y-116278176D01*
X113136000Y-118417823D01*
X107392982Y-118417823D01*
X106324400Y-116351899D01*
X106324400Y-94604000D01*
X124318928Y-94604000D01*
X124318928Y-96404000D01*
X124331188Y-96528482D01*
X124367498Y-96648180D01*
X124426463Y-96758494D01*
X124505815Y-96855185D01*
X124602506Y-96934537D01*
X124712820Y-96993502D01*
X124832518Y-97029812D01*
X124957000Y-97042072D01*
X125147602Y-97042072D01*
X125201139Y-97142233D01*
X125241690Y-97191644D01*
X125274655Y-97231812D01*
X125274659Y-97231816D01*
X125299237Y-97261764D01*
X125329185Y-97286342D01*
X127402058Y-99359216D01*
X127426636Y-99389164D01*
X127456584Y-99413742D01*
X127456587Y-99413745D01*
X127485959Y-99437850D01*
X127546167Y-99487262D01*
X127682540Y-99560154D01*
X127830513Y-99605042D01*
X127905426Y-99612420D01*
X127945839Y-99616400D01*
X127945844Y-99616400D01*
X127984400Y-99620197D01*
X128022955Y-99616400D01*
X135826047Y-99616400D01*
X135864600Y-99620197D01*
X135903153Y-99616400D01*
X135903161Y-99616400D01*
X136018487Y-99605041D01*
X136166460Y-99560154D01*
X136302833Y-99487262D01*
X136422364Y-99389164D01*
X136446947Y-99359210D01*
X137205211Y-98600946D01*
X137235164Y-98576364D01*
X137333262Y-98456833D01*
X137406154Y-98320460D01*
X137434131Y-98228233D01*
X137451042Y-98172487D01*
X137462341Y-98057759D01*
X137462400Y-98057161D01*
X137462400Y-98057156D01*
X137466197Y-98018600D01*
X137462400Y-97980044D01*
X137462400Y-97648665D01*
X138138000Y-97648665D01*
X138138000Y-97931335D01*
X138193147Y-98208574D01*
X138301320Y-98469727D01*
X138458363Y-98704759D01*
X138658241Y-98904637D01*
X138893273Y-99061680D01*
X139154426Y-99169853D01*
X139431665Y-99225000D01*
X139714335Y-99225000D01*
X139991574Y-99169853D01*
X140252727Y-99061680D01*
X140487759Y-98904637D01*
X140687637Y-98704759D01*
X140844680Y-98469727D01*
X140952853Y-98208574D01*
X141008000Y-97931335D01*
X141008000Y-97648665D01*
X140952853Y-97371426D01*
X140844680Y-97110273D01*
X140687637Y-96875241D01*
X140487759Y-96675363D01*
X140252727Y-96518320D01*
X139991574Y-96410147D01*
X139714335Y-96355000D01*
X139431665Y-96355000D01*
X139154426Y-96410147D01*
X138893273Y-96518320D01*
X138658241Y-96675363D01*
X138458363Y-96875241D01*
X138301320Y-97110273D01*
X138193147Y-97371426D01*
X138138000Y-97648665D01*
X137462400Y-97648665D01*
X137462400Y-96438757D01*
X139913604Y-93987554D01*
X140066665Y-94018000D01*
X140349335Y-94018000D01*
X140626574Y-93962853D01*
X140887727Y-93854680D01*
X141122759Y-93697637D01*
X141322637Y-93497759D01*
X141479680Y-93262727D01*
X141587853Y-93001574D01*
X141643000Y-92724335D01*
X141643000Y-92441665D01*
X146393000Y-92441665D01*
X146393000Y-92724335D01*
X146448147Y-93001574D01*
X146556320Y-93262727D01*
X146713363Y-93497759D01*
X146913241Y-93697637D01*
X147148273Y-93854680D01*
X147409426Y-93962853D01*
X147686665Y-94018000D01*
X147969335Y-94018000D01*
X148246574Y-93962853D01*
X148507727Y-93854680D01*
X148742759Y-93697637D01*
X148942637Y-93497759D01*
X149099680Y-93262727D01*
X149207853Y-93001574D01*
X149263000Y-92724335D01*
X149263000Y-92441665D01*
X149207853Y-92164426D01*
X149099680Y-91903273D01*
X148942637Y-91668241D01*
X148742759Y-91468363D01*
X148507727Y-91311320D01*
X148246574Y-91203147D01*
X147969335Y-91148000D01*
X147686665Y-91148000D01*
X147409426Y-91203147D01*
X147148273Y-91311320D01*
X146913241Y-91468363D01*
X146713363Y-91668241D01*
X146556320Y-91903273D01*
X146448147Y-92164426D01*
X146393000Y-92441665D01*
X141643000Y-92441665D01*
X141587853Y-92164426D01*
X141479680Y-91903273D01*
X141322637Y-91668241D01*
X141122759Y-91468363D01*
X140887727Y-91311320D01*
X140626574Y-91203147D01*
X140349335Y-91148000D01*
X140066665Y-91148000D01*
X139789426Y-91203147D01*
X139528273Y-91311320D01*
X139293241Y-91468363D01*
X139093363Y-91668241D01*
X138936320Y-91903273D01*
X138828147Y-92164426D01*
X138773000Y-92441665D01*
X138773000Y-92724335D01*
X138803446Y-92877396D01*
X136149585Y-95531258D01*
X136119637Y-95555836D01*
X136095059Y-95585784D01*
X136095055Y-95585788D01*
X136062090Y-95625956D01*
X136021539Y-95675367D01*
X135982577Y-95748260D01*
X135948646Y-95811741D01*
X135903759Y-95959714D01*
X135888603Y-96113600D01*
X135892401Y-96152162D01*
X135892400Y-97693443D01*
X135539443Y-98046400D01*
X128309558Y-98046400D01*
X127158839Y-96895682D01*
X127208185Y-96855185D01*
X127287537Y-96758494D01*
X127346502Y-96648180D01*
X127352056Y-96629873D01*
X127418495Y-96696312D01*
X127669905Y-96864299D01*
X127949257Y-96980011D01*
X128245816Y-97039000D01*
X128548184Y-97039000D01*
X128844743Y-96980011D01*
X129124095Y-96864299D01*
X129375505Y-96696312D01*
X129589312Y-96482505D01*
X129757299Y-96231095D01*
X129873011Y-95951743D01*
X129932000Y-95655184D01*
X129932000Y-95352816D01*
X129873011Y-95056257D01*
X129757299Y-94776905D01*
X129589312Y-94525495D01*
X129375505Y-94311688D01*
X129124095Y-94143701D01*
X128844743Y-94027989D01*
X128548184Y-93969000D01*
X128245816Y-93969000D01*
X127949257Y-94027989D01*
X127669905Y-94143701D01*
X127418495Y-94311688D01*
X127352056Y-94378127D01*
X127346502Y-94359820D01*
X127287537Y-94249506D01*
X127208185Y-94152815D01*
X127111494Y-94073463D01*
X127001180Y-94014498D01*
X126881482Y-93978188D01*
X126757000Y-93965928D01*
X124957000Y-93965928D01*
X124832518Y-93978188D01*
X124712820Y-94014498D01*
X124602506Y-94073463D01*
X124505815Y-94152815D01*
X124426463Y-94249506D01*
X124367498Y-94359820D01*
X124331188Y-94479518D01*
X124318928Y-94604000D01*
X106324400Y-94604000D01*
X106324400Y-90968465D01*
X114008000Y-90968465D01*
X114008000Y-91251135D01*
X114063147Y-91528374D01*
X114171320Y-91789527D01*
X114328363Y-92024559D01*
X114528241Y-92224437D01*
X114763273Y-92381480D01*
X115024426Y-92489653D01*
X115301665Y-92544800D01*
X115584335Y-92544800D01*
X115861574Y-92489653D01*
X116122727Y-92381480D01*
X116357759Y-92224437D01*
X116557637Y-92024559D01*
X116714680Y-91789527D01*
X116822853Y-91528374D01*
X116878000Y-91251135D01*
X116878000Y-90968465D01*
X116822853Y-90691226D01*
X116714680Y-90430073D01*
X116557637Y-90195041D01*
X116357759Y-89995163D01*
X116122727Y-89838120D01*
X115861574Y-89729947D01*
X115584335Y-89674800D01*
X115301665Y-89674800D01*
X115024426Y-89729947D01*
X114763273Y-89838120D01*
X114528241Y-89995163D01*
X114328363Y-90195041D01*
X114171320Y-90430073D01*
X114063147Y-90691226D01*
X114008000Y-90968465D01*
X106324400Y-90968465D01*
X106324400Y-87873000D01*
X124318928Y-87873000D01*
X124318928Y-89673000D01*
X124331188Y-89797482D01*
X124367498Y-89917180D01*
X124426463Y-90027494D01*
X124505815Y-90124185D01*
X124602506Y-90203537D01*
X124712820Y-90262502D01*
X124832518Y-90298812D01*
X124957000Y-90311072D01*
X126757000Y-90311072D01*
X126881482Y-90298812D01*
X127001180Y-90262502D01*
X127111494Y-90203537D01*
X127208185Y-90124185D01*
X127287537Y-90027494D01*
X127346502Y-89917180D01*
X127352056Y-89898873D01*
X127418495Y-89965312D01*
X127669905Y-90133299D01*
X127949257Y-90249011D01*
X128245816Y-90308000D01*
X128548184Y-90308000D01*
X128844743Y-90249011D01*
X129124095Y-90133299D01*
X129375505Y-89965312D01*
X129589312Y-89751505D01*
X129757299Y-89500095D01*
X129873011Y-89220743D01*
X129932000Y-88924184D01*
X129932000Y-88621816D01*
X129873011Y-88325257D01*
X129757299Y-88045905D01*
X129589312Y-87794495D01*
X129375505Y-87580688D01*
X129124095Y-87412701D01*
X128844743Y-87296989D01*
X128548184Y-87238000D01*
X128245816Y-87238000D01*
X127949257Y-87296989D01*
X127669905Y-87412701D01*
X127418495Y-87580688D01*
X127352056Y-87647127D01*
X127346502Y-87628820D01*
X127287537Y-87518506D01*
X127208185Y-87421815D01*
X127111494Y-87342463D01*
X127001180Y-87283498D01*
X126881482Y-87247188D01*
X126757000Y-87234928D01*
X124957000Y-87234928D01*
X124832518Y-87247188D01*
X124712820Y-87283498D01*
X124602506Y-87342463D01*
X124505815Y-87421815D01*
X124426463Y-87518506D01*
X124367498Y-87628820D01*
X124331188Y-87748518D01*
X124318928Y-87873000D01*
X106324400Y-87873000D01*
X106324400Y-83348465D01*
X114008000Y-83348465D01*
X114008000Y-83631135D01*
X114063147Y-83908374D01*
X114171320Y-84169527D01*
X114328363Y-84404559D01*
X114528241Y-84604437D01*
X114763273Y-84761480D01*
X115024426Y-84869653D01*
X115301665Y-84924800D01*
X115584335Y-84924800D01*
X115861574Y-84869653D01*
X116122727Y-84761480D01*
X116357759Y-84604437D01*
X116557637Y-84404559D01*
X116714680Y-84169527D01*
X116822853Y-83908374D01*
X116878000Y-83631135D01*
X116878000Y-83348465D01*
X116822853Y-83071226D01*
X116714680Y-82810073D01*
X116557637Y-82575041D01*
X116357759Y-82375163D01*
X116122727Y-82218120D01*
X115861574Y-82109947D01*
X115584335Y-82054800D01*
X115301665Y-82054800D01*
X115024426Y-82109947D01*
X114763273Y-82218120D01*
X114528241Y-82375163D01*
X114328363Y-82575041D01*
X114171320Y-82810073D01*
X114063147Y-83071226D01*
X114008000Y-83348465D01*
X106324400Y-83348465D01*
X106324400Y-81269000D01*
X124318928Y-81269000D01*
X124318928Y-83069000D01*
X124331188Y-83193482D01*
X124367498Y-83313180D01*
X124426463Y-83423494D01*
X124505815Y-83520185D01*
X124602506Y-83599537D01*
X124712820Y-83658502D01*
X124832518Y-83694812D01*
X124957000Y-83707072D01*
X126757000Y-83707072D01*
X126881482Y-83694812D01*
X127001180Y-83658502D01*
X127111494Y-83599537D01*
X127208185Y-83520185D01*
X127287537Y-83423494D01*
X127346502Y-83313180D01*
X127352056Y-83294873D01*
X127418495Y-83361312D01*
X127669905Y-83529299D01*
X127949257Y-83645011D01*
X128245816Y-83704000D01*
X128548184Y-83704000D01*
X128844743Y-83645011D01*
X129124095Y-83529299D01*
X129375505Y-83361312D01*
X129589312Y-83147505D01*
X129757299Y-82896095D01*
X129873011Y-82616743D01*
X129932000Y-82320184D01*
X129932000Y-82017816D01*
X129873011Y-81721257D01*
X129757299Y-81441905D01*
X129589312Y-81190495D01*
X129375505Y-80976688D01*
X129124095Y-80808701D01*
X128844743Y-80692989D01*
X128548184Y-80634000D01*
X128245816Y-80634000D01*
X127949257Y-80692989D01*
X127669905Y-80808701D01*
X127418495Y-80976688D01*
X127352056Y-81043127D01*
X127346502Y-81024820D01*
X127287537Y-80914506D01*
X127208185Y-80817815D01*
X127111494Y-80738463D01*
X127001180Y-80679498D01*
X126881482Y-80643188D01*
X126757000Y-80630928D01*
X124957000Y-80630928D01*
X124832518Y-80643188D01*
X124712820Y-80679498D01*
X124602506Y-80738463D01*
X124505815Y-80817815D01*
X124426463Y-80914506D01*
X124367498Y-81024820D01*
X124331188Y-81144518D01*
X124318928Y-81269000D01*
X106324400Y-81269000D01*
X106324400Y-78768383D01*
X107385350Y-78248309D01*
X107387129Y-78251646D01*
X107402903Y-78270908D01*
X107422132Y-78286722D01*
X107444076Y-78298482D01*
X107467893Y-78305734D01*
X107492666Y-78308200D01*
X107515518Y-78306151D01*
X107651738Y-78281384D01*
X138689400Y-78003811D01*
X144978212Y-83231860D01*
G37*
X144978212Y-83231860D02*
X144980630Y-83233821D01*
X146072830Y-84097421D01*
X146093779Y-84110874D01*
X146116949Y-84119982D01*
X146149966Y-84124789D01*
X165760227Y-84377173D01*
X165709776Y-121055555D01*
X152839340Y-120970056D01*
X153006637Y-120802759D01*
X153163680Y-120567727D01*
X153271853Y-120306574D01*
X153327000Y-120029335D01*
X153327000Y-119746665D01*
X153271853Y-119469426D01*
X153163680Y-119208273D01*
X153006637Y-118973241D01*
X152806759Y-118773363D01*
X152571727Y-118616320D01*
X152310574Y-118508147D01*
X152033335Y-118453000D01*
X151750665Y-118453000D01*
X151597603Y-118483446D01*
X150035400Y-116921243D01*
X150035400Y-114920665D01*
X150457000Y-114920665D01*
X150457000Y-115203335D01*
X150512147Y-115480574D01*
X150620320Y-115741727D01*
X150777363Y-115976759D01*
X150977241Y-116176637D01*
X151212273Y-116333680D01*
X151473426Y-116441853D01*
X151750665Y-116497000D01*
X152033335Y-116497000D01*
X152310574Y-116441853D01*
X152571727Y-116333680D01*
X152806759Y-116176637D01*
X153006637Y-115976759D01*
X153163680Y-115741727D01*
X153271853Y-115480574D01*
X153327000Y-115203335D01*
X153327000Y-114920665D01*
X153271853Y-114643426D01*
X153163680Y-114382273D01*
X153006637Y-114147241D01*
X152806759Y-113947363D01*
X152571727Y-113790320D01*
X152310574Y-113682147D01*
X152033335Y-113627000D01*
X151750665Y-113627000D01*
X151473426Y-113682147D01*
X151212273Y-113790320D01*
X150977241Y-113947363D01*
X150777363Y-114147241D01*
X150620320Y-114382273D01*
X150512147Y-114643426D01*
X150457000Y-114920665D01*
X150035400Y-114920665D01*
X150035400Y-114353152D01*
X150039197Y-114314599D01*
X150035400Y-114276046D01*
X150035400Y-114276039D01*
X150024041Y-114160713D01*
X150019955Y-114147241D01*
X149979154Y-114012740D01*
X149906262Y-113876367D01*
X149808164Y-113756836D01*
X149778216Y-113732258D01*
X145596157Y-109550200D01*
X146212804Y-108933554D01*
X146365865Y-108964000D01*
X146648535Y-108964000D01*
X146925774Y-108908853D01*
X147186927Y-108800680D01*
X147421959Y-108643637D01*
X147621837Y-108443759D01*
X147778880Y-108208727D01*
X147887053Y-107947574D01*
X147942200Y-107670335D01*
X147942200Y-107387665D01*
X147887053Y-107110426D01*
X147778880Y-106849273D01*
X147621837Y-106614241D01*
X147455257Y-106447661D01*
X147551380Y-106418502D01*
X147661694Y-106359537D01*
X147758385Y-106280185D01*
X147837737Y-106183494D01*
X147896702Y-106073180D01*
X147933012Y-105953482D01*
X147945272Y-105829000D01*
X147945272Y-104229000D01*
X147933012Y-104104518D01*
X147896702Y-103984820D01*
X147837737Y-103874506D01*
X147758385Y-103777815D01*
X147661694Y-103698463D01*
X147551380Y-103639498D01*
X147431682Y-103603188D01*
X147307200Y-103590928D01*
X145707200Y-103590928D01*
X145582718Y-103603188D01*
X145463020Y-103639498D01*
X145352706Y-103698463D01*
X145256015Y-103777815D01*
X145176663Y-103874506D01*
X145117698Y-103984820D01*
X145081388Y-104104518D01*
X145069128Y-104229000D01*
X145069128Y-105829000D01*
X145081388Y-105953482D01*
X145117698Y-106073180D01*
X145176663Y-106183494D01*
X145256015Y-106280185D01*
X145352706Y-106359537D01*
X145463020Y-106418502D01*
X145559143Y-106447661D01*
X145392563Y-106614241D01*
X145235520Y-106849273D01*
X145127347Y-107110426D01*
X145072200Y-107387665D01*
X145072200Y-107670335D01*
X145102646Y-107823396D01*
X144160843Y-108765200D01*
X132074958Y-108765200D01*
X129258747Y-105948990D01*
X129234164Y-105919036D01*
X129114633Y-105820938D01*
X128978260Y-105748046D01*
X128830287Y-105703159D01*
X128714961Y-105691800D01*
X128714953Y-105691800D01*
X128676400Y-105688003D01*
X128637847Y-105691800D01*
X127549358Y-105691800D01*
X127546800Y-105492550D01*
X127388050Y-105333800D01*
X126614909Y-105333800D01*
X126614200Y-105333585D01*
X126443779Y-105316800D01*
X125879821Y-105316800D01*
X125709400Y-105333585D01*
X125708691Y-105333800D01*
X124935550Y-105333800D01*
X124776800Y-105492550D01*
X124773728Y-105731800D01*
X124785988Y-105856282D01*
X124822298Y-105975980D01*
X124856893Y-106040702D01*
X124793585Y-106249400D01*
X124771188Y-106476800D01*
X124793585Y-106704200D01*
X124859915Y-106922860D01*
X124880729Y-106961800D01*
X123159558Y-106961800D01*
X122197000Y-105999243D01*
X122197000Y-104681800D01*
X124773728Y-104681800D01*
X124776800Y-104921050D01*
X124935550Y-105079800D01*
X126034800Y-105079800D01*
X126034800Y-104205550D01*
X126288800Y-104205550D01*
X126288800Y-105079800D01*
X127388050Y-105079800D01*
X127546800Y-104921050D01*
X127549872Y-104681800D01*
X127537612Y-104557318D01*
X127501302Y-104437620D01*
X127468900Y-104377000D01*
X134527328Y-104377000D01*
X134530400Y-104616250D01*
X134689150Y-104775000D01*
X135788400Y-104775000D01*
X135788400Y-103900750D01*
X136042400Y-103900750D01*
X136042400Y-104775000D01*
X137141650Y-104775000D01*
X137300400Y-104616250D01*
X137303472Y-104377000D01*
X137291212Y-104252518D01*
X137254902Y-104132820D01*
X137195937Y-104022506D01*
X137116585Y-103925815D01*
X137019894Y-103846463D01*
X136909580Y-103787498D01*
X136789882Y-103751188D01*
X136665400Y-103738928D01*
X136201150Y-103742000D01*
X136042400Y-103900750D01*
X135788400Y-103900750D01*
X135629650Y-103742000D01*
X135165400Y-103738928D01*
X135040918Y-103751188D01*
X134921220Y-103787498D01*
X134810906Y-103846463D01*
X134714215Y-103925815D01*
X134634863Y-104022506D01*
X134575898Y-104132820D01*
X134539588Y-104252518D01*
X134527328Y-104377000D01*
X127468900Y-104377000D01*
X127442337Y-104327306D01*
X127362985Y-104230615D01*
X127266294Y-104151263D01*
X127155980Y-104092298D01*
X127036282Y-104055988D01*
X126911800Y-104043728D01*
X126447550Y-104046800D01*
X126288800Y-104205550D01*
X126034800Y-104205550D01*
X125876050Y-104046800D01*
X125411800Y-104043728D01*
X125287318Y-104055988D01*
X125167620Y-104092298D01*
X125057306Y-104151263D01*
X124960615Y-104230615D01*
X124881263Y-104327306D01*
X124822298Y-104437620D01*
X124785988Y-104557318D01*
X124773728Y-104681800D01*
X122197000Y-104681800D01*
X122197000Y-102306157D01*
X122600757Y-101902400D01*
X142402242Y-101902400D01*
X138917643Y-105387000D01*
X137302958Y-105387000D01*
X137300400Y-105187750D01*
X137141650Y-105029000D01*
X136368509Y-105029000D01*
X136367800Y-105028785D01*
X136197379Y-105012000D01*
X135633421Y-105012000D01*
X135463000Y-105028785D01*
X135462291Y-105029000D01*
X134689150Y-105029000D01*
X134530400Y-105187750D01*
X134527328Y-105427000D01*
X134539588Y-105551482D01*
X134575898Y-105671180D01*
X134610493Y-105735902D01*
X134547185Y-105944600D01*
X134524788Y-106172000D01*
X134547185Y-106399400D01*
X134613515Y-106618060D01*
X134714505Y-106807000D01*
X134613515Y-106995940D01*
X134547185Y-107214600D01*
X134524788Y-107442000D01*
X134547185Y-107669400D01*
X134613515Y-107888060D01*
X134721229Y-108089579D01*
X134866188Y-108266212D01*
X135042821Y-108411171D01*
X135244340Y-108518885D01*
X135463000Y-108585215D01*
X135633421Y-108602000D01*
X136197379Y-108602000D01*
X136367800Y-108585215D01*
X136586460Y-108518885D01*
X136787979Y-108411171D01*
X136964612Y-108266212D01*
X137109571Y-108089579D01*
X137217285Y-107888060D01*
X137283615Y-107669400D01*
X137306012Y-107442000D01*
X137283615Y-107214600D01*
X137217285Y-106995940D01*
X137196471Y-106957000D01*
X139204247Y-106957000D01*
X139242800Y-106960797D01*
X139281353Y-106957000D01*
X139281361Y-106957000D01*
X139396687Y-106945641D01*
X139544660Y-106900754D01*
X139681033Y-106827862D01*
X139800564Y-106729764D01*
X139825147Y-106699810D01*
X143835158Y-102689800D01*
X148770201Y-102689800D01*
X148770200Y-105930247D01*
X148766403Y-105968800D01*
X148770200Y-106007353D01*
X148770200Y-106007360D01*
X148781559Y-106122686D01*
X148826446Y-106270659D01*
X148899338Y-106407032D01*
X148997436Y-106526564D01*
X149027390Y-106551147D01*
X150660058Y-108183816D01*
X150684636Y-108213764D01*
X150714584Y-108238342D01*
X150714587Y-108238345D01*
X150743959Y-108262450D01*
X150804167Y-108311862D01*
X150940540Y-108384754D01*
X151088512Y-108429641D01*
X151102890Y-108431057D01*
X151203839Y-108441000D01*
X151203846Y-108441000D01*
X151242399Y-108444797D01*
X151280952Y-108441000D01*
X153357661Y-108441000D01*
X153444363Y-108570759D01*
X153644241Y-108770637D01*
X153879273Y-108927680D01*
X154140426Y-109035853D01*
X154417665Y-109091000D01*
X154700335Y-109091000D01*
X154977574Y-109035853D01*
X155238727Y-108927680D01*
X155473759Y-108770637D01*
X155673637Y-108570759D01*
X155830680Y-108335727D01*
X155938853Y-108074574D01*
X155994000Y-107797335D01*
X155994000Y-107514665D01*
X155938853Y-107237426D01*
X155830680Y-106976273D01*
X155673637Y-106741241D01*
X155507057Y-106574661D01*
X155603180Y-106545502D01*
X155713494Y-106486537D01*
X155810185Y-106407185D01*
X155889537Y-106310494D01*
X155948502Y-106200180D01*
X155984812Y-106080482D01*
X155997072Y-105956000D01*
X155997072Y-104356000D01*
X155984812Y-104231518D01*
X155948502Y-104111820D01*
X155889537Y-104001506D01*
X155810185Y-103904815D01*
X155713494Y-103825463D01*
X155603180Y-103766498D01*
X155483482Y-103730188D01*
X155359000Y-103717928D01*
X155344000Y-103717928D01*
X155344000Y-98971552D01*
X155347797Y-98932999D01*
X155344000Y-98894446D01*
X155344000Y-98894439D01*
X155332641Y-98779113D01*
X155287754Y-98631140D01*
X155214862Y-98494767D01*
X155116764Y-98375236D01*
X155086817Y-98350659D01*
X153998347Y-97262190D01*
X153973764Y-97232236D01*
X153854233Y-97134138D01*
X153717860Y-97061246D01*
X153569887Y-97016359D01*
X153454561Y-97005000D01*
X153454553Y-97005000D01*
X153416000Y-97001203D01*
X153377447Y-97005000D01*
X148394339Y-97005000D01*
X148307637Y-96875241D01*
X148107759Y-96675363D01*
X147872727Y-96518320D01*
X147611574Y-96410147D01*
X147334335Y-96355000D01*
X147051665Y-96355000D01*
X146774426Y-96410147D01*
X146513273Y-96518320D01*
X146278241Y-96675363D01*
X146078363Y-96875241D01*
X145921320Y-97110273D01*
X145813147Y-97371426D01*
X145758000Y-97648665D01*
X145758000Y-97931335D01*
X145788446Y-98084396D01*
X143540443Y-100332400D01*
X122314156Y-100332400D01*
X122275600Y-100328603D01*
X122237044Y-100332400D01*
X122237039Y-100332400D01*
X122196626Y-100336380D01*
X122121713Y-100343758D01*
X121973740Y-100388646D01*
X121837367Y-100461538D01*
X121717836Y-100559636D01*
X121693255Y-100589588D01*
X120884185Y-101398658D01*
X120854237Y-101423236D01*
X120829659Y-101453184D01*
X120829655Y-101453188D01*
X120796690Y-101493356D01*
X120756139Y-101542767D01*
X120723976Y-101602940D01*
X120683246Y-101679141D01*
X120638359Y-101827114D01*
X120623203Y-101981000D01*
X120627001Y-102019563D01*
X120627000Y-106285847D01*
X120623203Y-106324400D01*
X120627000Y-106362953D01*
X120627000Y-106362960D01*
X120638359Y-106478286D01*
X120683246Y-106626259D01*
X120756138Y-106762632D01*
X120854236Y-106882164D01*
X120884190Y-106906747D01*
X122252058Y-108274616D01*
X122276636Y-108304564D01*
X122306584Y-108329142D01*
X122306587Y-108329145D01*
X122335959Y-108353250D01*
X122396167Y-108402662D01*
X122532540Y-108475554D01*
X122646072Y-108509994D01*
X122680512Y-108520441D01*
X122694890Y-108521857D01*
X122795839Y-108531800D01*
X122795846Y-108531800D01*
X122834399Y-108535597D01*
X122872952Y-108531800D01*
X125080408Y-108531800D01*
X125112588Y-108571012D01*
X125289221Y-108715971D01*
X125490740Y-108823685D01*
X125709400Y-108890015D01*
X125879821Y-108906800D01*
X126443779Y-108906800D01*
X126614200Y-108890015D01*
X126832860Y-108823685D01*
X127034379Y-108715971D01*
X127211012Y-108571012D01*
X127355971Y-108394379D01*
X127463685Y-108192860D01*
X127530015Y-107974200D01*
X127552412Y-107746800D01*
X127530015Y-107519400D01*
X127463685Y-107300740D01*
X127442871Y-107261800D01*
X128351243Y-107261800D01*
X131167458Y-110078016D01*
X131192036Y-110107964D01*
X131221984Y-110132542D01*
X131221987Y-110132545D01*
X131251359Y-110156650D01*
X131311567Y-110206062D01*
X131447940Y-110278954D01*
X131595913Y-110323842D01*
X131670826Y-110331220D01*
X131711239Y-110335200D01*
X131711244Y-110335200D01*
X131749800Y-110338997D01*
X131788355Y-110335200D01*
X144160843Y-110335200D01*
X148465401Y-114639759D01*
X148465400Y-117207847D01*
X148461603Y-117246400D01*
X148465400Y-117284953D01*
X148465400Y-117284960D01*
X148476759Y-117400286D01*
X148521646Y-117548259D01*
X148594538Y-117684632D01*
X148692636Y-117804164D01*
X148722590Y-117828747D01*
X150487446Y-119593603D01*
X150457000Y-119746665D01*
X150457000Y-120029335D01*
X150512147Y-120306574D01*
X150620320Y-120567727D01*
X150777363Y-120802759D01*
X150931990Y-120957386D01*
X145269626Y-120919770D01*
X145386637Y-120802759D01*
X145543680Y-120567727D01*
X145651853Y-120306574D01*
X145707000Y-120029335D01*
X145707000Y-119746665D01*
X145651853Y-119469426D01*
X145543680Y-119208273D01*
X145386637Y-118973241D01*
X145186759Y-118773363D01*
X144951727Y-118616320D01*
X144690574Y-118508147D01*
X144413335Y-118453000D01*
X144130665Y-118453000D01*
X143853426Y-118508147D01*
X143592273Y-118616320D01*
X143357241Y-118773363D01*
X143157363Y-118973241D01*
X143000320Y-119208273D01*
X142892147Y-119469426D01*
X142837000Y-119746665D01*
X142837000Y-120029335D01*
X142892147Y-120306574D01*
X143000320Y-120567727D01*
X143157363Y-120802759D01*
X143261031Y-120906427D01*
X108560959Y-120675913D01*
X107392982Y-118417823D01*
X113136000Y-118417823D01*
X113159513Y-118656555D01*
X113252432Y-118962868D01*
X113403325Y-119245169D01*
X113606392Y-119492608D01*
X113853830Y-119695675D01*
X114136131Y-119846568D01*
X114442444Y-119939487D01*
X114761000Y-119970862D01*
X115079555Y-119939487D01*
X115385868Y-119846568D01*
X115668169Y-119695675D01*
X115915608Y-119492608D01*
X116050698Y-119328000D01*
X118132928Y-119328000D01*
X118145188Y-119452482D01*
X118181498Y-119572180D01*
X118240463Y-119682494D01*
X118319815Y-119779185D01*
X118416506Y-119858537D01*
X118526820Y-119917502D01*
X118646518Y-119953812D01*
X118771000Y-119966072D01*
X119475250Y-119963000D01*
X119634000Y-119804250D01*
X119634000Y-117475000D01*
X119888000Y-117475000D01*
X119888000Y-119804250D01*
X120046750Y-119963000D01*
X120751000Y-119966072D01*
X120875482Y-119953812D01*
X120995180Y-119917502D01*
X121105494Y-119858537D01*
X121202185Y-119779185D01*
X121281537Y-119682494D01*
X121340502Y-119572180D01*
X121376812Y-119452482D01*
X121389072Y-119328000D01*
X121386000Y-117633750D01*
X121227250Y-117475000D01*
X119888000Y-117475000D01*
X119634000Y-117475000D01*
X118294750Y-117475000D01*
X118136000Y-117633750D01*
X118132928Y-119328000D01*
X116050698Y-119328000D01*
X116118675Y-119245170D01*
X116269568Y-118962869D01*
X116362487Y-118656556D01*
X116386000Y-118417824D01*
X116386000Y-116278176D01*
X116362487Y-116039444D01*
X116269568Y-115733131D01*
X116118675Y-115450830D01*
X116050699Y-115368000D01*
X118132928Y-115368000D01*
X118136000Y-117062250D01*
X118294750Y-117221000D01*
X119634000Y-117221000D01*
X119634000Y-114891750D01*
X119888000Y-114891750D01*
X119888000Y-117221000D01*
X121227250Y-117221000D01*
X121386000Y-117062250D01*
X121389072Y-115368000D01*
X121376812Y-115243518D01*
X121340502Y-115123820D01*
X121281537Y-115013506D01*
X121205345Y-114920665D01*
X142837000Y-114920665D01*
X142837000Y-115203335D01*
X142892147Y-115480574D01*
X143000320Y-115741727D01*
X143157363Y-115976759D01*
X143357241Y-116176637D01*
X143592273Y-116333680D01*
X143853426Y-116441853D01*
X144130665Y-116497000D01*
X144413335Y-116497000D01*
X144690574Y-116441853D01*
X144951727Y-116333680D01*
X145186759Y-116176637D01*
X145386637Y-115976759D01*
X145543680Y-115741727D01*
X145651853Y-115480574D01*
X145707000Y-115203335D01*
X145707000Y-114920665D01*
X145651853Y-114643426D01*
X145543680Y-114382273D01*
X145386637Y-114147241D01*
X145186759Y-113947363D01*
X144951727Y-113790320D01*
X144690574Y-113682147D01*
X144413335Y-113627000D01*
X144130665Y-113627000D01*
X143853426Y-113682147D01*
X143592273Y-113790320D01*
X143357241Y-113947363D01*
X143157363Y-114147241D01*
X143000320Y-114382273D01*
X142892147Y-114643426D01*
X142837000Y-114920665D01*
X121205345Y-114920665D01*
X121202185Y-114916815D01*
X121105494Y-114837463D01*
X120995180Y-114778498D01*
X120875482Y-114742188D01*
X120751000Y-114729928D01*
X120046750Y-114733000D01*
X119888000Y-114891750D01*
X119634000Y-114891750D01*
X119475250Y-114733000D01*
X118771000Y-114729928D01*
X118646518Y-114742188D01*
X118526820Y-114778498D01*
X118416506Y-114837463D01*
X118319815Y-114916815D01*
X118240463Y-115013506D01*
X118181498Y-115123820D01*
X118145188Y-115243518D01*
X118132928Y-115368000D01*
X116050699Y-115368000D01*
X115915608Y-115203392D01*
X115668170Y-115000325D01*
X115385869Y-114849432D01*
X115079556Y-114756513D01*
X114761000Y-114725138D01*
X114442445Y-114756513D01*
X114136132Y-114849432D01*
X113853831Y-115000325D01*
X113606393Y-115203392D01*
X113403326Y-115450830D01*
X113252433Y-115733131D01*
X113159514Y-116039444D01*
X113136001Y-116278176D01*
X113136000Y-118417823D01*
X107392982Y-118417823D01*
X106324400Y-116351899D01*
X106324400Y-94604000D01*
X124318928Y-94604000D01*
X124318928Y-96404000D01*
X124331188Y-96528482D01*
X124367498Y-96648180D01*
X124426463Y-96758494D01*
X124505815Y-96855185D01*
X124602506Y-96934537D01*
X124712820Y-96993502D01*
X124832518Y-97029812D01*
X124957000Y-97042072D01*
X125147602Y-97042072D01*
X125201139Y-97142233D01*
X125241690Y-97191644D01*
X125274655Y-97231812D01*
X125274659Y-97231816D01*
X125299237Y-97261764D01*
X125329185Y-97286342D01*
X127402058Y-99359216D01*
X127426636Y-99389164D01*
X127456584Y-99413742D01*
X127456587Y-99413745D01*
X127485959Y-99437850D01*
X127546167Y-99487262D01*
X127682540Y-99560154D01*
X127830513Y-99605042D01*
X127905426Y-99612420D01*
X127945839Y-99616400D01*
X127945844Y-99616400D01*
X127984400Y-99620197D01*
X128022955Y-99616400D01*
X135826047Y-99616400D01*
X135864600Y-99620197D01*
X135903153Y-99616400D01*
X135903161Y-99616400D01*
X136018487Y-99605041D01*
X136166460Y-99560154D01*
X136302833Y-99487262D01*
X136422364Y-99389164D01*
X136446947Y-99359210D01*
X137205211Y-98600946D01*
X137235164Y-98576364D01*
X137333262Y-98456833D01*
X137406154Y-98320460D01*
X137434131Y-98228233D01*
X137451042Y-98172487D01*
X137462341Y-98057759D01*
X137462400Y-98057161D01*
X137462400Y-98057156D01*
X137466197Y-98018600D01*
X137462400Y-97980044D01*
X137462400Y-97648665D01*
X138138000Y-97648665D01*
X138138000Y-97931335D01*
X138193147Y-98208574D01*
X138301320Y-98469727D01*
X138458363Y-98704759D01*
X138658241Y-98904637D01*
X138893273Y-99061680D01*
X139154426Y-99169853D01*
X139431665Y-99225000D01*
X139714335Y-99225000D01*
X139991574Y-99169853D01*
X140252727Y-99061680D01*
X140487759Y-98904637D01*
X140687637Y-98704759D01*
X140844680Y-98469727D01*
X140952853Y-98208574D01*
X141008000Y-97931335D01*
X141008000Y-97648665D01*
X140952853Y-97371426D01*
X140844680Y-97110273D01*
X140687637Y-96875241D01*
X140487759Y-96675363D01*
X140252727Y-96518320D01*
X139991574Y-96410147D01*
X139714335Y-96355000D01*
X139431665Y-96355000D01*
X139154426Y-96410147D01*
X138893273Y-96518320D01*
X138658241Y-96675363D01*
X138458363Y-96875241D01*
X138301320Y-97110273D01*
X138193147Y-97371426D01*
X138138000Y-97648665D01*
X137462400Y-97648665D01*
X137462400Y-96438757D01*
X139913604Y-93987554D01*
X140066665Y-94018000D01*
X140349335Y-94018000D01*
X140626574Y-93962853D01*
X140887727Y-93854680D01*
X141122759Y-93697637D01*
X141322637Y-93497759D01*
X141479680Y-93262727D01*
X141587853Y-93001574D01*
X141643000Y-92724335D01*
X141643000Y-92441665D01*
X146393000Y-92441665D01*
X146393000Y-92724335D01*
X146448147Y-93001574D01*
X146556320Y-93262727D01*
X146713363Y-93497759D01*
X146913241Y-93697637D01*
X147148273Y-93854680D01*
X147409426Y-93962853D01*
X147686665Y-94018000D01*
X147969335Y-94018000D01*
X148246574Y-93962853D01*
X148507727Y-93854680D01*
X148742759Y-93697637D01*
X148942637Y-93497759D01*
X149099680Y-93262727D01*
X149207853Y-93001574D01*
X149263000Y-92724335D01*
X149263000Y-92441665D01*
X149207853Y-92164426D01*
X149099680Y-91903273D01*
X148942637Y-91668241D01*
X148742759Y-91468363D01*
X148507727Y-91311320D01*
X148246574Y-91203147D01*
X147969335Y-91148000D01*
X147686665Y-91148000D01*
X147409426Y-91203147D01*
X147148273Y-91311320D01*
X146913241Y-91468363D01*
X146713363Y-91668241D01*
X146556320Y-91903273D01*
X146448147Y-92164426D01*
X146393000Y-92441665D01*
X141643000Y-92441665D01*
X141587853Y-92164426D01*
X141479680Y-91903273D01*
X141322637Y-91668241D01*
X141122759Y-91468363D01*
X140887727Y-91311320D01*
X140626574Y-91203147D01*
X140349335Y-91148000D01*
X140066665Y-91148000D01*
X139789426Y-91203147D01*
X139528273Y-91311320D01*
X139293241Y-91468363D01*
X139093363Y-91668241D01*
X138936320Y-91903273D01*
X138828147Y-92164426D01*
X138773000Y-92441665D01*
X138773000Y-92724335D01*
X138803446Y-92877396D01*
X136149585Y-95531258D01*
X136119637Y-95555836D01*
X136095059Y-95585784D01*
X136095055Y-95585788D01*
X136062090Y-95625956D01*
X136021539Y-95675367D01*
X135982577Y-95748260D01*
X135948646Y-95811741D01*
X135903759Y-95959714D01*
X135888603Y-96113600D01*
X135892401Y-96152162D01*
X135892400Y-97693443D01*
X135539443Y-98046400D01*
X128309558Y-98046400D01*
X127158839Y-96895682D01*
X127208185Y-96855185D01*
X127287537Y-96758494D01*
X127346502Y-96648180D01*
X127352056Y-96629873D01*
X127418495Y-96696312D01*
X127669905Y-96864299D01*
X127949257Y-96980011D01*
X128245816Y-97039000D01*
X128548184Y-97039000D01*
X128844743Y-96980011D01*
X129124095Y-96864299D01*
X129375505Y-96696312D01*
X129589312Y-96482505D01*
X129757299Y-96231095D01*
X129873011Y-95951743D01*
X129932000Y-95655184D01*
X129932000Y-95352816D01*
X129873011Y-95056257D01*
X129757299Y-94776905D01*
X129589312Y-94525495D01*
X129375505Y-94311688D01*
X129124095Y-94143701D01*
X128844743Y-94027989D01*
X128548184Y-93969000D01*
X128245816Y-93969000D01*
X127949257Y-94027989D01*
X127669905Y-94143701D01*
X127418495Y-94311688D01*
X127352056Y-94378127D01*
X127346502Y-94359820D01*
X127287537Y-94249506D01*
X127208185Y-94152815D01*
X127111494Y-94073463D01*
X127001180Y-94014498D01*
X126881482Y-93978188D01*
X126757000Y-93965928D01*
X124957000Y-93965928D01*
X124832518Y-93978188D01*
X124712820Y-94014498D01*
X124602506Y-94073463D01*
X124505815Y-94152815D01*
X124426463Y-94249506D01*
X124367498Y-94359820D01*
X124331188Y-94479518D01*
X124318928Y-94604000D01*
X106324400Y-94604000D01*
X106324400Y-90968465D01*
X114008000Y-90968465D01*
X114008000Y-91251135D01*
X114063147Y-91528374D01*
X114171320Y-91789527D01*
X114328363Y-92024559D01*
X114528241Y-92224437D01*
X114763273Y-92381480D01*
X115024426Y-92489653D01*
X115301665Y-92544800D01*
X115584335Y-92544800D01*
X115861574Y-92489653D01*
X116122727Y-92381480D01*
X116357759Y-92224437D01*
X116557637Y-92024559D01*
X116714680Y-91789527D01*
X116822853Y-91528374D01*
X116878000Y-91251135D01*
X116878000Y-90968465D01*
X116822853Y-90691226D01*
X116714680Y-90430073D01*
X116557637Y-90195041D01*
X116357759Y-89995163D01*
X116122727Y-89838120D01*
X115861574Y-89729947D01*
X115584335Y-89674800D01*
X115301665Y-89674800D01*
X115024426Y-89729947D01*
X114763273Y-89838120D01*
X114528241Y-89995163D01*
X114328363Y-90195041D01*
X114171320Y-90430073D01*
X114063147Y-90691226D01*
X114008000Y-90968465D01*
X106324400Y-90968465D01*
X106324400Y-87873000D01*
X124318928Y-87873000D01*
X124318928Y-89673000D01*
X124331188Y-89797482D01*
X124367498Y-89917180D01*
X124426463Y-90027494D01*
X124505815Y-90124185D01*
X124602506Y-90203537D01*
X124712820Y-90262502D01*
X124832518Y-90298812D01*
X124957000Y-90311072D01*
X126757000Y-90311072D01*
X126881482Y-90298812D01*
X127001180Y-90262502D01*
X127111494Y-90203537D01*
X127208185Y-90124185D01*
X127287537Y-90027494D01*
X127346502Y-89917180D01*
X127352056Y-89898873D01*
X127418495Y-89965312D01*
X127669905Y-90133299D01*
X127949257Y-90249011D01*
X128245816Y-90308000D01*
X128548184Y-90308000D01*
X128844743Y-90249011D01*
X129124095Y-90133299D01*
X129375505Y-89965312D01*
X129589312Y-89751505D01*
X129757299Y-89500095D01*
X129873011Y-89220743D01*
X129932000Y-88924184D01*
X129932000Y-88621816D01*
X129873011Y-88325257D01*
X129757299Y-88045905D01*
X129589312Y-87794495D01*
X129375505Y-87580688D01*
X129124095Y-87412701D01*
X128844743Y-87296989D01*
X128548184Y-87238000D01*
X128245816Y-87238000D01*
X127949257Y-87296989D01*
X127669905Y-87412701D01*
X127418495Y-87580688D01*
X127352056Y-87647127D01*
X127346502Y-87628820D01*
X127287537Y-87518506D01*
X127208185Y-87421815D01*
X127111494Y-87342463D01*
X127001180Y-87283498D01*
X126881482Y-87247188D01*
X126757000Y-87234928D01*
X124957000Y-87234928D01*
X124832518Y-87247188D01*
X124712820Y-87283498D01*
X124602506Y-87342463D01*
X124505815Y-87421815D01*
X124426463Y-87518506D01*
X124367498Y-87628820D01*
X124331188Y-87748518D01*
X124318928Y-87873000D01*
X106324400Y-87873000D01*
X106324400Y-83348465D01*
X114008000Y-83348465D01*
X114008000Y-83631135D01*
X114063147Y-83908374D01*
X114171320Y-84169527D01*
X114328363Y-84404559D01*
X114528241Y-84604437D01*
X114763273Y-84761480D01*
X115024426Y-84869653D01*
X115301665Y-84924800D01*
X115584335Y-84924800D01*
X115861574Y-84869653D01*
X116122727Y-84761480D01*
X116357759Y-84604437D01*
X116557637Y-84404559D01*
X116714680Y-84169527D01*
X116822853Y-83908374D01*
X116878000Y-83631135D01*
X116878000Y-83348465D01*
X116822853Y-83071226D01*
X116714680Y-82810073D01*
X116557637Y-82575041D01*
X116357759Y-82375163D01*
X116122727Y-82218120D01*
X115861574Y-82109947D01*
X115584335Y-82054800D01*
X115301665Y-82054800D01*
X115024426Y-82109947D01*
X114763273Y-82218120D01*
X114528241Y-82375163D01*
X114328363Y-82575041D01*
X114171320Y-82810073D01*
X114063147Y-83071226D01*
X114008000Y-83348465D01*
X106324400Y-83348465D01*
X106324400Y-81269000D01*
X124318928Y-81269000D01*
X124318928Y-83069000D01*
X124331188Y-83193482D01*
X124367498Y-83313180D01*
X124426463Y-83423494D01*
X124505815Y-83520185D01*
X124602506Y-83599537D01*
X124712820Y-83658502D01*
X124832518Y-83694812D01*
X124957000Y-83707072D01*
X126757000Y-83707072D01*
X126881482Y-83694812D01*
X127001180Y-83658502D01*
X127111494Y-83599537D01*
X127208185Y-83520185D01*
X127287537Y-83423494D01*
X127346502Y-83313180D01*
X127352056Y-83294873D01*
X127418495Y-83361312D01*
X127669905Y-83529299D01*
X127949257Y-83645011D01*
X128245816Y-83704000D01*
X128548184Y-83704000D01*
X128844743Y-83645011D01*
X129124095Y-83529299D01*
X129375505Y-83361312D01*
X129589312Y-83147505D01*
X129757299Y-82896095D01*
X129873011Y-82616743D01*
X129932000Y-82320184D01*
X129932000Y-82017816D01*
X129873011Y-81721257D01*
X129757299Y-81441905D01*
X129589312Y-81190495D01*
X129375505Y-80976688D01*
X129124095Y-80808701D01*
X128844743Y-80692989D01*
X128548184Y-80634000D01*
X128245816Y-80634000D01*
X127949257Y-80692989D01*
X127669905Y-80808701D01*
X127418495Y-80976688D01*
X127352056Y-81043127D01*
X127346502Y-81024820D01*
X127287537Y-80914506D01*
X127208185Y-80817815D01*
X127111494Y-80738463D01*
X127001180Y-80679498D01*
X126881482Y-80643188D01*
X126757000Y-80630928D01*
X124957000Y-80630928D01*
X124832518Y-80643188D01*
X124712820Y-80679498D01*
X124602506Y-80738463D01*
X124505815Y-80817815D01*
X124426463Y-80914506D01*
X124367498Y-81024820D01*
X124331188Y-81144518D01*
X124318928Y-81269000D01*
X106324400Y-81269000D01*
X106324400Y-78768383D01*
X107385350Y-78248309D01*
X107387129Y-78251646D01*
X107402903Y-78270908D01*
X107422132Y-78286722D01*
X107444076Y-78298482D01*
X107467893Y-78305734D01*
X107492666Y-78308200D01*
X107515518Y-78306151D01*
X107651738Y-78281384D01*
X138689400Y-78003811D01*
X144978212Y-83231860D01*
%TD*%
M02*
