%TF.GenerationSoftware,KiCad,Pcbnew,(5.1.6)-1*%
%TF.CreationDate,2020-09-30T19:57:20-06:00*%
%TF.ProjectId,PCB_LDE,5043425f-4c44-4452-9e6b-696361645f70,v1.0*%
%TF.SameCoordinates,Original*%
%TF.FileFunction,Copper,L1,Top*%
%TF.FilePolarity,Positive*%
%FSLAX46Y46*%
G04 Gerber Fmt 4.6, Leading zero omitted, Abs format (unit mm)*
G04 Created by KiCad (PCBNEW (5.1.6)-1) date 2020-09-30 19:57:20*
%MOMM*%
%LPD*%
G01*
G04 APERTURE LIST*
%TA.AperFunction,ComponentPad*%
%ADD10R,1.600000X1.600000*%
%TD*%
%TA.AperFunction,ComponentPad*%
%ADD11C,1.600000*%
%TD*%
%TA.AperFunction,ComponentPad*%
%ADD12R,1.800000X1.800000*%
%TD*%
%TA.AperFunction,ComponentPad*%
%ADD13C,1.800000*%
%TD*%
%TA.AperFunction,ComponentPad*%
%ADD14O,1.500000X1.050000*%
%TD*%
%TA.AperFunction,ComponentPad*%
%ADD15R,1.500000X1.050000*%
%TD*%
%TA.AperFunction,ComponentPad*%
%ADD16O,1.600000X1.600000*%
%TD*%
%TA.AperFunction,ComponentPad*%
%ADD17R,1.980000X3.960000*%
%TD*%
%TA.AperFunction,ComponentPad*%
%ADD18O,1.980000X3.960000*%
%TD*%
%TA.AperFunction,Conductor*%
%ADD19C,0.300000*%
%TD*%
%TA.AperFunction,Conductor*%
%ADD20C,0.254000*%
%TD*%
G04 APERTURE END LIST*
D10*
%TO.P,C1,1*%
%TO.N,Net-(C1-Pad1)*%
X154559000Y-105156000D03*
D11*
%TO.P,C1,2*%
%TO.N,Net-(C1-Pad2)*%
X154559000Y-107656000D03*
%TD*%
%TO.P,C2,2*%
%TO.N,Net-(C2-Pad2)*%
X146507200Y-107529000D03*
D10*
%TO.P,C2,1*%
%TO.N,Net-(C2-Pad1)*%
X146507200Y-105029000D03*
%TD*%
D12*
%TO.P,D1,1*%
%TO.N,Net-(D1-Pad1)*%
X125857000Y-82169000D03*
D13*
%TO.P,D1,2*%
%TO.N,VCC*%
X128397000Y-82169000D03*
%TD*%
%TO.P,D2,2*%
%TO.N,VCC*%
X128397000Y-95504000D03*
D12*
%TO.P,D2,1*%
%TO.N,Net-(D2-Pad1)*%
X125857000Y-95504000D03*
%TD*%
%TO.P,D3,1*%
%TO.N,Net-(D3-Pad1)*%
X125857000Y-88773000D03*
D13*
%TO.P,D3,2*%
%TO.N,VCC*%
X128397000Y-88773000D03*
%TD*%
D14*
%TO.P,Q1,2*%
%TO.N,Net-(C2-Pad2)*%
X126161800Y-106476800D03*
%TO.P,Q1,3*%
%TO.N,Net-(C1-Pad1)*%
X126161800Y-107746800D03*
D15*
%TO.P,Q1,1*%
%TO.N,Earth*%
X126161800Y-105206800D03*
%TD*%
%TO.P,Q2,1*%
%TO.N,Earth*%
X135915400Y-104902000D03*
D14*
%TO.P,Q2,3*%
%TO.N,Net-(C2-Pad1)*%
X135915400Y-107442000D03*
%TO.P,Q2,2*%
%TO.N,Net-(C1-Pad2)*%
X135915400Y-106172000D03*
%TD*%
D11*
%TO.P,R1,1*%
%TO.N,Net-(D1-Pad1)*%
X139573000Y-97790000D03*
D16*
%TO.P,R1,2*%
%TO.N,Net-(C1-Pad1)*%
X147193000Y-97790000D03*
%TD*%
D11*
%TO.P,R2,1*%
%TO.N,Net-(D2-Pad1)*%
X140208000Y-92583000D03*
D16*
%TO.P,R2,2*%
%TO.N,Net-(C1-Pad1)*%
X147828000Y-92583000D03*
%TD*%
%TO.P,R3,2*%
%TO.N,Net-(C2-Pad2)*%
X151892000Y-119888000D03*
D11*
%TO.P,R3,1*%
%TO.N,VCC*%
X144272000Y-119888000D03*
%TD*%
%TO.P,R4,1*%
%TO.N,VCC*%
X115443000Y-83489800D03*
D16*
%TO.P,R4,2*%
%TO.N,Net-(C1-Pad2)*%
X115443000Y-91109800D03*
%TD*%
%TO.P,R5,2*%
%TO.N,Net-(C2-Pad1)*%
X151892000Y-115062000D03*
D11*
%TO.P,R5,1*%
%TO.N,Net-(D3-Pad1)*%
X144272000Y-115062000D03*
%TD*%
D17*
%TO.P,J1,1*%
%TO.N,Earth*%
X119761000Y-117348000D03*
D18*
%TO.P,J1,2*%
%TO.N,VCC*%
X114761000Y-117348000D03*
%TD*%
D19*
%TO.N,Net-(C1-Pad1)*%
X144957800Y-95453200D02*
X147828000Y-92583000D01*
X141859000Y-100711000D02*
X144957800Y-97612200D01*
X144957800Y-97612200D02*
X144957800Y-95453200D01*
X124841000Y-107746800D02*
X123774200Y-106680000D01*
X126161800Y-107746800D02*
X124841000Y-107746800D01*
X123774200Y-106680000D02*
X123774200Y-101320600D01*
X123774200Y-101320600D02*
X124383800Y-100711000D01*
X124383800Y-100711000D02*
X141859000Y-100711000D01*
%TO.N,Net-(C1-Pad2)*%
X123007210Y-106624372D02*
X127609438Y-111226600D01*
X119032801Y-87519999D02*
X127039401Y-87519999D01*
X115443000Y-91109800D02*
X119032801Y-87519999D01*
X127039401Y-87519999D02*
X127110001Y-87590599D01*
X123007210Y-94058192D02*
X123007210Y-106624372D01*
X127110001Y-89955401D02*
X123007210Y-94058192D01*
X127110001Y-87590599D02*
X127110001Y-89955401D01*
X127609438Y-111226600D02*
X128397000Y-111226600D01*
X133451600Y-106172000D02*
X135915400Y-106172000D01*
X128397000Y-111226600D02*
X133451600Y-106172000D01*
%TO.N,Net-(C2-Pad1)*%
X151892000Y-115062000D02*
X151892000Y-110845600D01*
X151892000Y-110845600D02*
X148894800Y-107848400D01*
X148894800Y-107416600D02*
X146507200Y-105029000D01*
X148894800Y-107848400D02*
X148894800Y-107416600D01*
X135915400Y-107442000D02*
X141909800Y-107442000D01*
X144322800Y-105029000D02*
X146507200Y-105029000D01*
X141909800Y-107442000D02*
X144322800Y-105029000D01*
%TO.N,Net-(D1-Pad1)*%
X134924800Y-97790000D02*
X139573000Y-97790000D01*
X125857000Y-84810600D02*
X126415800Y-85369400D01*
X126415800Y-85369400D02*
X131927600Y-85369400D01*
X125857000Y-82169000D02*
X125857000Y-84810600D01*
X133477000Y-96342200D02*
X134924800Y-97790000D01*
X131927600Y-85369400D02*
X133477000Y-86918800D01*
X133477000Y-86918800D02*
X133477000Y-96342200D01*
%TO.N,Net-(D3-Pad1)*%
X144272000Y-115062000D02*
X127254000Y-115062000D01*
X127254000Y-115062000D02*
X122504200Y-110312200D01*
X122504200Y-92125800D02*
X125857000Y-88773000D01*
X122504200Y-110312200D02*
X122504200Y-92125800D01*
%TD*%
D20*
%TO.N,VCC*%
G36*
X146556270Y-84250479D02*
G01*
X146577331Y-84263756D01*
X146600578Y-84272668D01*
X146633527Y-84277198D01*
X165685330Y-84378135D01*
X166013295Y-120883243D01*
X153240073Y-121354869D01*
X153222461Y-121336927D01*
X153168161Y-121291474D01*
X153113938Y-121245861D01*
X153113154Y-121245429D01*
X153112465Y-121244852D01*
X153050292Y-121210768D01*
X152988321Y-121176598D01*
X152987467Y-121176326D01*
X152986679Y-121175894D01*
X152918979Y-121154506D01*
X152851643Y-121133054D01*
X152850755Y-121132953D01*
X152849896Y-121132682D01*
X152779373Y-121124856D01*
X152709110Y-121116886D01*
X152707425Y-121116872D01*
X152707324Y-121116861D01*
X152707213Y-121116870D01*
X152698848Y-121116802D01*
X152636016Y-121116724D01*
X152806759Y-121002637D01*
X153006637Y-120802759D01*
X153163680Y-120567727D01*
X153271853Y-120306574D01*
X153327000Y-120029335D01*
X153327000Y-119746665D01*
X153271853Y-119469426D01*
X153163680Y-119208273D01*
X153006637Y-118973241D01*
X152806759Y-118773363D01*
X152571727Y-118616320D01*
X152310574Y-118508147D01*
X152033335Y-118453000D01*
X151750665Y-118453000D01*
X151473426Y-118508147D01*
X151212273Y-118616320D01*
X150977241Y-118773363D01*
X150777363Y-118973241D01*
X150620320Y-119208273D01*
X150512147Y-119469426D01*
X150457000Y-119746665D01*
X150457000Y-120029335D01*
X150512147Y-120306574D01*
X150620320Y-120567727D01*
X150777363Y-120802759D01*
X150977241Y-121002637D01*
X151145205Y-121114867D01*
X145018630Y-121107236D01*
X145085097Y-120880702D01*
X144272000Y-120067605D01*
X143458903Y-120880702D01*
X143524824Y-121105375D01*
X141634924Y-121103021D01*
X141596267Y-121106763D01*
X141557407Y-121107022D01*
X141525028Y-121113658D01*
X141492144Y-121116841D01*
X141454944Y-121128022D01*
X141416881Y-121135823D01*
X141386410Y-121148621D01*
X141354768Y-121158131D01*
X141320451Y-121176323D01*
X141284626Y-121191369D01*
X141257221Y-121209841D01*
X141228028Y-121225317D01*
X141197892Y-121249833D01*
X141165678Y-121271547D01*
X141142386Y-121294987D01*
X141116752Y-121315841D01*
X141099482Y-121336664D01*
X108231764Y-120752975D01*
X106563334Y-117475000D01*
X113136000Y-117475000D01*
X113136000Y-118465000D01*
X113192000Y-118779582D01*
X113308296Y-119077194D01*
X113480419Y-119346399D01*
X113701754Y-119576852D01*
X113963795Y-119759696D01*
X114256472Y-119887905D01*
X114382135Y-119918218D01*
X114634000Y-119798740D01*
X114634000Y-117475000D01*
X114888000Y-117475000D01*
X114888000Y-119798740D01*
X115139865Y-119918218D01*
X115265528Y-119887905D01*
X115558205Y-119759696D01*
X115820246Y-119576852D01*
X116041581Y-119346399D01*
X116213704Y-119077194D01*
X116330000Y-118779582D01*
X116386000Y-118465000D01*
X116386000Y-117475000D01*
X114888000Y-117475000D01*
X114634000Y-117475000D01*
X113136000Y-117475000D01*
X106563334Y-117475000D01*
X106121282Y-116606500D01*
X106122288Y-116231000D01*
X113136000Y-116231000D01*
X113136000Y-117221000D01*
X114634000Y-117221000D01*
X114634000Y-114897260D01*
X114888000Y-114897260D01*
X114888000Y-117221000D01*
X116386000Y-117221000D01*
X116386000Y-116231000D01*
X116330000Y-115916418D01*
X116213704Y-115618806D01*
X116053345Y-115368000D01*
X118132928Y-115368000D01*
X118132928Y-119328000D01*
X118145188Y-119452482D01*
X118181498Y-119572180D01*
X118240463Y-119682494D01*
X118319815Y-119779185D01*
X118416506Y-119858537D01*
X118526820Y-119917502D01*
X118646518Y-119953812D01*
X118771000Y-119966072D01*
X120751000Y-119966072D01*
X120827760Y-119958512D01*
X142831783Y-119958512D01*
X142873213Y-120238130D01*
X142968397Y-120504292D01*
X143035329Y-120629514D01*
X143279298Y-120701097D01*
X144092395Y-119888000D01*
X144451605Y-119888000D01*
X145264702Y-120701097D01*
X145508671Y-120629514D01*
X145629571Y-120374004D01*
X145698300Y-120099816D01*
X145712217Y-119817488D01*
X145670787Y-119537870D01*
X145575603Y-119271708D01*
X145508671Y-119146486D01*
X145264702Y-119074903D01*
X144451605Y-119888000D01*
X144092395Y-119888000D01*
X143279298Y-119074903D01*
X143035329Y-119146486D01*
X142914429Y-119401996D01*
X142845700Y-119676184D01*
X142831783Y-119958512D01*
X120827760Y-119958512D01*
X120875482Y-119953812D01*
X120995180Y-119917502D01*
X121105494Y-119858537D01*
X121202185Y-119779185D01*
X121281537Y-119682494D01*
X121340502Y-119572180D01*
X121376812Y-119452482D01*
X121389072Y-119328000D01*
X121389072Y-118895298D01*
X143458903Y-118895298D01*
X144272000Y-119708395D01*
X145085097Y-118895298D01*
X145013514Y-118651329D01*
X144758004Y-118530429D01*
X144483816Y-118461700D01*
X144201488Y-118447783D01*
X143921870Y-118489213D01*
X143655708Y-118584397D01*
X143530486Y-118651329D01*
X143458903Y-118895298D01*
X121389072Y-118895298D01*
X121389072Y-115368000D01*
X121376812Y-115243518D01*
X121340502Y-115123820D01*
X121281537Y-115013506D01*
X121202185Y-114916815D01*
X121105494Y-114837463D01*
X120995180Y-114778498D01*
X120875482Y-114742188D01*
X120751000Y-114729928D01*
X118771000Y-114729928D01*
X118646518Y-114742188D01*
X118526820Y-114778498D01*
X118416506Y-114837463D01*
X118319815Y-114916815D01*
X118240463Y-115013506D01*
X118181498Y-115123820D01*
X118145188Y-115243518D01*
X118132928Y-115368000D01*
X116053345Y-115368000D01*
X116041581Y-115349601D01*
X115820246Y-115119148D01*
X115558205Y-114936304D01*
X115265528Y-114808095D01*
X115139865Y-114777782D01*
X114888000Y-114897260D01*
X114634000Y-114897260D01*
X114382135Y-114777782D01*
X114256472Y-114808095D01*
X113963795Y-114936304D01*
X113701754Y-115119148D01*
X113480419Y-115349601D01*
X113308296Y-115618806D01*
X113192000Y-115916418D01*
X113136000Y-116231000D01*
X106122288Y-116231000D01*
X106127261Y-114376502D01*
X106142775Y-114344181D01*
X106143801Y-114340198D01*
X106145537Y-114336475D01*
X106161674Y-114270788D01*
X106178547Y-114205265D01*
X106178779Y-114201162D01*
X106179760Y-114197170D01*
X106182831Y-114129614D01*
X106186657Y-114062048D01*
X106186087Y-114057975D01*
X106186274Y-114053871D01*
X106176167Y-113987024D01*
X106166794Y-113919983D01*
X106165444Y-113916098D01*
X106164830Y-113912036D01*
X106162244Y-113902105D01*
X106144019Y-113834076D01*
X106128886Y-113770390D01*
X106190017Y-90968465D01*
X114008000Y-90968465D01*
X114008000Y-91251135D01*
X114063147Y-91528374D01*
X114171320Y-91789527D01*
X114328363Y-92024559D01*
X114528241Y-92224437D01*
X114763273Y-92381480D01*
X115024426Y-92489653D01*
X115301665Y-92544800D01*
X115584335Y-92544800D01*
X115861574Y-92489653D01*
X116122727Y-92381480D01*
X116357759Y-92224437D01*
X116557637Y-92024559D01*
X116714680Y-91789527D01*
X116822853Y-91528374D01*
X116878000Y-91251135D01*
X116878000Y-90968465D01*
X116847554Y-90815403D01*
X119357959Y-88304999D01*
X124318928Y-88304999D01*
X124318928Y-89200914D01*
X121976385Y-91543458D01*
X121946437Y-91568036D01*
X121921859Y-91597984D01*
X121921855Y-91597988D01*
X121888890Y-91638156D01*
X121848339Y-91687567D01*
X121809377Y-91760460D01*
X121775446Y-91823941D01*
X121730559Y-91971914D01*
X121715403Y-92125800D01*
X121719201Y-92164363D01*
X121719200Y-110273647D01*
X121715403Y-110312200D01*
X121719200Y-110350753D01*
X121719200Y-110350760D01*
X121730559Y-110466086D01*
X121775446Y-110614059D01*
X121848338Y-110750432D01*
X121946436Y-110869964D01*
X121976390Y-110894547D01*
X126671653Y-115589810D01*
X126696236Y-115619764D01*
X126815767Y-115717862D01*
X126932958Y-115780501D01*
X126952140Y-115790754D01*
X127100113Y-115835642D01*
X127175026Y-115843020D01*
X127215439Y-115847000D01*
X127215444Y-115847000D01*
X127254000Y-115850797D01*
X127292556Y-115847000D01*
X143070661Y-115847000D01*
X143157363Y-115976759D01*
X143357241Y-116176637D01*
X143592273Y-116333680D01*
X143853426Y-116441853D01*
X144130665Y-116497000D01*
X144413335Y-116497000D01*
X144690574Y-116441853D01*
X144951727Y-116333680D01*
X145186759Y-116176637D01*
X145386637Y-115976759D01*
X145543680Y-115741727D01*
X145651853Y-115480574D01*
X145707000Y-115203335D01*
X145707000Y-114920665D01*
X145651853Y-114643426D01*
X145543680Y-114382273D01*
X145386637Y-114147241D01*
X145186759Y-113947363D01*
X144951727Y-113790320D01*
X144690574Y-113682147D01*
X144413335Y-113627000D01*
X144130665Y-113627000D01*
X143853426Y-113682147D01*
X143592273Y-113790320D01*
X143357241Y-113947363D01*
X143157363Y-114147241D01*
X143070661Y-114277000D01*
X127579157Y-114277000D01*
X123289200Y-109987043D01*
X123289200Y-108016519D01*
X127027096Y-111754416D01*
X127051674Y-111784364D01*
X127081622Y-111808942D01*
X127081625Y-111808945D01*
X127110997Y-111833050D01*
X127171205Y-111882462D01*
X127307578Y-111955354D01*
X127421110Y-111989794D01*
X127455550Y-112000241D01*
X127469928Y-112001657D01*
X127570877Y-112011600D01*
X127570884Y-112011600D01*
X127609437Y-112015397D01*
X127647990Y-112011600D01*
X128358447Y-112011600D01*
X128397000Y-112015397D01*
X128435553Y-112011600D01*
X128435561Y-112011600D01*
X128550887Y-112000241D01*
X128698860Y-111955354D01*
X128835233Y-111882462D01*
X128954764Y-111784364D01*
X128979347Y-111754410D01*
X133776757Y-106957000D01*
X134634329Y-106957000D01*
X134613515Y-106995940D01*
X134547185Y-107214600D01*
X134524788Y-107442000D01*
X134547185Y-107669400D01*
X134613515Y-107888060D01*
X134721229Y-108089579D01*
X134866188Y-108266212D01*
X135042821Y-108411171D01*
X135244340Y-108518885D01*
X135463000Y-108585215D01*
X135633421Y-108602000D01*
X136197379Y-108602000D01*
X136367800Y-108585215D01*
X136586460Y-108518885D01*
X136787979Y-108411171D01*
X136964612Y-108266212D01*
X136996792Y-108227000D01*
X141871247Y-108227000D01*
X141909800Y-108230797D01*
X141948353Y-108227000D01*
X141948361Y-108227000D01*
X142063687Y-108215641D01*
X142211660Y-108170754D01*
X142348033Y-108097862D01*
X142467564Y-107999764D01*
X142492147Y-107969810D01*
X144647958Y-105814000D01*
X145069128Y-105814000D01*
X145069128Y-105829000D01*
X145081388Y-105953482D01*
X145117698Y-106073180D01*
X145176663Y-106183494D01*
X145256015Y-106280185D01*
X145352706Y-106359537D01*
X145463020Y-106418502D01*
X145559143Y-106447661D01*
X145392563Y-106614241D01*
X145235520Y-106849273D01*
X145127347Y-107110426D01*
X145072200Y-107387665D01*
X145072200Y-107670335D01*
X145127347Y-107947574D01*
X145235520Y-108208727D01*
X145392563Y-108443759D01*
X145592441Y-108643637D01*
X145827473Y-108800680D01*
X146088626Y-108908853D01*
X146365865Y-108964000D01*
X146648535Y-108964000D01*
X146925774Y-108908853D01*
X147186927Y-108800680D01*
X147421959Y-108643637D01*
X147621837Y-108443759D01*
X147778880Y-108208727D01*
X147887053Y-107947574D01*
X147942200Y-107670335D01*
X147942200Y-107574158D01*
X148109800Y-107741758D01*
X148109800Y-107809847D01*
X148106003Y-107848400D01*
X148109800Y-107886953D01*
X148109800Y-107886960D01*
X148121159Y-108002286D01*
X148166046Y-108150259D01*
X148238938Y-108286632D01*
X148337036Y-108406164D01*
X148366990Y-108430747D01*
X151107001Y-111170759D01*
X151107000Y-113860661D01*
X150977241Y-113947363D01*
X150777363Y-114147241D01*
X150620320Y-114382273D01*
X150512147Y-114643426D01*
X150457000Y-114920665D01*
X150457000Y-115203335D01*
X150512147Y-115480574D01*
X150620320Y-115741727D01*
X150777363Y-115976759D01*
X150977241Y-116176637D01*
X151212273Y-116333680D01*
X151473426Y-116441853D01*
X151750665Y-116497000D01*
X152033335Y-116497000D01*
X152310574Y-116441853D01*
X152571727Y-116333680D01*
X152806759Y-116176637D01*
X153006637Y-115976759D01*
X153163680Y-115741727D01*
X153271853Y-115480574D01*
X153327000Y-115203335D01*
X153327000Y-114920665D01*
X153271853Y-114643426D01*
X153163680Y-114382273D01*
X153006637Y-114147241D01*
X152806759Y-113947363D01*
X152677000Y-113860661D01*
X152677000Y-110884156D01*
X152680797Y-110845600D01*
X152677000Y-110807044D01*
X152677000Y-110807039D01*
X152671425Y-110750432D01*
X152665642Y-110691713D01*
X152620754Y-110543740D01*
X152579248Y-110466087D01*
X152547862Y-110407367D01*
X152449764Y-110287836D01*
X152419816Y-110263258D01*
X149679800Y-107523243D01*
X149679800Y-107455152D01*
X149683597Y-107416599D01*
X149679800Y-107378046D01*
X149679800Y-107378040D01*
X149668441Y-107262713D01*
X149664247Y-107248885D01*
X149634912Y-107152184D01*
X149623554Y-107114740D01*
X149550662Y-106978367D01*
X149452564Y-106858836D01*
X149422616Y-106834258D01*
X147945272Y-105356915D01*
X147945272Y-104356000D01*
X153120928Y-104356000D01*
X153120928Y-105956000D01*
X153133188Y-106080482D01*
X153169498Y-106200180D01*
X153228463Y-106310494D01*
X153307815Y-106407185D01*
X153404506Y-106486537D01*
X153514820Y-106545502D01*
X153610943Y-106574661D01*
X153444363Y-106741241D01*
X153287320Y-106976273D01*
X153179147Y-107237426D01*
X153124000Y-107514665D01*
X153124000Y-107797335D01*
X153179147Y-108074574D01*
X153287320Y-108335727D01*
X153444363Y-108570759D01*
X153644241Y-108770637D01*
X153879273Y-108927680D01*
X154140426Y-109035853D01*
X154417665Y-109091000D01*
X154700335Y-109091000D01*
X154977574Y-109035853D01*
X155238727Y-108927680D01*
X155473759Y-108770637D01*
X155673637Y-108570759D01*
X155830680Y-108335727D01*
X155938853Y-108074574D01*
X155994000Y-107797335D01*
X155994000Y-107514665D01*
X155938853Y-107237426D01*
X155830680Y-106976273D01*
X155673637Y-106741241D01*
X155507057Y-106574661D01*
X155603180Y-106545502D01*
X155713494Y-106486537D01*
X155810185Y-106407185D01*
X155889537Y-106310494D01*
X155948502Y-106200180D01*
X155984812Y-106080482D01*
X155997072Y-105956000D01*
X155997072Y-104356000D01*
X155984812Y-104231518D01*
X155948502Y-104111820D01*
X155889537Y-104001506D01*
X155810185Y-103904815D01*
X155713494Y-103825463D01*
X155603180Y-103766498D01*
X155483482Y-103730188D01*
X155359000Y-103717928D01*
X153759000Y-103717928D01*
X153634518Y-103730188D01*
X153514820Y-103766498D01*
X153404506Y-103825463D01*
X153307815Y-103904815D01*
X153228463Y-104001506D01*
X153169498Y-104111820D01*
X153133188Y-104231518D01*
X153120928Y-104356000D01*
X147945272Y-104356000D01*
X147945272Y-104229000D01*
X147933012Y-104104518D01*
X147896702Y-103984820D01*
X147837737Y-103874506D01*
X147758385Y-103777815D01*
X147661694Y-103698463D01*
X147551380Y-103639498D01*
X147431682Y-103603188D01*
X147307200Y-103590928D01*
X145707200Y-103590928D01*
X145582718Y-103603188D01*
X145463020Y-103639498D01*
X145352706Y-103698463D01*
X145256015Y-103777815D01*
X145176663Y-103874506D01*
X145117698Y-103984820D01*
X145081388Y-104104518D01*
X145069128Y-104229000D01*
X145069128Y-104244000D01*
X144361352Y-104244000D01*
X144322799Y-104240203D01*
X144284246Y-104244000D01*
X144284239Y-104244000D01*
X144183290Y-104253943D01*
X144168912Y-104255359D01*
X144134472Y-104265806D01*
X144020940Y-104300246D01*
X143884567Y-104373138D01*
X143824359Y-104422550D01*
X143794987Y-104446655D01*
X143794984Y-104446658D01*
X143765036Y-104471236D01*
X143740458Y-104501184D01*
X141584643Y-106657000D01*
X137196471Y-106657000D01*
X137217285Y-106618060D01*
X137283615Y-106399400D01*
X137306012Y-106172000D01*
X137283615Y-105944600D01*
X137220307Y-105735902D01*
X137254902Y-105671180D01*
X137291212Y-105551482D01*
X137303472Y-105427000D01*
X137303472Y-104377000D01*
X137291212Y-104252518D01*
X137254902Y-104132820D01*
X137195937Y-104022506D01*
X137116585Y-103925815D01*
X137019894Y-103846463D01*
X136909580Y-103787498D01*
X136789882Y-103751188D01*
X136665400Y-103738928D01*
X135165400Y-103738928D01*
X135040918Y-103751188D01*
X134921220Y-103787498D01*
X134810906Y-103846463D01*
X134714215Y-103925815D01*
X134634863Y-104022506D01*
X134575898Y-104132820D01*
X134539588Y-104252518D01*
X134527328Y-104377000D01*
X134527328Y-105387000D01*
X133490156Y-105387000D01*
X133451600Y-105383203D01*
X133413044Y-105387000D01*
X133413039Y-105387000D01*
X133372626Y-105390980D01*
X133297713Y-105398358D01*
X133149740Y-105443246D01*
X133013367Y-105516138D01*
X132893836Y-105614236D01*
X132869253Y-105644190D01*
X128071843Y-110441600D01*
X127934596Y-110441600D01*
X126399796Y-108906800D01*
X126443779Y-108906800D01*
X126614200Y-108890015D01*
X126832860Y-108823685D01*
X127034379Y-108715971D01*
X127211012Y-108571012D01*
X127355971Y-108394379D01*
X127463685Y-108192860D01*
X127530015Y-107974200D01*
X127552412Y-107746800D01*
X127530015Y-107519400D01*
X127463685Y-107300740D01*
X127362695Y-107111800D01*
X127463685Y-106922860D01*
X127530015Y-106704200D01*
X127552412Y-106476800D01*
X127530015Y-106249400D01*
X127466707Y-106040702D01*
X127501302Y-105975980D01*
X127537612Y-105856282D01*
X127549872Y-105731800D01*
X127549872Y-104681800D01*
X127537612Y-104557318D01*
X127501302Y-104437620D01*
X127442337Y-104327306D01*
X127362985Y-104230615D01*
X127266294Y-104151263D01*
X127155980Y-104092298D01*
X127036282Y-104055988D01*
X126911800Y-104043728D01*
X125411800Y-104043728D01*
X125287318Y-104055988D01*
X125167620Y-104092298D01*
X125057306Y-104151263D01*
X124960615Y-104230615D01*
X124881263Y-104327306D01*
X124822298Y-104437620D01*
X124785988Y-104557318D01*
X124773728Y-104681800D01*
X124773728Y-105731800D01*
X124785988Y-105856282D01*
X124822298Y-105975980D01*
X124856893Y-106040702D01*
X124793585Y-106249400D01*
X124771188Y-106476800D01*
X124781024Y-106576667D01*
X124559200Y-106354843D01*
X124559200Y-101645757D01*
X124708957Y-101496000D01*
X141820447Y-101496000D01*
X141859000Y-101499797D01*
X141897553Y-101496000D01*
X141897561Y-101496000D01*
X142012887Y-101484641D01*
X142160860Y-101439754D01*
X142297233Y-101366862D01*
X142416764Y-101268764D01*
X142441347Y-101238810D01*
X145485617Y-98194541D01*
X145515564Y-98169964D01*
X145547067Y-98131579D01*
X145568575Y-98105371D01*
X145613662Y-98050433D01*
X145686554Y-97914060D01*
X145687913Y-97909579D01*
X145731442Y-97766087D01*
X145739677Y-97682464D01*
X145742800Y-97650761D01*
X145742800Y-97650756D01*
X145743005Y-97648665D01*
X145758000Y-97648665D01*
X145758000Y-97931335D01*
X145813147Y-98208574D01*
X145921320Y-98469727D01*
X146078363Y-98704759D01*
X146278241Y-98904637D01*
X146513273Y-99061680D01*
X146774426Y-99169853D01*
X147051665Y-99225000D01*
X147334335Y-99225000D01*
X147611574Y-99169853D01*
X147872727Y-99061680D01*
X148107759Y-98904637D01*
X148307637Y-98704759D01*
X148464680Y-98469727D01*
X148572853Y-98208574D01*
X148628000Y-97931335D01*
X148628000Y-97648665D01*
X148572853Y-97371426D01*
X148464680Y-97110273D01*
X148307637Y-96875241D01*
X148107759Y-96675363D01*
X147872727Y-96518320D01*
X147611574Y-96410147D01*
X147334335Y-96355000D01*
X147051665Y-96355000D01*
X146774426Y-96410147D01*
X146513273Y-96518320D01*
X146278241Y-96675363D01*
X146078363Y-96875241D01*
X145921320Y-97110273D01*
X145813147Y-97371426D01*
X145758000Y-97648665D01*
X145743005Y-97648665D01*
X145746597Y-97612200D01*
X145742800Y-97573645D01*
X145742800Y-95778357D01*
X147533603Y-93987554D01*
X147686665Y-94018000D01*
X147969335Y-94018000D01*
X148246574Y-93962853D01*
X148507727Y-93854680D01*
X148742759Y-93697637D01*
X148942637Y-93497759D01*
X149099680Y-93262727D01*
X149207853Y-93001574D01*
X149263000Y-92724335D01*
X149263000Y-92441665D01*
X149207853Y-92164426D01*
X149099680Y-91903273D01*
X148942637Y-91668241D01*
X148742759Y-91468363D01*
X148507727Y-91311320D01*
X148246574Y-91203147D01*
X147969335Y-91148000D01*
X147686665Y-91148000D01*
X147409426Y-91203147D01*
X147148273Y-91311320D01*
X146913241Y-91468363D01*
X146713363Y-91668241D01*
X146556320Y-91903273D01*
X146448147Y-92164426D01*
X146393000Y-92441665D01*
X146393000Y-92724335D01*
X146423446Y-92877397D01*
X144429985Y-94870858D01*
X144400037Y-94895436D01*
X144375459Y-94925384D01*
X144375455Y-94925388D01*
X144342490Y-94965556D01*
X144301939Y-95014967D01*
X144262977Y-95087860D01*
X144229046Y-95151341D01*
X144184159Y-95299314D01*
X144169003Y-95453200D01*
X144172801Y-95491763D01*
X144172800Y-97287042D01*
X141533843Y-99926000D01*
X124422356Y-99926000D01*
X124383800Y-99922203D01*
X124345244Y-99926000D01*
X124345239Y-99926000D01*
X124304826Y-99929980D01*
X124229913Y-99937358D01*
X124081940Y-99982246D01*
X123945567Y-100055138D01*
X123826036Y-100153236D01*
X123801455Y-100183188D01*
X123792210Y-100192433D01*
X123792210Y-94604000D01*
X124318928Y-94604000D01*
X124318928Y-96404000D01*
X124331188Y-96528482D01*
X124367498Y-96648180D01*
X124426463Y-96758494D01*
X124505815Y-96855185D01*
X124602506Y-96934537D01*
X124712820Y-96993502D01*
X124832518Y-97029812D01*
X124957000Y-97042072D01*
X126757000Y-97042072D01*
X126881482Y-97029812D01*
X127001180Y-96993502D01*
X127111494Y-96934537D01*
X127208185Y-96855185D01*
X127287537Y-96758494D01*
X127346502Y-96648180D01*
X127349813Y-96637265D01*
X127396578Y-96684030D01*
X127512526Y-96568082D01*
X127596208Y-96822261D01*
X127868775Y-96953158D01*
X128161642Y-97028365D01*
X128463553Y-97044991D01*
X128762907Y-97002397D01*
X129048199Y-96902222D01*
X129197792Y-96822261D01*
X129281475Y-96568080D01*
X128397000Y-95683605D01*
X128382858Y-95697748D01*
X128203253Y-95518143D01*
X128217395Y-95504000D01*
X128576605Y-95504000D01*
X129461080Y-96388475D01*
X129715261Y-96304792D01*
X129846158Y-96032225D01*
X129921365Y-95739358D01*
X129937991Y-95437447D01*
X129895397Y-95138093D01*
X129795222Y-94852801D01*
X129715261Y-94703208D01*
X129461080Y-94619525D01*
X128576605Y-95504000D01*
X128217395Y-95504000D01*
X128203253Y-95489858D01*
X128382858Y-95310253D01*
X128397000Y-95324395D01*
X129281475Y-94439920D01*
X129197792Y-94185739D01*
X128925225Y-94054842D01*
X128632358Y-93979635D01*
X128330447Y-93963009D01*
X128031093Y-94005603D01*
X127745801Y-94105778D01*
X127596208Y-94185739D01*
X127512526Y-94439918D01*
X127396578Y-94323970D01*
X127349813Y-94370735D01*
X127346502Y-94359820D01*
X127287537Y-94249506D01*
X127208185Y-94152815D01*
X127111494Y-94073463D01*
X127001180Y-94014498D01*
X126881482Y-93978188D01*
X126757000Y-93965928D01*
X124957000Y-93965928D01*
X124832518Y-93978188D01*
X124712820Y-94014498D01*
X124602506Y-94073463D01*
X124505815Y-94152815D01*
X124426463Y-94249506D01*
X124367498Y-94359820D01*
X124331188Y-94479518D01*
X124318928Y-94604000D01*
X123792210Y-94604000D01*
X123792210Y-94383349D01*
X127637811Y-90537748D01*
X127667765Y-90513165D01*
X127765863Y-90393634D01*
X127838755Y-90257261D01*
X127851867Y-90214038D01*
X127868775Y-90222158D01*
X128161642Y-90297365D01*
X128463553Y-90313991D01*
X128762907Y-90271397D01*
X129048199Y-90171222D01*
X129197792Y-90091261D01*
X129281475Y-89837080D01*
X128397000Y-88952605D01*
X128382858Y-88966748D01*
X128203253Y-88787143D01*
X128217395Y-88773000D01*
X128576605Y-88773000D01*
X129461080Y-89657475D01*
X129715261Y-89573792D01*
X129846158Y-89301225D01*
X129921365Y-89008358D01*
X129937991Y-88706447D01*
X129895397Y-88407093D01*
X129795222Y-88121801D01*
X129715261Y-87972208D01*
X129461080Y-87888525D01*
X128576605Y-88773000D01*
X128217395Y-88773000D01*
X128203253Y-88758858D01*
X128382858Y-88579253D01*
X128397000Y-88593395D01*
X129281475Y-87708920D01*
X129197792Y-87454739D01*
X128925225Y-87323842D01*
X128632358Y-87248635D01*
X128330447Y-87232009D01*
X128031093Y-87274603D01*
X127853394Y-87336999D01*
X127838755Y-87288739D01*
X127765863Y-87152366D01*
X127667765Y-87032835D01*
X127637812Y-87008253D01*
X127621748Y-86992189D01*
X127597165Y-86962235D01*
X127477634Y-86864137D01*
X127341261Y-86791245D01*
X127193288Y-86746358D01*
X127077962Y-86734999D01*
X127077954Y-86734999D01*
X127039401Y-86731202D01*
X127000848Y-86734999D01*
X119071353Y-86734999D01*
X119032800Y-86731202D01*
X118994247Y-86734999D01*
X118994240Y-86734999D01*
X118893291Y-86744942D01*
X118878913Y-86746358D01*
X118855670Y-86753409D01*
X118730941Y-86791245D01*
X118594568Y-86864137D01*
X118567384Y-86886447D01*
X118504988Y-86937654D01*
X118504985Y-86937657D01*
X118475037Y-86962235D01*
X118450459Y-86992183D01*
X115737397Y-89705246D01*
X115584335Y-89674800D01*
X115301665Y-89674800D01*
X115024426Y-89729947D01*
X114763273Y-89838120D01*
X114528241Y-89995163D01*
X114328363Y-90195041D01*
X114171320Y-90430073D01*
X114063147Y-90691226D01*
X114008000Y-90968465D01*
X106190017Y-90968465D01*
X106207405Y-84482502D01*
X114629903Y-84482502D01*
X114701486Y-84726471D01*
X114956996Y-84847371D01*
X115231184Y-84916100D01*
X115513512Y-84930017D01*
X115793130Y-84888587D01*
X116059292Y-84793403D01*
X116184514Y-84726471D01*
X116256097Y-84482502D01*
X115443000Y-83669405D01*
X114629903Y-84482502D01*
X106207405Y-84482502D01*
X106209878Y-83560312D01*
X114002783Y-83560312D01*
X114044213Y-83839930D01*
X114139397Y-84106092D01*
X114206329Y-84231314D01*
X114450298Y-84302897D01*
X115263395Y-83489800D01*
X115622605Y-83489800D01*
X116435702Y-84302897D01*
X116679671Y-84231314D01*
X116800571Y-83975804D01*
X116869300Y-83701616D01*
X116883217Y-83419288D01*
X116841787Y-83139670D01*
X116746603Y-82873508D01*
X116679671Y-82748286D01*
X116435702Y-82676703D01*
X115622605Y-83489800D01*
X115263395Y-83489800D01*
X114450298Y-82676703D01*
X114206329Y-82748286D01*
X114085429Y-83003796D01*
X114016700Y-83277984D01*
X114002783Y-83560312D01*
X106209878Y-83560312D01*
X106212728Y-82497098D01*
X114629903Y-82497098D01*
X115443000Y-83310195D01*
X116256097Y-82497098D01*
X116184514Y-82253129D01*
X115929004Y-82132229D01*
X115654816Y-82063500D01*
X115372488Y-82049583D01*
X115092870Y-82091013D01*
X114826708Y-82186197D01*
X114701486Y-82253129D01*
X114629903Y-82497098D01*
X106212728Y-82497098D01*
X106216020Y-81269000D01*
X124318928Y-81269000D01*
X124318928Y-83069000D01*
X124331188Y-83193482D01*
X124367498Y-83313180D01*
X124426463Y-83423494D01*
X124505815Y-83520185D01*
X124602506Y-83599537D01*
X124712820Y-83658502D01*
X124832518Y-83694812D01*
X124957000Y-83707072D01*
X125072001Y-83707072D01*
X125072001Y-84772037D01*
X125068203Y-84810600D01*
X125083359Y-84964486D01*
X125128246Y-85112459D01*
X125142334Y-85138815D01*
X125201139Y-85248833D01*
X125226528Y-85279769D01*
X125274655Y-85338412D01*
X125274659Y-85338416D01*
X125299237Y-85368364D01*
X125329185Y-85392942D01*
X125833453Y-85897210D01*
X125858036Y-85927164D01*
X125977567Y-86025262D01*
X126085950Y-86083193D01*
X126113940Y-86098154D01*
X126261913Y-86143042D01*
X126336826Y-86150420D01*
X126377239Y-86154400D01*
X126377244Y-86154400D01*
X126415800Y-86158197D01*
X126454356Y-86154400D01*
X131602443Y-86154400D01*
X132692000Y-87243958D01*
X132692001Y-96303637D01*
X132688203Y-96342200D01*
X132703359Y-96496086D01*
X132748246Y-96644059D01*
X132766004Y-96677282D01*
X132821139Y-96780433D01*
X132849870Y-96815441D01*
X132894655Y-96870012D01*
X132894659Y-96870016D01*
X132919237Y-96899964D01*
X132949185Y-96924542D01*
X134342458Y-98317816D01*
X134367036Y-98347764D01*
X134396984Y-98372342D01*
X134396987Y-98372345D01*
X134411023Y-98383864D01*
X134486567Y-98445862D01*
X134622940Y-98518754D01*
X134729017Y-98550932D01*
X134770912Y-98563641D01*
X134785290Y-98565057D01*
X134886239Y-98575000D01*
X134886246Y-98575000D01*
X134924799Y-98578797D01*
X134963352Y-98575000D01*
X138371661Y-98575000D01*
X138458363Y-98704759D01*
X138658241Y-98904637D01*
X138893273Y-99061680D01*
X139154426Y-99169853D01*
X139431665Y-99225000D01*
X139714335Y-99225000D01*
X139991574Y-99169853D01*
X140252727Y-99061680D01*
X140487759Y-98904637D01*
X140687637Y-98704759D01*
X140844680Y-98469727D01*
X140952853Y-98208574D01*
X141008000Y-97931335D01*
X141008000Y-97648665D01*
X140952853Y-97371426D01*
X140844680Y-97110273D01*
X140687637Y-96875241D01*
X140487759Y-96675363D01*
X140252727Y-96518320D01*
X139991574Y-96410147D01*
X139714335Y-96355000D01*
X139431665Y-96355000D01*
X139154426Y-96410147D01*
X138893273Y-96518320D01*
X138658241Y-96675363D01*
X138458363Y-96875241D01*
X138371661Y-97005000D01*
X135249958Y-97005000D01*
X134262000Y-96017043D01*
X134262000Y-92441665D01*
X138773000Y-92441665D01*
X138773000Y-92724335D01*
X138828147Y-93001574D01*
X138936320Y-93262727D01*
X139093363Y-93497759D01*
X139293241Y-93697637D01*
X139528273Y-93854680D01*
X139789426Y-93962853D01*
X140066665Y-94018000D01*
X140349335Y-94018000D01*
X140626574Y-93962853D01*
X140887727Y-93854680D01*
X141122759Y-93697637D01*
X141322637Y-93497759D01*
X141479680Y-93262727D01*
X141587853Y-93001574D01*
X141643000Y-92724335D01*
X141643000Y-92441665D01*
X141587853Y-92164426D01*
X141479680Y-91903273D01*
X141322637Y-91668241D01*
X141122759Y-91468363D01*
X140887727Y-91311320D01*
X140626574Y-91203147D01*
X140349335Y-91148000D01*
X140066665Y-91148000D01*
X139789426Y-91203147D01*
X139528273Y-91311320D01*
X139293241Y-91468363D01*
X139093363Y-91668241D01*
X138936320Y-91903273D01*
X138828147Y-92164426D01*
X138773000Y-92441665D01*
X134262000Y-92441665D01*
X134262000Y-86957352D01*
X134265797Y-86918799D01*
X134262000Y-86880246D01*
X134262000Y-86880239D01*
X134250641Y-86764913D01*
X134247152Y-86753409D01*
X134231158Y-86700686D01*
X134205754Y-86616940D01*
X134132862Y-86480567D01*
X134034764Y-86361036D01*
X134004817Y-86336459D01*
X132509945Y-84841588D01*
X132485364Y-84811636D01*
X132365833Y-84713538D01*
X132229460Y-84640646D01*
X132081487Y-84595759D01*
X131966161Y-84584400D01*
X131966153Y-84584400D01*
X131927600Y-84580603D01*
X131889047Y-84584400D01*
X126740957Y-84584400D01*
X126642000Y-84485443D01*
X126642000Y-83707072D01*
X126757000Y-83707072D01*
X126881482Y-83694812D01*
X127001180Y-83658502D01*
X127111494Y-83599537D01*
X127208185Y-83520185D01*
X127287537Y-83423494D01*
X127346502Y-83313180D01*
X127349813Y-83302265D01*
X127396578Y-83349030D01*
X127512526Y-83233082D01*
X127596208Y-83487261D01*
X127868775Y-83618158D01*
X128161642Y-83693365D01*
X128463553Y-83709991D01*
X128762907Y-83667397D01*
X129048199Y-83567222D01*
X129197792Y-83487261D01*
X129281475Y-83233080D01*
X128397000Y-82348605D01*
X128382858Y-82362748D01*
X128203253Y-82183143D01*
X128217395Y-82169000D01*
X128576605Y-82169000D01*
X129461080Y-83053475D01*
X129715261Y-82969792D01*
X129846158Y-82697225D01*
X129921365Y-82404358D01*
X129937991Y-82102447D01*
X129895397Y-81803093D01*
X129795222Y-81517801D01*
X129715261Y-81368208D01*
X129461080Y-81284525D01*
X128576605Y-82169000D01*
X128217395Y-82169000D01*
X128203253Y-82154858D01*
X128382858Y-81975253D01*
X128397000Y-81989395D01*
X129281475Y-81104920D01*
X129197792Y-80850739D01*
X128925225Y-80719842D01*
X128632358Y-80644635D01*
X128330447Y-80628009D01*
X128031093Y-80670603D01*
X127745801Y-80770778D01*
X127596208Y-80850739D01*
X127512526Y-81104918D01*
X127396578Y-80988970D01*
X127349813Y-81035735D01*
X127346502Y-81024820D01*
X127287537Y-80914506D01*
X127208185Y-80817815D01*
X127111494Y-80738463D01*
X127001180Y-80679498D01*
X126881482Y-80643188D01*
X126757000Y-80630928D01*
X124957000Y-80630928D01*
X124832518Y-80643188D01*
X124712820Y-80679498D01*
X124602506Y-80738463D01*
X124505815Y-80817815D01*
X124426463Y-80914506D01*
X124367498Y-81024820D01*
X124331188Y-81144518D01*
X124318928Y-81269000D01*
X106216020Y-81269000D01*
X106222752Y-78758370D01*
X106272102Y-78589758D01*
X106286912Y-78551157D01*
X106363079Y-78378471D01*
X106446910Y-78211197D01*
X106538208Y-78049455D01*
X106636750Y-77893423D01*
X106668563Y-77848175D01*
X126721682Y-77654738D01*
X126724972Y-77657246D01*
X126780538Y-77684496D01*
X126835385Y-77713243D01*
X126844881Y-77716049D01*
X126853766Y-77720406D01*
X126913584Y-77736348D01*
X126972953Y-77753890D01*
X126982807Y-77754797D01*
X126992374Y-77757347D01*
X127054183Y-77761369D01*
X127115795Y-77767042D01*
X127125633Y-77766019D01*
X127135519Y-77766662D01*
X127196908Y-77758605D01*
X127258472Y-77752201D01*
X127267935Y-77749282D01*
X127277745Y-77747995D01*
X127336389Y-77728172D01*
X127395548Y-77709927D01*
X127404257Y-77705230D01*
X127413638Y-77702059D01*
X127467313Y-77671223D01*
X127512016Y-77647114D01*
X137929796Y-77546621D01*
X146556270Y-84250479D01*
G37*
X146556270Y-84250479D02*
X146577331Y-84263756D01*
X146600578Y-84272668D01*
X146633527Y-84277198D01*
X165685330Y-84378135D01*
X166013295Y-120883243D01*
X153240073Y-121354869D01*
X153222461Y-121336927D01*
X153168161Y-121291474D01*
X153113938Y-121245861D01*
X153113154Y-121245429D01*
X153112465Y-121244852D01*
X153050292Y-121210768D01*
X152988321Y-121176598D01*
X152987467Y-121176326D01*
X152986679Y-121175894D01*
X152918979Y-121154506D01*
X152851643Y-121133054D01*
X152850755Y-121132953D01*
X152849896Y-121132682D01*
X152779373Y-121124856D01*
X152709110Y-121116886D01*
X152707425Y-121116872D01*
X152707324Y-121116861D01*
X152707213Y-121116870D01*
X152698848Y-121116802D01*
X152636016Y-121116724D01*
X152806759Y-121002637D01*
X153006637Y-120802759D01*
X153163680Y-120567727D01*
X153271853Y-120306574D01*
X153327000Y-120029335D01*
X153327000Y-119746665D01*
X153271853Y-119469426D01*
X153163680Y-119208273D01*
X153006637Y-118973241D01*
X152806759Y-118773363D01*
X152571727Y-118616320D01*
X152310574Y-118508147D01*
X152033335Y-118453000D01*
X151750665Y-118453000D01*
X151473426Y-118508147D01*
X151212273Y-118616320D01*
X150977241Y-118773363D01*
X150777363Y-118973241D01*
X150620320Y-119208273D01*
X150512147Y-119469426D01*
X150457000Y-119746665D01*
X150457000Y-120029335D01*
X150512147Y-120306574D01*
X150620320Y-120567727D01*
X150777363Y-120802759D01*
X150977241Y-121002637D01*
X151145205Y-121114867D01*
X145018630Y-121107236D01*
X145085097Y-120880702D01*
X144272000Y-120067605D01*
X143458903Y-120880702D01*
X143524824Y-121105375D01*
X141634924Y-121103021D01*
X141596267Y-121106763D01*
X141557407Y-121107022D01*
X141525028Y-121113658D01*
X141492144Y-121116841D01*
X141454944Y-121128022D01*
X141416881Y-121135823D01*
X141386410Y-121148621D01*
X141354768Y-121158131D01*
X141320451Y-121176323D01*
X141284626Y-121191369D01*
X141257221Y-121209841D01*
X141228028Y-121225317D01*
X141197892Y-121249833D01*
X141165678Y-121271547D01*
X141142386Y-121294987D01*
X141116752Y-121315841D01*
X141099482Y-121336664D01*
X108231764Y-120752975D01*
X106563334Y-117475000D01*
X113136000Y-117475000D01*
X113136000Y-118465000D01*
X113192000Y-118779582D01*
X113308296Y-119077194D01*
X113480419Y-119346399D01*
X113701754Y-119576852D01*
X113963795Y-119759696D01*
X114256472Y-119887905D01*
X114382135Y-119918218D01*
X114634000Y-119798740D01*
X114634000Y-117475000D01*
X114888000Y-117475000D01*
X114888000Y-119798740D01*
X115139865Y-119918218D01*
X115265528Y-119887905D01*
X115558205Y-119759696D01*
X115820246Y-119576852D01*
X116041581Y-119346399D01*
X116213704Y-119077194D01*
X116330000Y-118779582D01*
X116386000Y-118465000D01*
X116386000Y-117475000D01*
X114888000Y-117475000D01*
X114634000Y-117475000D01*
X113136000Y-117475000D01*
X106563334Y-117475000D01*
X106121282Y-116606500D01*
X106122288Y-116231000D01*
X113136000Y-116231000D01*
X113136000Y-117221000D01*
X114634000Y-117221000D01*
X114634000Y-114897260D01*
X114888000Y-114897260D01*
X114888000Y-117221000D01*
X116386000Y-117221000D01*
X116386000Y-116231000D01*
X116330000Y-115916418D01*
X116213704Y-115618806D01*
X116053345Y-115368000D01*
X118132928Y-115368000D01*
X118132928Y-119328000D01*
X118145188Y-119452482D01*
X118181498Y-119572180D01*
X118240463Y-119682494D01*
X118319815Y-119779185D01*
X118416506Y-119858537D01*
X118526820Y-119917502D01*
X118646518Y-119953812D01*
X118771000Y-119966072D01*
X120751000Y-119966072D01*
X120827760Y-119958512D01*
X142831783Y-119958512D01*
X142873213Y-120238130D01*
X142968397Y-120504292D01*
X143035329Y-120629514D01*
X143279298Y-120701097D01*
X144092395Y-119888000D01*
X144451605Y-119888000D01*
X145264702Y-120701097D01*
X145508671Y-120629514D01*
X145629571Y-120374004D01*
X145698300Y-120099816D01*
X145712217Y-119817488D01*
X145670787Y-119537870D01*
X145575603Y-119271708D01*
X145508671Y-119146486D01*
X145264702Y-119074903D01*
X144451605Y-119888000D01*
X144092395Y-119888000D01*
X143279298Y-119074903D01*
X143035329Y-119146486D01*
X142914429Y-119401996D01*
X142845700Y-119676184D01*
X142831783Y-119958512D01*
X120827760Y-119958512D01*
X120875482Y-119953812D01*
X120995180Y-119917502D01*
X121105494Y-119858537D01*
X121202185Y-119779185D01*
X121281537Y-119682494D01*
X121340502Y-119572180D01*
X121376812Y-119452482D01*
X121389072Y-119328000D01*
X121389072Y-118895298D01*
X143458903Y-118895298D01*
X144272000Y-119708395D01*
X145085097Y-118895298D01*
X145013514Y-118651329D01*
X144758004Y-118530429D01*
X144483816Y-118461700D01*
X144201488Y-118447783D01*
X143921870Y-118489213D01*
X143655708Y-118584397D01*
X143530486Y-118651329D01*
X143458903Y-118895298D01*
X121389072Y-118895298D01*
X121389072Y-115368000D01*
X121376812Y-115243518D01*
X121340502Y-115123820D01*
X121281537Y-115013506D01*
X121202185Y-114916815D01*
X121105494Y-114837463D01*
X120995180Y-114778498D01*
X120875482Y-114742188D01*
X120751000Y-114729928D01*
X118771000Y-114729928D01*
X118646518Y-114742188D01*
X118526820Y-114778498D01*
X118416506Y-114837463D01*
X118319815Y-114916815D01*
X118240463Y-115013506D01*
X118181498Y-115123820D01*
X118145188Y-115243518D01*
X118132928Y-115368000D01*
X116053345Y-115368000D01*
X116041581Y-115349601D01*
X115820246Y-115119148D01*
X115558205Y-114936304D01*
X115265528Y-114808095D01*
X115139865Y-114777782D01*
X114888000Y-114897260D01*
X114634000Y-114897260D01*
X114382135Y-114777782D01*
X114256472Y-114808095D01*
X113963795Y-114936304D01*
X113701754Y-115119148D01*
X113480419Y-115349601D01*
X113308296Y-115618806D01*
X113192000Y-115916418D01*
X113136000Y-116231000D01*
X106122288Y-116231000D01*
X106127261Y-114376502D01*
X106142775Y-114344181D01*
X106143801Y-114340198D01*
X106145537Y-114336475D01*
X106161674Y-114270788D01*
X106178547Y-114205265D01*
X106178779Y-114201162D01*
X106179760Y-114197170D01*
X106182831Y-114129614D01*
X106186657Y-114062048D01*
X106186087Y-114057975D01*
X106186274Y-114053871D01*
X106176167Y-113987024D01*
X106166794Y-113919983D01*
X106165444Y-113916098D01*
X106164830Y-113912036D01*
X106162244Y-113902105D01*
X106144019Y-113834076D01*
X106128886Y-113770390D01*
X106190017Y-90968465D01*
X114008000Y-90968465D01*
X114008000Y-91251135D01*
X114063147Y-91528374D01*
X114171320Y-91789527D01*
X114328363Y-92024559D01*
X114528241Y-92224437D01*
X114763273Y-92381480D01*
X115024426Y-92489653D01*
X115301665Y-92544800D01*
X115584335Y-92544800D01*
X115861574Y-92489653D01*
X116122727Y-92381480D01*
X116357759Y-92224437D01*
X116557637Y-92024559D01*
X116714680Y-91789527D01*
X116822853Y-91528374D01*
X116878000Y-91251135D01*
X116878000Y-90968465D01*
X116847554Y-90815403D01*
X119357959Y-88304999D01*
X124318928Y-88304999D01*
X124318928Y-89200914D01*
X121976385Y-91543458D01*
X121946437Y-91568036D01*
X121921859Y-91597984D01*
X121921855Y-91597988D01*
X121888890Y-91638156D01*
X121848339Y-91687567D01*
X121809377Y-91760460D01*
X121775446Y-91823941D01*
X121730559Y-91971914D01*
X121715403Y-92125800D01*
X121719201Y-92164363D01*
X121719200Y-110273647D01*
X121715403Y-110312200D01*
X121719200Y-110350753D01*
X121719200Y-110350760D01*
X121730559Y-110466086D01*
X121775446Y-110614059D01*
X121848338Y-110750432D01*
X121946436Y-110869964D01*
X121976390Y-110894547D01*
X126671653Y-115589810D01*
X126696236Y-115619764D01*
X126815767Y-115717862D01*
X126932958Y-115780501D01*
X126952140Y-115790754D01*
X127100113Y-115835642D01*
X127175026Y-115843020D01*
X127215439Y-115847000D01*
X127215444Y-115847000D01*
X127254000Y-115850797D01*
X127292556Y-115847000D01*
X143070661Y-115847000D01*
X143157363Y-115976759D01*
X143357241Y-116176637D01*
X143592273Y-116333680D01*
X143853426Y-116441853D01*
X144130665Y-116497000D01*
X144413335Y-116497000D01*
X144690574Y-116441853D01*
X144951727Y-116333680D01*
X145186759Y-116176637D01*
X145386637Y-115976759D01*
X145543680Y-115741727D01*
X145651853Y-115480574D01*
X145707000Y-115203335D01*
X145707000Y-114920665D01*
X145651853Y-114643426D01*
X145543680Y-114382273D01*
X145386637Y-114147241D01*
X145186759Y-113947363D01*
X144951727Y-113790320D01*
X144690574Y-113682147D01*
X144413335Y-113627000D01*
X144130665Y-113627000D01*
X143853426Y-113682147D01*
X143592273Y-113790320D01*
X143357241Y-113947363D01*
X143157363Y-114147241D01*
X143070661Y-114277000D01*
X127579157Y-114277000D01*
X123289200Y-109987043D01*
X123289200Y-108016519D01*
X127027096Y-111754416D01*
X127051674Y-111784364D01*
X127081622Y-111808942D01*
X127081625Y-111808945D01*
X127110997Y-111833050D01*
X127171205Y-111882462D01*
X127307578Y-111955354D01*
X127421110Y-111989794D01*
X127455550Y-112000241D01*
X127469928Y-112001657D01*
X127570877Y-112011600D01*
X127570884Y-112011600D01*
X127609437Y-112015397D01*
X127647990Y-112011600D01*
X128358447Y-112011600D01*
X128397000Y-112015397D01*
X128435553Y-112011600D01*
X128435561Y-112011600D01*
X128550887Y-112000241D01*
X128698860Y-111955354D01*
X128835233Y-111882462D01*
X128954764Y-111784364D01*
X128979347Y-111754410D01*
X133776757Y-106957000D01*
X134634329Y-106957000D01*
X134613515Y-106995940D01*
X134547185Y-107214600D01*
X134524788Y-107442000D01*
X134547185Y-107669400D01*
X134613515Y-107888060D01*
X134721229Y-108089579D01*
X134866188Y-108266212D01*
X135042821Y-108411171D01*
X135244340Y-108518885D01*
X135463000Y-108585215D01*
X135633421Y-108602000D01*
X136197379Y-108602000D01*
X136367800Y-108585215D01*
X136586460Y-108518885D01*
X136787979Y-108411171D01*
X136964612Y-108266212D01*
X136996792Y-108227000D01*
X141871247Y-108227000D01*
X141909800Y-108230797D01*
X141948353Y-108227000D01*
X141948361Y-108227000D01*
X142063687Y-108215641D01*
X142211660Y-108170754D01*
X142348033Y-108097862D01*
X142467564Y-107999764D01*
X142492147Y-107969810D01*
X144647958Y-105814000D01*
X145069128Y-105814000D01*
X145069128Y-105829000D01*
X145081388Y-105953482D01*
X145117698Y-106073180D01*
X145176663Y-106183494D01*
X145256015Y-106280185D01*
X145352706Y-106359537D01*
X145463020Y-106418502D01*
X145559143Y-106447661D01*
X145392563Y-106614241D01*
X145235520Y-106849273D01*
X145127347Y-107110426D01*
X145072200Y-107387665D01*
X145072200Y-107670335D01*
X145127347Y-107947574D01*
X145235520Y-108208727D01*
X145392563Y-108443759D01*
X145592441Y-108643637D01*
X145827473Y-108800680D01*
X146088626Y-108908853D01*
X146365865Y-108964000D01*
X146648535Y-108964000D01*
X146925774Y-108908853D01*
X147186927Y-108800680D01*
X147421959Y-108643637D01*
X147621837Y-108443759D01*
X147778880Y-108208727D01*
X147887053Y-107947574D01*
X147942200Y-107670335D01*
X147942200Y-107574158D01*
X148109800Y-107741758D01*
X148109800Y-107809847D01*
X148106003Y-107848400D01*
X148109800Y-107886953D01*
X148109800Y-107886960D01*
X148121159Y-108002286D01*
X148166046Y-108150259D01*
X148238938Y-108286632D01*
X148337036Y-108406164D01*
X148366990Y-108430747D01*
X151107001Y-111170759D01*
X151107000Y-113860661D01*
X150977241Y-113947363D01*
X150777363Y-114147241D01*
X150620320Y-114382273D01*
X150512147Y-114643426D01*
X150457000Y-114920665D01*
X150457000Y-115203335D01*
X150512147Y-115480574D01*
X150620320Y-115741727D01*
X150777363Y-115976759D01*
X150977241Y-116176637D01*
X151212273Y-116333680D01*
X151473426Y-116441853D01*
X151750665Y-116497000D01*
X152033335Y-116497000D01*
X152310574Y-116441853D01*
X152571727Y-116333680D01*
X152806759Y-116176637D01*
X153006637Y-115976759D01*
X153163680Y-115741727D01*
X153271853Y-115480574D01*
X153327000Y-115203335D01*
X153327000Y-114920665D01*
X153271853Y-114643426D01*
X153163680Y-114382273D01*
X153006637Y-114147241D01*
X152806759Y-113947363D01*
X152677000Y-113860661D01*
X152677000Y-110884156D01*
X152680797Y-110845600D01*
X152677000Y-110807044D01*
X152677000Y-110807039D01*
X152671425Y-110750432D01*
X152665642Y-110691713D01*
X152620754Y-110543740D01*
X152579248Y-110466087D01*
X152547862Y-110407367D01*
X152449764Y-110287836D01*
X152419816Y-110263258D01*
X149679800Y-107523243D01*
X149679800Y-107455152D01*
X149683597Y-107416599D01*
X149679800Y-107378046D01*
X149679800Y-107378040D01*
X149668441Y-107262713D01*
X149664247Y-107248885D01*
X149634912Y-107152184D01*
X149623554Y-107114740D01*
X149550662Y-106978367D01*
X149452564Y-106858836D01*
X149422616Y-106834258D01*
X147945272Y-105356915D01*
X147945272Y-104356000D01*
X153120928Y-104356000D01*
X153120928Y-105956000D01*
X153133188Y-106080482D01*
X153169498Y-106200180D01*
X153228463Y-106310494D01*
X153307815Y-106407185D01*
X153404506Y-106486537D01*
X153514820Y-106545502D01*
X153610943Y-106574661D01*
X153444363Y-106741241D01*
X153287320Y-106976273D01*
X153179147Y-107237426D01*
X153124000Y-107514665D01*
X153124000Y-107797335D01*
X153179147Y-108074574D01*
X153287320Y-108335727D01*
X153444363Y-108570759D01*
X153644241Y-108770637D01*
X153879273Y-108927680D01*
X154140426Y-109035853D01*
X154417665Y-109091000D01*
X154700335Y-109091000D01*
X154977574Y-109035853D01*
X155238727Y-108927680D01*
X155473759Y-108770637D01*
X155673637Y-108570759D01*
X155830680Y-108335727D01*
X155938853Y-108074574D01*
X155994000Y-107797335D01*
X155994000Y-107514665D01*
X155938853Y-107237426D01*
X155830680Y-106976273D01*
X155673637Y-106741241D01*
X155507057Y-106574661D01*
X155603180Y-106545502D01*
X155713494Y-106486537D01*
X155810185Y-106407185D01*
X155889537Y-106310494D01*
X155948502Y-106200180D01*
X155984812Y-106080482D01*
X155997072Y-105956000D01*
X155997072Y-104356000D01*
X155984812Y-104231518D01*
X155948502Y-104111820D01*
X155889537Y-104001506D01*
X155810185Y-103904815D01*
X155713494Y-103825463D01*
X155603180Y-103766498D01*
X155483482Y-103730188D01*
X155359000Y-103717928D01*
X153759000Y-103717928D01*
X153634518Y-103730188D01*
X153514820Y-103766498D01*
X153404506Y-103825463D01*
X153307815Y-103904815D01*
X153228463Y-104001506D01*
X153169498Y-104111820D01*
X153133188Y-104231518D01*
X153120928Y-104356000D01*
X147945272Y-104356000D01*
X147945272Y-104229000D01*
X147933012Y-104104518D01*
X147896702Y-103984820D01*
X147837737Y-103874506D01*
X147758385Y-103777815D01*
X147661694Y-103698463D01*
X147551380Y-103639498D01*
X147431682Y-103603188D01*
X147307200Y-103590928D01*
X145707200Y-103590928D01*
X145582718Y-103603188D01*
X145463020Y-103639498D01*
X145352706Y-103698463D01*
X145256015Y-103777815D01*
X145176663Y-103874506D01*
X145117698Y-103984820D01*
X145081388Y-104104518D01*
X145069128Y-104229000D01*
X145069128Y-104244000D01*
X144361352Y-104244000D01*
X144322799Y-104240203D01*
X144284246Y-104244000D01*
X144284239Y-104244000D01*
X144183290Y-104253943D01*
X144168912Y-104255359D01*
X144134472Y-104265806D01*
X144020940Y-104300246D01*
X143884567Y-104373138D01*
X143824359Y-104422550D01*
X143794987Y-104446655D01*
X143794984Y-104446658D01*
X143765036Y-104471236D01*
X143740458Y-104501184D01*
X141584643Y-106657000D01*
X137196471Y-106657000D01*
X137217285Y-106618060D01*
X137283615Y-106399400D01*
X137306012Y-106172000D01*
X137283615Y-105944600D01*
X137220307Y-105735902D01*
X137254902Y-105671180D01*
X137291212Y-105551482D01*
X137303472Y-105427000D01*
X137303472Y-104377000D01*
X137291212Y-104252518D01*
X137254902Y-104132820D01*
X137195937Y-104022506D01*
X137116585Y-103925815D01*
X137019894Y-103846463D01*
X136909580Y-103787498D01*
X136789882Y-103751188D01*
X136665400Y-103738928D01*
X135165400Y-103738928D01*
X135040918Y-103751188D01*
X134921220Y-103787498D01*
X134810906Y-103846463D01*
X134714215Y-103925815D01*
X134634863Y-104022506D01*
X134575898Y-104132820D01*
X134539588Y-104252518D01*
X134527328Y-104377000D01*
X134527328Y-105387000D01*
X133490156Y-105387000D01*
X133451600Y-105383203D01*
X133413044Y-105387000D01*
X133413039Y-105387000D01*
X133372626Y-105390980D01*
X133297713Y-105398358D01*
X133149740Y-105443246D01*
X133013367Y-105516138D01*
X132893836Y-105614236D01*
X132869253Y-105644190D01*
X128071843Y-110441600D01*
X127934596Y-110441600D01*
X126399796Y-108906800D01*
X126443779Y-108906800D01*
X126614200Y-108890015D01*
X126832860Y-108823685D01*
X127034379Y-108715971D01*
X127211012Y-108571012D01*
X127355971Y-108394379D01*
X127463685Y-108192860D01*
X127530015Y-107974200D01*
X127552412Y-107746800D01*
X127530015Y-107519400D01*
X127463685Y-107300740D01*
X127362695Y-107111800D01*
X127463685Y-106922860D01*
X127530015Y-106704200D01*
X127552412Y-106476800D01*
X127530015Y-106249400D01*
X127466707Y-106040702D01*
X127501302Y-105975980D01*
X127537612Y-105856282D01*
X127549872Y-105731800D01*
X127549872Y-104681800D01*
X127537612Y-104557318D01*
X127501302Y-104437620D01*
X127442337Y-104327306D01*
X127362985Y-104230615D01*
X127266294Y-104151263D01*
X127155980Y-104092298D01*
X127036282Y-104055988D01*
X126911800Y-104043728D01*
X125411800Y-104043728D01*
X125287318Y-104055988D01*
X125167620Y-104092298D01*
X125057306Y-104151263D01*
X124960615Y-104230615D01*
X124881263Y-104327306D01*
X124822298Y-104437620D01*
X124785988Y-104557318D01*
X124773728Y-104681800D01*
X124773728Y-105731800D01*
X124785988Y-105856282D01*
X124822298Y-105975980D01*
X124856893Y-106040702D01*
X124793585Y-106249400D01*
X124771188Y-106476800D01*
X124781024Y-106576667D01*
X124559200Y-106354843D01*
X124559200Y-101645757D01*
X124708957Y-101496000D01*
X141820447Y-101496000D01*
X141859000Y-101499797D01*
X141897553Y-101496000D01*
X141897561Y-101496000D01*
X142012887Y-101484641D01*
X142160860Y-101439754D01*
X142297233Y-101366862D01*
X142416764Y-101268764D01*
X142441347Y-101238810D01*
X145485617Y-98194541D01*
X145515564Y-98169964D01*
X145547067Y-98131579D01*
X145568575Y-98105371D01*
X145613662Y-98050433D01*
X145686554Y-97914060D01*
X145687913Y-97909579D01*
X145731442Y-97766087D01*
X145739677Y-97682464D01*
X145742800Y-97650761D01*
X145742800Y-97650756D01*
X145743005Y-97648665D01*
X145758000Y-97648665D01*
X145758000Y-97931335D01*
X145813147Y-98208574D01*
X145921320Y-98469727D01*
X146078363Y-98704759D01*
X146278241Y-98904637D01*
X146513273Y-99061680D01*
X146774426Y-99169853D01*
X147051665Y-99225000D01*
X147334335Y-99225000D01*
X147611574Y-99169853D01*
X147872727Y-99061680D01*
X148107759Y-98904637D01*
X148307637Y-98704759D01*
X148464680Y-98469727D01*
X148572853Y-98208574D01*
X148628000Y-97931335D01*
X148628000Y-97648665D01*
X148572853Y-97371426D01*
X148464680Y-97110273D01*
X148307637Y-96875241D01*
X148107759Y-96675363D01*
X147872727Y-96518320D01*
X147611574Y-96410147D01*
X147334335Y-96355000D01*
X147051665Y-96355000D01*
X146774426Y-96410147D01*
X146513273Y-96518320D01*
X146278241Y-96675363D01*
X146078363Y-96875241D01*
X145921320Y-97110273D01*
X145813147Y-97371426D01*
X145758000Y-97648665D01*
X145743005Y-97648665D01*
X145746597Y-97612200D01*
X145742800Y-97573645D01*
X145742800Y-95778357D01*
X147533603Y-93987554D01*
X147686665Y-94018000D01*
X147969335Y-94018000D01*
X148246574Y-93962853D01*
X148507727Y-93854680D01*
X148742759Y-93697637D01*
X148942637Y-93497759D01*
X149099680Y-93262727D01*
X149207853Y-93001574D01*
X149263000Y-92724335D01*
X149263000Y-92441665D01*
X149207853Y-92164426D01*
X149099680Y-91903273D01*
X148942637Y-91668241D01*
X148742759Y-91468363D01*
X148507727Y-91311320D01*
X148246574Y-91203147D01*
X147969335Y-91148000D01*
X147686665Y-91148000D01*
X147409426Y-91203147D01*
X147148273Y-91311320D01*
X146913241Y-91468363D01*
X146713363Y-91668241D01*
X146556320Y-91903273D01*
X146448147Y-92164426D01*
X146393000Y-92441665D01*
X146393000Y-92724335D01*
X146423446Y-92877397D01*
X144429985Y-94870858D01*
X144400037Y-94895436D01*
X144375459Y-94925384D01*
X144375455Y-94925388D01*
X144342490Y-94965556D01*
X144301939Y-95014967D01*
X144262977Y-95087860D01*
X144229046Y-95151341D01*
X144184159Y-95299314D01*
X144169003Y-95453200D01*
X144172801Y-95491763D01*
X144172800Y-97287042D01*
X141533843Y-99926000D01*
X124422356Y-99926000D01*
X124383800Y-99922203D01*
X124345244Y-99926000D01*
X124345239Y-99926000D01*
X124304826Y-99929980D01*
X124229913Y-99937358D01*
X124081940Y-99982246D01*
X123945567Y-100055138D01*
X123826036Y-100153236D01*
X123801455Y-100183188D01*
X123792210Y-100192433D01*
X123792210Y-94604000D01*
X124318928Y-94604000D01*
X124318928Y-96404000D01*
X124331188Y-96528482D01*
X124367498Y-96648180D01*
X124426463Y-96758494D01*
X124505815Y-96855185D01*
X124602506Y-96934537D01*
X124712820Y-96993502D01*
X124832518Y-97029812D01*
X124957000Y-97042072D01*
X126757000Y-97042072D01*
X126881482Y-97029812D01*
X127001180Y-96993502D01*
X127111494Y-96934537D01*
X127208185Y-96855185D01*
X127287537Y-96758494D01*
X127346502Y-96648180D01*
X127349813Y-96637265D01*
X127396578Y-96684030D01*
X127512526Y-96568082D01*
X127596208Y-96822261D01*
X127868775Y-96953158D01*
X128161642Y-97028365D01*
X128463553Y-97044991D01*
X128762907Y-97002397D01*
X129048199Y-96902222D01*
X129197792Y-96822261D01*
X129281475Y-96568080D01*
X128397000Y-95683605D01*
X128382858Y-95697748D01*
X128203253Y-95518143D01*
X128217395Y-95504000D01*
X128576605Y-95504000D01*
X129461080Y-96388475D01*
X129715261Y-96304792D01*
X129846158Y-96032225D01*
X129921365Y-95739358D01*
X129937991Y-95437447D01*
X129895397Y-95138093D01*
X129795222Y-94852801D01*
X129715261Y-94703208D01*
X129461080Y-94619525D01*
X128576605Y-95504000D01*
X128217395Y-95504000D01*
X128203253Y-95489858D01*
X128382858Y-95310253D01*
X128397000Y-95324395D01*
X129281475Y-94439920D01*
X129197792Y-94185739D01*
X128925225Y-94054842D01*
X128632358Y-93979635D01*
X128330447Y-93963009D01*
X128031093Y-94005603D01*
X127745801Y-94105778D01*
X127596208Y-94185739D01*
X127512526Y-94439918D01*
X127396578Y-94323970D01*
X127349813Y-94370735D01*
X127346502Y-94359820D01*
X127287537Y-94249506D01*
X127208185Y-94152815D01*
X127111494Y-94073463D01*
X127001180Y-94014498D01*
X126881482Y-93978188D01*
X126757000Y-93965928D01*
X124957000Y-93965928D01*
X124832518Y-93978188D01*
X124712820Y-94014498D01*
X124602506Y-94073463D01*
X124505815Y-94152815D01*
X124426463Y-94249506D01*
X124367498Y-94359820D01*
X124331188Y-94479518D01*
X124318928Y-94604000D01*
X123792210Y-94604000D01*
X123792210Y-94383349D01*
X127637811Y-90537748D01*
X127667765Y-90513165D01*
X127765863Y-90393634D01*
X127838755Y-90257261D01*
X127851867Y-90214038D01*
X127868775Y-90222158D01*
X128161642Y-90297365D01*
X128463553Y-90313991D01*
X128762907Y-90271397D01*
X129048199Y-90171222D01*
X129197792Y-90091261D01*
X129281475Y-89837080D01*
X128397000Y-88952605D01*
X128382858Y-88966748D01*
X128203253Y-88787143D01*
X128217395Y-88773000D01*
X128576605Y-88773000D01*
X129461080Y-89657475D01*
X129715261Y-89573792D01*
X129846158Y-89301225D01*
X129921365Y-89008358D01*
X129937991Y-88706447D01*
X129895397Y-88407093D01*
X129795222Y-88121801D01*
X129715261Y-87972208D01*
X129461080Y-87888525D01*
X128576605Y-88773000D01*
X128217395Y-88773000D01*
X128203253Y-88758858D01*
X128382858Y-88579253D01*
X128397000Y-88593395D01*
X129281475Y-87708920D01*
X129197792Y-87454739D01*
X128925225Y-87323842D01*
X128632358Y-87248635D01*
X128330447Y-87232009D01*
X128031093Y-87274603D01*
X127853394Y-87336999D01*
X127838755Y-87288739D01*
X127765863Y-87152366D01*
X127667765Y-87032835D01*
X127637812Y-87008253D01*
X127621748Y-86992189D01*
X127597165Y-86962235D01*
X127477634Y-86864137D01*
X127341261Y-86791245D01*
X127193288Y-86746358D01*
X127077962Y-86734999D01*
X127077954Y-86734999D01*
X127039401Y-86731202D01*
X127000848Y-86734999D01*
X119071353Y-86734999D01*
X119032800Y-86731202D01*
X118994247Y-86734999D01*
X118994240Y-86734999D01*
X118893291Y-86744942D01*
X118878913Y-86746358D01*
X118855670Y-86753409D01*
X118730941Y-86791245D01*
X118594568Y-86864137D01*
X118567384Y-86886447D01*
X118504988Y-86937654D01*
X118504985Y-86937657D01*
X118475037Y-86962235D01*
X118450459Y-86992183D01*
X115737397Y-89705246D01*
X115584335Y-89674800D01*
X115301665Y-89674800D01*
X115024426Y-89729947D01*
X114763273Y-89838120D01*
X114528241Y-89995163D01*
X114328363Y-90195041D01*
X114171320Y-90430073D01*
X114063147Y-90691226D01*
X114008000Y-90968465D01*
X106190017Y-90968465D01*
X106207405Y-84482502D01*
X114629903Y-84482502D01*
X114701486Y-84726471D01*
X114956996Y-84847371D01*
X115231184Y-84916100D01*
X115513512Y-84930017D01*
X115793130Y-84888587D01*
X116059292Y-84793403D01*
X116184514Y-84726471D01*
X116256097Y-84482502D01*
X115443000Y-83669405D01*
X114629903Y-84482502D01*
X106207405Y-84482502D01*
X106209878Y-83560312D01*
X114002783Y-83560312D01*
X114044213Y-83839930D01*
X114139397Y-84106092D01*
X114206329Y-84231314D01*
X114450298Y-84302897D01*
X115263395Y-83489800D01*
X115622605Y-83489800D01*
X116435702Y-84302897D01*
X116679671Y-84231314D01*
X116800571Y-83975804D01*
X116869300Y-83701616D01*
X116883217Y-83419288D01*
X116841787Y-83139670D01*
X116746603Y-82873508D01*
X116679671Y-82748286D01*
X116435702Y-82676703D01*
X115622605Y-83489800D01*
X115263395Y-83489800D01*
X114450298Y-82676703D01*
X114206329Y-82748286D01*
X114085429Y-83003796D01*
X114016700Y-83277984D01*
X114002783Y-83560312D01*
X106209878Y-83560312D01*
X106212728Y-82497098D01*
X114629903Y-82497098D01*
X115443000Y-83310195D01*
X116256097Y-82497098D01*
X116184514Y-82253129D01*
X115929004Y-82132229D01*
X115654816Y-82063500D01*
X115372488Y-82049583D01*
X115092870Y-82091013D01*
X114826708Y-82186197D01*
X114701486Y-82253129D01*
X114629903Y-82497098D01*
X106212728Y-82497098D01*
X106216020Y-81269000D01*
X124318928Y-81269000D01*
X124318928Y-83069000D01*
X124331188Y-83193482D01*
X124367498Y-83313180D01*
X124426463Y-83423494D01*
X124505815Y-83520185D01*
X124602506Y-83599537D01*
X124712820Y-83658502D01*
X124832518Y-83694812D01*
X124957000Y-83707072D01*
X125072001Y-83707072D01*
X125072001Y-84772037D01*
X125068203Y-84810600D01*
X125083359Y-84964486D01*
X125128246Y-85112459D01*
X125142334Y-85138815D01*
X125201139Y-85248833D01*
X125226528Y-85279769D01*
X125274655Y-85338412D01*
X125274659Y-85338416D01*
X125299237Y-85368364D01*
X125329185Y-85392942D01*
X125833453Y-85897210D01*
X125858036Y-85927164D01*
X125977567Y-86025262D01*
X126085950Y-86083193D01*
X126113940Y-86098154D01*
X126261913Y-86143042D01*
X126336826Y-86150420D01*
X126377239Y-86154400D01*
X126377244Y-86154400D01*
X126415800Y-86158197D01*
X126454356Y-86154400D01*
X131602443Y-86154400D01*
X132692000Y-87243958D01*
X132692001Y-96303637D01*
X132688203Y-96342200D01*
X132703359Y-96496086D01*
X132748246Y-96644059D01*
X132766004Y-96677282D01*
X132821139Y-96780433D01*
X132849870Y-96815441D01*
X132894655Y-96870012D01*
X132894659Y-96870016D01*
X132919237Y-96899964D01*
X132949185Y-96924542D01*
X134342458Y-98317816D01*
X134367036Y-98347764D01*
X134396984Y-98372342D01*
X134396987Y-98372345D01*
X134411023Y-98383864D01*
X134486567Y-98445862D01*
X134622940Y-98518754D01*
X134729017Y-98550932D01*
X134770912Y-98563641D01*
X134785290Y-98565057D01*
X134886239Y-98575000D01*
X134886246Y-98575000D01*
X134924799Y-98578797D01*
X134963352Y-98575000D01*
X138371661Y-98575000D01*
X138458363Y-98704759D01*
X138658241Y-98904637D01*
X138893273Y-99061680D01*
X139154426Y-99169853D01*
X139431665Y-99225000D01*
X139714335Y-99225000D01*
X139991574Y-99169853D01*
X140252727Y-99061680D01*
X140487759Y-98904637D01*
X140687637Y-98704759D01*
X140844680Y-98469727D01*
X140952853Y-98208574D01*
X141008000Y-97931335D01*
X141008000Y-97648665D01*
X140952853Y-97371426D01*
X140844680Y-97110273D01*
X140687637Y-96875241D01*
X140487759Y-96675363D01*
X140252727Y-96518320D01*
X139991574Y-96410147D01*
X139714335Y-96355000D01*
X139431665Y-96355000D01*
X139154426Y-96410147D01*
X138893273Y-96518320D01*
X138658241Y-96675363D01*
X138458363Y-96875241D01*
X138371661Y-97005000D01*
X135249958Y-97005000D01*
X134262000Y-96017043D01*
X134262000Y-92441665D01*
X138773000Y-92441665D01*
X138773000Y-92724335D01*
X138828147Y-93001574D01*
X138936320Y-93262727D01*
X139093363Y-93497759D01*
X139293241Y-93697637D01*
X139528273Y-93854680D01*
X139789426Y-93962853D01*
X140066665Y-94018000D01*
X140349335Y-94018000D01*
X140626574Y-93962853D01*
X140887727Y-93854680D01*
X141122759Y-93697637D01*
X141322637Y-93497759D01*
X141479680Y-93262727D01*
X141587853Y-93001574D01*
X141643000Y-92724335D01*
X141643000Y-92441665D01*
X141587853Y-92164426D01*
X141479680Y-91903273D01*
X141322637Y-91668241D01*
X141122759Y-91468363D01*
X140887727Y-91311320D01*
X140626574Y-91203147D01*
X140349335Y-91148000D01*
X140066665Y-91148000D01*
X139789426Y-91203147D01*
X139528273Y-91311320D01*
X139293241Y-91468363D01*
X139093363Y-91668241D01*
X138936320Y-91903273D01*
X138828147Y-92164426D01*
X138773000Y-92441665D01*
X134262000Y-92441665D01*
X134262000Y-86957352D01*
X134265797Y-86918799D01*
X134262000Y-86880246D01*
X134262000Y-86880239D01*
X134250641Y-86764913D01*
X134247152Y-86753409D01*
X134231158Y-86700686D01*
X134205754Y-86616940D01*
X134132862Y-86480567D01*
X134034764Y-86361036D01*
X134004817Y-86336459D01*
X132509945Y-84841588D01*
X132485364Y-84811636D01*
X132365833Y-84713538D01*
X132229460Y-84640646D01*
X132081487Y-84595759D01*
X131966161Y-84584400D01*
X131966153Y-84584400D01*
X131927600Y-84580603D01*
X131889047Y-84584400D01*
X126740957Y-84584400D01*
X126642000Y-84485443D01*
X126642000Y-83707072D01*
X126757000Y-83707072D01*
X126881482Y-83694812D01*
X127001180Y-83658502D01*
X127111494Y-83599537D01*
X127208185Y-83520185D01*
X127287537Y-83423494D01*
X127346502Y-83313180D01*
X127349813Y-83302265D01*
X127396578Y-83349030D01*
X127512526Y-83233082D01*
X127596208Y-83487261D01*
X127868775Y-83618158D01*
X128161642Y-83693365D01*
X128463553Y-83709991D01*
X128762907Y-83667397D01*
X129048199Y-83567222D01*
X129197792Y-83487261D01*
X129281475Y-83233080D01*
X128397000Y-82348605D01*
X128382858Y-82362748D01*
X128203253Y-82183143D01*
X128217395Y-82169000D01*
X128576605Y-82169000D01*
X129461080Y-83053475D01*
X129715261Y-82969792D01*
X129846158Y-82697225D01*
X129921365Y-82404358D01*
X129937991Y-82102447D01*
X129895397Y-81803093D01*
X129795222Y-81517801D01*
X129715261Y-81368208D01*
X129461080Y-81284525D01*
X128576605Y-82169000D01*
X128217395Y-82169000D01*
X128203253Y-82154858D01*
X128382858Y-81975253D01*
X128397000Y-81989395D01*
X129281475Y-81104920D01*
X129197792Y-80850739D01*
X128925225Y-80719842D01*
X128632358Y-80644635D01*
X128330447Y-80628009D01*
X128031093Y-80670603D01*
X127745801Y-80770778D01*
X127596208Y-80850739D01*
X127512526Y-81104918D01*
X127396578Y-80988970D01*
X127349813Y-81035735D01*
X127346502Y-81024820D01*
X127287537Y-80914506D01*
X127208185Y-80817815D01*
X127111494Y-80738463D01*
X127001180Y-80679498D01*
X126881482Y-80643188D01*
X126757000Y-80630928D01*
X124957000Y-80630928D01*
X124832518Y-80643188D01*
X124712820Y-80679498D01*
X124602506Y-80738463D01*
X124505815Y-80817815D01*
X124426463Y-80914506D01*
X124367498Y-81024820D01*
X124331188Y-81144518D01*
X124318928Y-81269000D01*
X106216020Y-81269000D01*
X106222752Y-78758370D01*
X106272102Y-78589758D01*
X106286912Y-78551157D01*
X106363079Y-78378471D01*
X106446910Y-78211197D01*
X106538208Y-78049455D01*
X106636750Y-77893423D01*
X106668563Y-77848175D01*
X126721682Y-77654738D01*
X126724972Y-77657246D01*
X126780538Y-77684496D01*
X126835385Y-77713243D01*
X126844881Y-77716049D01*
X126853766Y-77720406D01*
X126913584Y-77736348D01*
X126972953Y-77753890D01*
X126982807Y-77754797D01*
X126992374Y-77757347D01*
X127054183Y-77761369D01*
X127115795Y-77767042D01*
X127125633Y-77766019D01*
X127135519Y-77766662D01*
X127196908Y-77758605D01*
X127258472Y-77752201D01*
X127267935Y-77749282D01*
X127277745Y-77747995D01*
X127336389Y-77728172D01*
X127395548Y-77709927D01*
X127404257Y-77705230D01*
X127413638Y-77702059D01*
X127467313Y-77671223D01*
X127512016Y-77647114D01*
X137929796Y-77546621D01*
X146556270Y-84250479D01*
%TD*%
M02*
