M48
; DRILL file {KiCad (5.1.6)-1} date 09/30/20 19:58:13
; FORMAT={-:-/ absolute / inch / decimal}
; #@! TF.CreationDate,2020-09-30T19:58:13-06:00
; #@! TF.GenerationSoftware,Kicad,Pcbnew,(5.1.6)-1
FMAT,2
INCH
T1C0.0295
T2C0.0315
T3C0.0354
T4C0.0520
%
G90
G05
T1
X5.351Y-4.13
X5.351Y-4.18
X5.351Y-4.23
X4.967Y-4.142
X4.967Y-4.192
X4.967Y-4.242
T2
X5.68Y-4.72
X5.98Y-4.72
X5.495Y-3.85
X5.795Y-3.85
X5.768Y-4.135
X5.768Y-4.2334
X4.545Y-3.287
X4.545Y-3.587
X5.52Y-3.645
X5.82Y-3.645
X6.085Y-4.14
X6.085Y-4.2384
X5.68Y-4.53
X5.98Y-4.53
T3
X4.955Y-3.495
X5.055Y-3.495
X4.955Y-3.76
X5.055Y-3.76
X4.955Y-3.235
X5.055Y-3.235
T4
X4.5181Y-4.62
X4.715Y-4.62
T0
M30
