%TF.GenerationSoftware,KiCad,Pcbnew,(5.1.6)-1*%
%TF.CreationDate,2020-09-30T19:57:20-06:00*%
%TF.ProjectId,PCB_LDE,5043425f-4c44-4452-9e6b-696361645f70,v1.0*%
%TF.SameCoordinates,Original*%
%TF.FileFunction,Legend,Top*%
%TF.FilePolarity,Positive*%
%FSLAX46Y46*%
G04 Gerber Fmt 4.6, Leading zero omitted, Abs format (unit mm)*
G04 Created by KiCad (PCBNEW (5.1.6)-1) date 2020-09-30 19:57:20*
%MOMM*%
%LPD*%
G01*
G04 APERTURE LIST*
%ADD10C,0.010000*%
%ADD11C,0.120000*%
%ADD12C,0.150000*%
G04 APERTURE END LIST*
D10*
%TO.C,G\u002A\u002A\u002A*%
G36*
X136436027Y-114169283D02*
G01*
X136573558Y-114234519D01*
X136693082Y-114366874D01*
X136804087Y-114585680D01*
X136916063Y-114910267D01*
X137038498Y-115359968D01*
X137180882Y-115954115D01*
X137203184Y-116050952D01*
X137559168Y-117602000D01*
X137691083Y-117291315D01*
X137819171Y-117065810D01*
X137966590Y-116906536D01*
X137993932Y-116889148D01*
X138091134Y-116872600D01*
X138320069Y-116857814D01*
X138684504Y-116844752D01*
X139188206Y-116833375D01*
X139834943Y-116823645D01*
X140628482Y-116815522D01*
X141572590Y-116808968D01*
X142671036Y-116803944D01*
X143927585Y-116800412D01*
X145346005Y-116798332D01*
X146895420Y-116797667D01*
X155625973Y-116797667D01*
X155757463Y-116480167D01*
X156035931Y-115994814D01*
X156427758Y-115563870D01*
X156856495Y-115258594D01*
X157504767Y-114995925D01*
X158165282Y-114890020D01*
X158815240Y-114938597D01*
X159431843Y-115139369D01*
X159992291Y-115490053D01*
X160102146Y-115583813D01*
X160317272Y-115788436D01*
X160470371Y-115955450D01*
X160528000Y-116047961D01*
X160455068Y-116133411D01*
X160268119Y-116248214D01*
X160014921Y-116371731D01*
X159743243Y-116483324D01*
X159500853Y-116562355D01*
X159335521Y-116588186D01*
X159300602Y-116578245D01*
X158988175Y-116360183D01*
X158742830Y-116231188D01*
X158507321Y-116165367D01*
X158343020Y-116145087D01*
X157886369Y-116179420D01*
X157501852Y-116359289D01*
X157209677Y-116674772D01*
X157186546Y-116713000D01*
X157070200Y-117033268D01*
X157014903Y-117444696D01*
X157021331Y-117880237D01*
X157090158Y-118272848D01*
X157168844Y-118473577D01*
X157419340Y-118780538D01*
X157758341Y-118981850D01*
X158147626Y-119077258D01*
X158548978Y-119066507D01*
X158924177Y-118949344D01*
X159235003Y-118725512D01*
X159402402Y-118488459D01*
X159506939Y-118279333D01*
X158832136Y-118254742D01*
X158157333Y-118230152D01*
X158157333Y-117162140D01*
X159194500Y-117107730D01*
X159631157Y-117090686D01*
X160037607Y-117085293D01*
X160366430Y-117091551D01*
X160560380Y-117107725D01*
X160889095Y-117162129D01*
X160844901Y-117806896D01*
X160781935Y-118337980D01*
X160662038Y-118757809D01*
X160464358Y-119120574D01*
X160224502Y-119419114D01*
X159928776Y-119715710D01*
X159641832Y-119920682D01*
X159321937Y-120049578D01*
X158927355Y-120117949D01*
X158416354Y-120141344D01*
X158284333Y-120142000D01*
X157867416Y-120139201D01*
X157573902Y-120125056D01*
X157357883Y-120090942D01*
X157173449Y-120028239D01*
X156974694Y-119928325D01*
X156887333Y-119879636D01*
X156446375Y-119558329D01*
X156067342Y-119143929D01*
X155791116Y-118686091D01*
X155698301Y-118435458D01*
X155595098Y-118066852D01*
X138737464Y-118110000D01*
X138419414Y-119322948D01*
X138299629Y-119761481D01*
X138185161Y-120147714D01*
X138086423Y-120448800D01*
X138013823Y-120631891D01*
X137993995Y-120665268D01*
X137758894Y-120837801D01*
X137483896Y-120883380D01*
X137218770Y-120811737D01*
X137013282Y-120632606D01*
X136933919Y-120457960D01*
X136895263Y-120297944D01*
X136827118Y-120006888D01*
X136737390Y-119618906D01*
X136633984Y-119168111D01*
X136569640Y-118885973D01*
X136264563Y-117545280D01*
X135937113Y-119012973D01*
X135825712Y-119498148D01*
X135720034Y-119932583D01*
X135627828Y-120286354D01*
X135556841Y-120529539D01*
X135519345Y-120626357D01*
X135376305Y-120765407D01*
X135194346Y-120869255D01*
X134985892Y-120921608D01*
X134800062Y-120859983D01*
X134743644Y-120824920D01*
X134635064Y-120745482D01*
X134547362Y-120650385D01*
X134471270Y-120514433D01*
X134397522Y-120312428D01*
X134316852Y-120019174D01*
X134219993Y-119609473D01*
X134103274Y-119083667D01*
X134004583Y-118643054D01*
X133914214Y-118257332D01*
X133840036Y-117958785D01*
X133789912Y-117779697D01*
X133777721Y-117747472D01*
X133741533Y-117789285D01*
X133676062Y-117972426D01*
X133588397Y-118272845D01*
X133485629Y-118666488D01*
X133390907Y-119059805D01*
X133261833Y-119601381D01*
X133157048Y-120003273D01*
X133067624Y-120291843D01*
X132984633Y-120493450D01*
X132899146Y-120634455D01*
X132830794Y-120713500D01*
X132646572Y-120865533D01*
X132485161Y-120943586D01*
X132461000Y-120946333D01*
X132313443Y-120889528D01*
X132127870Y-120749311D01*
X132090802Y-120713500D01*
X131997803Y-120601781D01*
X131917469Y-120455123D01*
X131840799Y-120245736D01*
X131758793Y-119945825D01*
X131662451Y-119527599D01*
X131576722Y-119126000D01*
X131479537Y-118667629D01*
X131392758Y-118268349D01*
X131322870Y-117957214D01*
X131276356Y-117763281D01*
X131261455Y-117713300D01*
X131188786Y-117726820D01*
X131050815Y-117835297D01*
X131023896Y-117861467D01*
X130817696Y-118067667D01*
X127486448Y-118067667D01*
X126581610Y-118066234D01*
X125834895Y-118061714D01*
X125235115Y-118053777D01*
X124771082Y-118042091D01*
X124431610Y-118026326D01*
X124205509Y-118006149D01*
X124081592Y-117981230D01*
X124053600Y-117966067D01*
X123992889Y-117825241D01*
X123956571Y-117586319D01*
X123952000Y-117462867D01*
X123952896Y-117294093D01*
X123966068Y-117156579D01*
X124007240Y-117047126D01*
X124092137Y-116962533D01*
X124236482Y-116899600D01*
X124456001Y-116855127D01*
X124766417Y-116825915D01*
X125183455Y-116808762D01*
X125722840Y-116800470D01*
X126400295Y-116797838D01*
X127220666Y-116797667D01*
X130112988Y-116797667D01*
X130388332Y-115675833D01*
X130531486Y-115128263D01*
X130660981Y-114727243D01*
X130789110Y-114451994D01*
X130928166Y-114281734D01*
X131090441Y-114195681D01*
X131277302Y-114173000D01*
X131444461Y-114188808D01*
X131581161Y-114249643D01*
X131697332Y-114375622D01*
X131802906Y-114586862D01*
X131907813Y-114903481D01*
X132021982Y-115345597D01*
X132155344Y-115933325D01*
X132162604Y-115966480D01*
X132267416Y-116427851D01*
X132363073Y-116815559D01*
X132443151Y-117106179D01*
X132501223Y-117276287D01*
X132529902Y-117305667D01*
X132564192Y-117183144D01*
X132628852Y-116926515D01*
X132716324Y-116566706D01*
X132819056Y-116134642D01*
X132889332Y-115834442D01*
X133038935Y-115227471D01*
X133170424Y-114768725D01*
X133281684Y-114464944D01*
X133360724Y-114331609D01*
X133591989Y-114198049D01*
X133864563Y-114172831D01*
X134112864Y-114252890D01*
X134238892Y-114372619D01*
X134300385Y-114520081D01*
X134387305Y-114801078D01*
X134490773Y-115183323D01*
X134601911Y-115634527D01*
X134680593Y-115978981D01*
X134783864Y-116438332D01*
X134875675Y-116831803D01*
X134949632Y-117133177D01*
X134999340Y-117316233D01*
X135017352Y-117359870D01*
X135043903Y-117272992D01*
X135101356Y-117048319D01*
X135183031Y-116713164D01*
X135282250Y-116294844D01*
X135370510Y-115915453D01*
X135512837Y-115322313D01*
X135635926Y-114876067D01*
X135749920Y-114556843D01*
X135864968Y-114344769D01*
X135991214Y-114219976D01*
X136138804Y-114162590D01*
X136271000Y-114151833D01*
X136436027Y-114169283D01*
G37*
X136436027Y-114169283D02*
X136573558Y-114234519D01*
X136693082Y-114366874D01*
X136804087Y-114585680D01*
X136916063Y-114910267D01*
X137038498Y-115359968D01*
X137180882Y-115954115D01*
X137203184Y-116050952D01*
X137559168Y-117602000D01*
X137691083Y-117291315D01*
X137819171Y-117065810D01*
X137966590Y-116906536D01*
X137993932Y-116889148D01*
X138091134Y-116872600D01*
X138320069Y-116857814D01*
X138684504Y-116844752D01*
X139188206Y-116833375D01*
X139834943Y-116823645D01*
X140628482Y-116815522D01*
X141572590Y-116808968D01*
X142671036Y-116803944D01*
X143927585Y-116800412D01*
X145346005Y-116798332D01*
X146895420Y-116797667D01*
X155625973Y-116797667D01*
X155757463Y-116480167D01*
X156035931Y-115994814D01*
X156427758Y-115563870D01*
X156856495Y-115258594D01*
X157504767Y-114995925D01*
X158165282Y-114890020D01*
X158815240Y-114938597D01*
X159431843Y-115139369D01*
X159992291Y-115490053D01*
X160102146Y-115583813D01*
X160317272Y-115788436D01*
X160470371Y-115955450D01*
X160528000Y-116047961D01*
X160455068Y-116133411D01*
X160268119Y-116248214D01*
X160014921Y-116371731D01*
X159743243Y-116483324D01*
X159500853Y-116562355D01*
X159335521Y-116588186D01*
X159300602Y-116578245D01*
X158988175Y-116360183D01*
X158742830Y-116231188D01*
X158507321Y-116165367D01*
X158343020Y-116145087D01*
X157886369Y-116179420D01*
X157501852Y-116359289D01*
X157209677Y-116674772D01*
X157186546Y-116713000D01*
X157070200Y-117033268D01*
X157014903Y-117444696D01*
X157021331Y-117880237D01*
X157090158Y-118272848D01*
X157168844Y-118473577D01*
X157419340Y-118780538D01*
X157758341Y-118981850D01*
X158147626Y-119077258D01*
X158548978Y-119066507D01*
X158924177Y-118949344D01*
X159235003Y-118725512D01*
X159402402Y-118488459D01*
X159506939Y-118279333D01*
X158832136Y-118254742D01*
X158157333Y-118230152D01*
X158157333Y-117162140D01*
X159194500Y-117107730D01*
X159631157Y-117090686D01*
X160037607Y-117085293D01*
X160366430Y-117091551D01*
X160560380Y-117107725D01*
X160889095Y-117162129D01*
X160844901Y-117806896D01*
X160781935Y-118337980D01*
X160662038Y-118757809D01*
X160464358Y-119120574D01*
X160224502Y-119419114D01*
X159928776Y-119715710D01*
X159641832Y-119920682D01*
X159321937Y-120049578D01*
X158927355Y-120117949D01*
X158416354Y-120141344D01*
X158284333Y-120142000D01*
X157867416Y-120139201D01*
X157573902Y-120125056D01*
X157357883Y-120090942D01*
X157173449Y-120028239D01*
X156974694Y-119928325D01*
X156887333Y-119879636D01*
X156446375Y-119558329D01*
X156067342Y-119143929D01*
X155791116Y-118686091D01*
X155698301Y-118435458D01*
X155595098Y-118066852D01*
X138737464Y-118110000D01*
X138419414Y-119322948D01*
X138299629Y-119761481D01*
X138185161Y-120147714D01*
X138086423Y-120448800D01*
X138013823Y-120631891D01*
X137993995Y-120665268D01*
X137758894Y-120837801D01*
X137483896Y-120883380D01*
X137218770Y-120811737D01*
X137013282Y-120632606D01*
X136933919Y-120457960D01*
X136895263Y-120297944D01*
X136827118Y-120006888D01*
X136737390Y-119618906D01*
X136633984Y-119168111D01*
X136569640Y-118885973D01*
X136264563Y-117545280D01*
X135937113Y-119012973D01*
X135825712Y-119498148D01*
X135720034Y-119932583D01*
X135627828Y-120286354D01*
X135556841Y-120529539D01*
X135519345Y-120626357D01*
X135376305Y-120765407D01*
X135194346Y-120869255D01*
X134985892Y-120921608D01*
X134800062Y-120859983D01*
X134743644Y-120824920D01*
X134635064Y-120745482D01*
X134547362Y-120650385D01*
X134471270Y-120514433D01*
X134397522Y-120312428D01*
X134316852Y-120019174D01*
X134219993Y-119609473D01*
X134103274Y-119083667D01*
X134004583Y-118643054D01*
X133914214Y-118257332D01*
X133840036Y-117958785D01*
X133789912Y-117779697D01*
X133777721Y-117747472D01*
X133741533Y-117789285D01*
X133676062Y-117972426D01*
X133588397Y-118272845D01*
X133485629Y-118666488D01*
X133390907Y-119059805D01*
X133261833Y-119601381D01*
X133157048Y-120003273D01*
X133067624Y-120291843D01*
X132984633Y-120493450D01*
X132899146Y-120634455D01*
X132830794Y-120713500D01*
X132646572Y-120865533D01*
X132485161Y-120943586D01*
X132461000Y-120946333D01*
X132313443Y-120889528D01*
X132127870Y-120749311D01*
X132090802Y-120713500D01*
X131997803Y-120601781D01*
X131917469Y-120455123D01*
X131840799Y-120245736D01*
X131758793Y-119945825D01*
X131662451Y-119527599D01*
X131576722Y-119126000D01*
X131479537Y-118667629D01*
X131392758Y-118268349D01*
X131322870Y-117957214D01*
X131276356Y-117763281D01*
X131261455Y-117713300D01*
X131188786Y-117726820D01*
X131050815Y-117835297D01*
X131023896Y-117861467D01*
X130817696Y-118067667D01*
X127486448Y-118067667D01*
X126581610Y-118066234D01*
X125834895Y-118061714D01*
X125235115Y-118053777D01*
X124771082Y-118042091D01*
X124431610Y-118026326D01*
X124205509Y-118006149D01*
X124081592Y-117981230D01*
X124053600Y-117966067D01*
X123992889Y-117825241D01*
X123956571Y-117586319D01*
X123952000Y-117462867D01*
X123952896Y-117294093D01*
X123966068Y-117156579D01*
X124007240Y-117047126D01*
X124092137Y-116962533D01*
X124236482Y-116899600D01*
X124456001Y-116855127D01*
X124766417Y-116825915D01*
X125183455Y-116808762D01*
X125722840Y-116800470D01*
X126400295Y-116797838D01*
X127220666Y-116797667D01*
X130112988Y-116797667D01*
X130388332Y-115675833D01*
X130531486Y-115128263D01*
X130660981Y-114727243D01*
X130789110Y-114451994D01*
X130928166Y-114281734D01*
X131090441Y-114195681D01*
X131277302Y-114173000D01*
X131444461Y-114188808D01*
X131581161Y-114249643D01*
X131697332Y-114375622D01*
X131802906Y-114586862D01*
X131907813Y-114903481D01*
X132021982Y-115345597D01*
X132155344Y-115933325D01*
X132162604Y-115966480D01*
X132267416Y-116427851D01*
X132363073Y-116815559D01*
X132443151Y-117106179D01*
X132501223Y-117276287D01*
X132529902Y-117305667D01*
X132564192Y-117183144D01*
X132628852Y-116926515D01*
X132716324Y-116566706D01*
X132819056Y-116134642D01*
X132889332Y-115834442D01*
X133038935Y-115227471D01*
X133170424Y-114768725D01*
X133281684Y-114464944D01*
X133360724Y-114331609D01*
X133591989Y-114198049D01*
X133864563Y-114172831D01*
X134112864Y-114252890D01*
X134238892Y-114372619D01*
X134300385Y-114520081D01*
X134387305Y-114801078D01*
X134490773Y-115183323D01*
X134601911Y-115634527D01*
X134680593Y-115978981D01*
X134783864Y-116438332D01*
X134875675Y-116831803D01*
X134949632Y-117133177D01*
X134999340Y-117316233D01*
X135017352Y-117359870D01*
X135043903Y-117272992D01*
X135101356Y-117048319D01*
X135183031Y-116713164D01*
X135282250Y-116294844D01*
X135370510Y-115915453D01*
X135512837Y-115322313D01*
X135635926Y-114876067D01*
X135749920Y-114556843D01*
X135864968Y-114344769D01*
X135991214Y-114219976D01*
X136138804Y-114162590D01*
X136271000Y-114151833D01*
X136436027Y-114169283D01*
G36*
X164888333Y-116247333D02*
G01*
X163745333Y-116297403D01*
X163745333Y-120099667D01*
X163082111Y-120099667D01*
X162761766Y-120092914D01*
X162510295Y-120075022D01*
X162372908Y-120049535D01*
X162362444Y-120043222D01*
X162345917Y-119945540D01*
X162331300Y-119703813D01*
X162319344Y-119343328D01*
X162310800Y-118889369D01*
X162306419Y-118367221D01*
X162306000Y-118142262D01*
X162306000Y-116297747D01*
X161247666Y-116247333D01*
X161247666Y-115062000D01*
X164888333Y-115062000D01*
X164888333Y-116247333D01*
G37*
X164888333Y-116247333D02*
X163745333Y-116297403D01*
X163745333Y-120099667D01*
X163082111Y-120099667D01*
X162761766Y-120092914D01*
X162510295Y-120075022D01*
X162372908Y-120049535D01*
X162362444Y-120043222D01*
X162345917Y-119945540D01*
X162331300Y-119703813D01*
X162319344Y-119343328D01*
X162310800Y-118889369D01*
X162306419Y-118367221D01*
X162306000Y-118142262D01*
X162306000Y-116297747D01*
X161247666Y-116247333D01*
X161247666Y-115062000D01*
X164888333Y-115062000D01*
X164888333Y-116247333D01*
G36*
X164877302Y-99800833D02*
G01*
X164886437Y-99918613D01*
X164894676Y-100189846D01*
X164902018Y-100598655D01*
X164908462Y-101129163D01*
X164914009Y-101765493D01*
X164918656Y-102491766D01*
X164922405Y-103292106D01*
X164925254Y-104150635D01*
X164927203Y-105051476D01*
X164928251Y-105978752D01*
X164928398Y-106916584D01*
X164927644Y-107849096D01*
X164925987Y-108760411D01*
X164923427Y-109634650D01*
X164919965Y-110455936D01*
X164915598Y-111208393D01*
X164910327Y-111876142D01*
X164904151Y-112443307D01*
X164897070Y-112894009D01*
X164889083Y-113212372D01*
X164880190Y-113382518D01*
X164877750Y-113400417D01*
X164824833Y-113665000D01*
X137502194Y-113665000D01*
X135361496Y-113664827D01*
X133264423Y-113664317D01*
X131217301Y-113663484D01*
X129226458Y-113662339D01*
X127298222Y-113660897D01*
X125438919Y-113659170D01*
X123654877Y-113657171D01*
X121952424Y-113654914D01*
X120337886Y-113652411D01*
X118817591Y-113649675D01*
X117397867Y-113646720D01*
X116085040Y-113643558D01*
X114885438Y-113640203D01*
X113805389Y-113636668D01*
X112851219Y-113632965D01*
X112029256Y-113629108D01*
X111345828Y-113625109D01*
X110807262Y-113620983D01*
X110419885Y-113616741D01*
X110190024Y-113612397D01*
X110123111Y-113608555D01*
X110114438Y-113517152D01*
X110106173Y-113269042D01*
X110098415Y-112876855D01*
X110091267Y-112353217D01*
X110084830Y-111710756D01*
X110079205Y-110962100D01*
X110074495Y-110119876D01*
X110070799Y-109196711D01*
X110068220Y-108205233D01*
X110066859Y-107158070D01*
X110066666Y-106581222D01*
X110066666Y-106494872D01*
X111844666Y-106494872D01*
X111845723Y-107362177D01*
X111848762Y-108178286D01*
X111853584Y-108927560D01*
X111859992Y-109594358D01*
X111867787Y-110163043D01*
X111876771Y-110617974D01*
X111886745Y-110943512D01*
X111897512Y-111124018D01*
X111903744Y-111155855D01*
X112024831Y-111183410D01*
X112080002Y-111169966D01*
X112197610Y-111156172D01*
X112456744Y-111144089D01*
X112829601Y-111134412D01*
X113288377Y-111127834D01*
X113805266Y-111125048D01*
X113883591Y-111125000D01*
X115570000Y-111125000D01*
X115570000Y-109437212D01*
X114617500Y-109413273D01*
X113665000Y-109389333D01*
X113652819Y-108834402D01*
X116346872Y-108834402D01*
X116348197Y-109494617D01*
X116350986Y-110056769D01*
X116355174Y-110504794D01*
X116360696Y-110822629D01*
X116367487Y-110994211D01*
X116370834Y-111019167D01*
X116428041Y-111056273D01*
X116578298Y-111084363D01*
X116837700Y-111104350D01*
X117222346Y-111117149D01*
X117748333Y-111123673D01*
X118234342Y-111125000D01*
X120057333Y-111125000D01*
X120819333Y-111125000D01*
X124544666Y-111125000D01*
X124544666Y-109437212D01*
X123592166Y-109413273D01*
X122639666Y-109389333D01*
X122607887Y-107941560D01*
X125315728Y-107941560D01*
X125317929Y-108476155D01*
X125325037Y-108896012D01*
X125337625Y-109219317D01*
X125356263Y-109464260D01*
X125381523Y-109649028D01*
X125413977Y-109791808D01*
X125430261Y-109844748D01*
X125683711Y-110373149D01*
X126053047Y-110778670D01*
X126539978Y-111062770D01*
X127022623Y-111205054D01*
X127290282Y-111256074D01*
X127476763Y-111278151D01*
X127651922Y-111271095D01*
X127885616Y-111234715D01*
X128063950Y-111202222D01*
X128661314Y-111029726D01*
X129126290Y-110753556D01*
X129463246Y-110369895D01*
X129676548Y-109874929D01*
X129702923Y-109770333D01*
X129736976Y-109535938D01*
X129765136Y-109180772D01*
X129784444Y-108753369D01*
X129791930Y-108309833D01*
X129794000Y-107230333D01*
X128016000Y-107230333D01*
X128014751Y-108182833D01*
X128003412Y-108677660D01*
X127972333Y-109059924D01*
X127923787Y-109305104D01*
X127906799Y-109347000D01*
X127732947Y-109533682D01*
X127501939Y-109583482D01*
X127268835Y-109486329D01*
X127247017Y-109467681D01*
X127202472Y-109419458D01*
X127166898Y-109352133D01*
X127139290Y-109247695D01*
X127118645Y-109088133D01*
X127103959Y-108855437D01*
X127094226Y-108531595D01*
X127088442Y-108098597D01*
X127085604Y-107538432D01*
X127084707Y-106833089D01*
X127084666Y-106556060D01*
X127085341Y-105752016D01*
X127088995Y-105101424D01*
X127098075Y-104588402D01*
X127115029Y-104197070D01*
X127142301Y-103911547D01*
X127182340Y-103715951D01*
X127237591Y-103594402D01*
X127310500Y-103531019D01*
X127403515Y-103509920D01*
X127519082Y-103515225D01*
X127552546Y-103518903D01*
X127744138Y-103578492D01*
X127877819Y-103720825D01*
X127961895Y-103968094D01*
X128004673Y-104342492D01*
X128014751Y-104753833D01*
X128016000Y-105537000D01*
X129814022Y-105537000D01*
X129776371Y-104457500D01*
X129743569Y-103864188D01*
X129719690Y-103674333D01*
X130296076Y-103674333D01*
X131402666Y-103674333D01*
X131402666Y-111125000D01*
X133180666Y-111125000D01*
X135043333Y-111125000D01*
X136818375Y-111125000D01*
X136841020Y-109029500D01*
X136863666Y-106934000D01*
X137117666Y-106959565D01*
X137259186Y-106980554D01*
X137368715Y-107024619D01*
X137450344Y-107111382D01*
X137508162Y-107260464D01*
X137546259Y-107491487D01*
X137568724Y-107824072D01*
X137579645Y-108277839D01*
X137583114Y-108872411D01*
X137583333Y-109193849D01*
X137583333Y-111125000D01*
X139361333Y-111125000D01*
X139356554Y-109198833D01*
X139352013Y-108491083D01*
X139339846Y-107931684D01*
X139316365Y-107499703D01*
X139280911Y-107199812D01*
X140216775Y-107199812D01*
X140219043Y-108019992D01*
X140229527Y-108674011D01*
X140248209Y-109161008D01*
X140275073Y-109480119D01*
X140289890Y-109569014D01*
X140489219Y-110146550D01*
X140807353Y-110608274D01*
X141239551Y-110947642D01*
X141320085Y-110990712D01*
X141558057Y-111101958D01*
X141766098Y-111167733D01*
X142000310Y-111197344D01*
X142316799Y-111200100D01*
X142543270Y-111193642D01*
X142931218Y-111174393D01*
X143204580Y-111139636D01*
X143418083Y-111076285D01*
X143626458Y-110971253D01*
X143727306Y-110910513D01*
X144023208Y-110689682D01*
X144248090Y-110417106D01*
X144397702Y-110154499D01*
X144653000Y-109655306D01*
X144653000Y-103293333D01*
X144389902Y-102827667D01*
X144190405Y-102520968D01*
X143969798Y-102307748D01*
X143657471Y-102120096D01*
X143650444Y-102116467D01*
X143383982Y-101990691D01*
X143147254Y-101916535D01*
X142993524Y-101896333D01*
X145626666Y-101896333D01*
X145626666Y-111125000D01*
X147404666Y-111125000D01*
X147407241Y-108902500D01*
X147410447Y-108317128D01*
X147418175Y-107798935D01*
X147429714Y-107368392D01*
X147444354Y-107045965D01*
X147461386Y-106852122D01*
X147479919Y-106807000D01*
X147514961Y-106922322D01*
X147576684Y-107179945D01*
X147659882Y-107555865D01*
X147759348Y-108026079D01*
X147869876Y-108566583D01*
X147961984Y-109029500D01*
X148373946Y-111125000D01*
X150114000Y-111125000D01*
X150114000Y-101896333D01*
X151045333Y-101896333D01*
X151045333Y-111125000D01*
X152738666Y-111125000D01*
X152738666Y-106674200D01*
X153670827Y-106674200D01*
X153671293Y-107461853D01*
X153672950Y-108099095D01*
X153676909Y-108604852D01*
X153684282Y-108998047D01*
X153696181Y-109297604D01*
X153713719Y-109522446D01*
X153738008Y-109691497D01*
X153770159Y-109823681D01*
X153811285Y-109937922D01*
X153862498Y-110053143D01*
X153870395Y-110070126D01*
X154181214Y-110552608D01*
X154598798Y-110912313D01*
X155108323Y-111144320D01*
X155694962Y-111243705D01*
X156343890Y-111205546D01*
X156893732Y-111074002D01*
X157197227Y-110935630D01*
X157479849Y-110740060D01*
X157545607Y-110678601D01*
X157745466Y-110448637D01*
X157893532Y-110210107D01*
X157998334Y-109931463D01*
X158068401Y-109581157D01*
X158112262Y-109127640D01*
X158138445Y-108539364D01*
X158140214Y-108479167D01*
X158161317Y-107738333D01*
X158726380Y-107738333D01*
X158768818Y-108699989D01*
X158796050Y-109168081D01*
X158835420Y-109515032D01*
X158895550Y-109788998D01*
X158985066Y-110038136D01*
X159024399Y-110127212D01*
X159324655Y-110601137D01*
X159727943Y-110948027D01*
X160062333Y-111107512D01*
X160330949Y-111164034D01*
X160702265Y-111195134D01*
X161120134Y-111201325D01*
X161528404Y-111183119D01*
X161870926Y-111141028D01*
X162062826Y-111089270D01*
X162414446Y-110888409D01*
X162696665Y-110596708D01*
X162944126Y-110177154D01*
X162972967Y-110116806D01*
X163069288Y-109895904D01*
X163133058Y-109693343D01*
X163170854Y-109465002D01*
X163189255Y-109166757D01*
X163194836Y-108754486D01*
X163195000Y-108627333D01*
X163185735Y-108122800D01*
X163148004Y-107706922D01*
X163066903Y-107349648D01*
X162927527Y-107020926D01*
X162714971Y-106690703D01*
X162414330Y-106328927D01*
X162010701Y-105905545D01*
X161684345Y-105581399D01*
X161226616Y-105122112D01*
X160887211Y-104754933D01*
X160655194Y-104462585D01*
X160519627Y-104227790D01*
X160469575Y-104033270D01*
X160494099Y-103861749D01*
X160536752Y-103768548D01*
X160708776Y-103590402D01*
X160933369Y-103512898D01*
X161150334Y-103546590D01*
X161264658Y-103640919D01*
X161334129Y-103818413D01*
X161372200Y-104076055D01*
X161374666Y-104156182D01*
X161374666Y-104521000D01*
X163175419Y-104521000D01*
X163133142Y-103930127D01*
X163047092Y-103376307D01*
X162859507Y-102876727D01*
X162846599Y-102850627D01*
X162684064Y-102558430D01*
X162517268Y-102364411D01*
X162284957Y-102207296D01*
X162114257Y-102118001D01*
X161602983Y-101934846D01*
X161049027Y-101858786D01*
X160493896Y-101885899D01*
X159979099Y-102012262D01*
X159546144Y-102233954D01*
X159375906Y-102376738D01*
X159120968Y-102728596D01*
X158924543Y-103190607D01*
X158802625Y-103709015D01*
X158771206Y-104230066D01*
X158781402Y-104374904D01*
X158845672Y-104780918D01*
X158959015Y-105149241D01*
X159138426Y-105508347D01*
X159400901Y-105886711D01*
X159763434Y-106312810D01*
X160229883Y-106801823D01*
X160661767Y-107249843D01*
X160981761Y-107612681D01*
X161205601Y-107916450D01*
X161349024Y-108187258D01*
X161427764Y-108451216D01*
X161457557Y-108734433D01*
X161459333Y-108841847D01*
X161433264Y-109222876D01*
X161347494Y-109462059D01*
X161190675Y-109579834D01*
X161037822Y-109601000D01*
X160822224Y-109562732D01*
X160672985Y-109434180D01*
X160580711Y-109194721D01*
X160536013Y-108823734D01*
X160528000Y-108481494D01*
X160528000Y-107738333D01*
X158726380Y-107738333D01*
X158161317Y-107738333D01*
X158175789Y-107230333D01*
X156379333Y-107230333D01*
X156378861Y-108055833D01*
X156365138Y-108621238D01*
X156321506Y-109037501D01*
X156243156Y-109322941D01*
X156125282Y-109495879D01*
X155981431Y-109570474D01*
X155717264Y-109574984D01*
X155530647Y-109432026D01*
X155425876Y-109183714D01*
X155408637Y-109030790D01*
X155394598Y-108732230D01*
X155384143Y-108311708D01*
X155377656Y-107792898D01*
X155375519Y-107199473D01*
X155378115Y-106555108D01*
X155379968Y-106346043D01*
X155388449Y-105578203D01*
X155398785Y-104962831D01*
X155413894Y-104483061D01*
X155436692Y-104122032D01*
X155470095Y-103862879D01*
X155517020Y-103688740D01*
X155580384Y-103582751D01*
X155663102Y-103528049D01*
X155768092Y-103507770D01*
X155871333Y-103505000D01*
X156052078Y-103528562D01*
X156180266Y-103615696D01*
X156266450Y-103791077D01*
X156321184Y-104079377D01*
X156355025Y-104505269D01*
X156362191Y-104652490D01*
X156401529Y-105537000D01*
X158050787Y-105537000D01*
X158104715Y-104965500D01*
X158128949Y-104343360D01*
X158087607Y-103753191D01*
X157986589Y-103233955D01*
X157831794Y-102824613D01*
X157763237Y-102710494D01*
X157395922Y-102325009D01*
X156912846Y-102053852D01*
X156328939Y-101903675D01*
X155886369Y-101874052D01*
X155283051Y-101920463D01*
X154795436Y-102066867D01*
X154395318Y-102324020D01*
X154202801Y-102516018D01*
X154071376Y-102675190D01*
X153963435Y-102836769D01*
X153876691Y-103018633D01*
X153808858Y-103238661D01*
X153757646Y-103514731D01*
X153720770Y-103864722D01*
X153695942Y-104306512D01*
X153680874Y-104857980D01*
X153673280Y-105537005D01*
X153670872Y-106361465D01*
X153670827Y-106674200D01*
X152738666Y-106674200D01*
X152738666Y-101896333D01*
X151045333Y-101896333D01*
X150114000Y-101896333D01*
X148420666Y-101896333D01*
X148420666Y-103970667D01*
X148417769Y-104543157D01*
X148409624Y-105055120D01*
X148397053Y-105483655D01*
X148380875Y-105805863D01*
X148361911Y-105998844D01*
X148346329Y-106045000D01*
X148310611Y-105965471D01*
X148249162Y-105741770D01*
X148167096Y-105396226D01*
X148069528Y-104951167D01*
X147961573Y-104428920D01*
X147871189Y-103970667D01*
X147470385Y-101896333D01*
X145626666Y-101896333D01*
X142993524Y-101896333D01*
X142876723Y-101880984D01*
X142508855Y-101871027D01*
X142451666Y-101870933D01*
X142066806Y-101878561D01*
X141787391Y-101910121D01*
X141549885Y-101978627D01*
X141290755Y-102097091D01*
X141252889Y-102116467D01*
X140938220Y-102304284D01*
X140716567Y-102516424D01*
X140517318Y-102820797D01*
X140513430Y-102827667D01*
X140250333Y-103293333D01*
X140222740Y-106214333D01*
X140216775Y-107199812D01*
X139280911Y-107199812D01*
X139277883Y-107174203D01*
X139220713Y-106934249D01*
X139141166Y-106758906D01*
X139035556Y-106627239D01*
X138900195Y-106518312D01*
X138882262Y-106506101D01*
X138614859Y-106326338D01*
X138861529Y-106180626D01*
X139059720Y-106040629D01*
X139204132Y-105871328D01*
X139302747Y-105645171D01*
X139363549Y-105334604D01*
X139394518Y-104912074D01*
X139403639Y-104350027D01*
X139403666Y-104309333D01*
X139401479Y-103828572D01*
X139391691Y-103480452D01*
X139369464Y-103228304D01*
X139329961Y-103035459D01*
X139268342Y-102865247D01*
X139192000Y-102705099D01*
X139060644Y-102469434D01*
X138918758Y-102287295D01*
X138743103Y-102151342D01*
X138510435Y-102054237D01*
X138197516Y-101988641D01*
X137781102Y-101947214D01*
X137237954Y-101922618D01*
X136673166Y-101909708D01*
X135043333Y-101880750D01*
X135043333Y-111125000D01*
X133180666Y-111125000D01*
X133180666Y-103674333D01*
X134281333Y-103674333D01*
X134281333Y-102829280D01*
X134279197Y-102444018D01*
X134268136Y-102195410D01*
X134241173Y-102050786D01*
X134191328Y-101977478D01*
X134111623Y-101942817D01*
X134090833Y-101937487D01*
X133951170Y-101924559D01*
X133670592Y-101915309D01*
X133277485Y-101910067D01*
X132800234Y-101909160D01*
X132267225Y-101912917D01*
X132122333Y-101914708D01*
X130344333Y-101938667D01*
X130320204Y-102806500D01*
X130296076Y-103674333D01*
X129719690Y-103674333D01*
X129686037Y-103406783D01*
X129594757Y-103052586D01*
X129460708Y-102768901D01*
X129274871Y-102523032D01*
X129229221Y-102473977D01*
X128829413Y-102173767D01*
X128312517Y-101973918D01*
X127703850Y-101883174D01*
X127504733Y-101878542D01*
X126889002Y-101928650D01*
X126395856Y-102081113D01*
X126004558Y-102348096D01*
X125694377Y-102741767D01*
X125545644Y-103028120D01*
X125493599Y-103147869D01*
X125451461Y-103266013D01*
X125418005Y-103401467D01*
X125392005Y-103573146D01*
X125372239Y-103799966D01*
X125357480Y-104100841D01*
X125346505Y-104494685D01*
X125338088Y-105000414D01*
X125331007Y-105636943D01*
X125324035Y-106423187D01*
X125323763Y-106455399D01*
X125317863Y-107274037D01*
X125315728Y-107941560D01*
X122607887Y-107941560D01*
X122592274Y-107230333D01*
X124375333Y-107230333D01*
X124375333Y-105537000D01*
X122597333Y-105537000D01*
X122597333Y-103674333D01*
X124465923Y-103674333D01*
X124441795Y-102806500D01*
X124417666Y-101938667D01*
X122618500Y-101915816D01*
X120819333Y-101892966D01*
X120819333Y-111125000D01*
X120057333Y-111125000D01*
X120057333Y-109685667D01*
X118194666Y-109685667D01*
X118194666Y-101890604D01*
X117284500Y-101914635D01*
X116374333Y-101938667D01*
X116352325Y-106426000D01*
X116348871Y-107284030D01*
X116347075Y-108092185D01*
X116346872Y-108834402D01*
X113652819Y-108834402D01*
X113641303Y-108309833D01*
X113617607Y-107230333D01*
X115400666Y-107230333D01*
X115400666Y-105537000D01*
X113622666Y-105537000D01*
X113622666Y-103674333D01*
X115491257Y-103674333D01*
X115467128Y-102806500D01*
X115443000Y-101938667D01*
X113643833Y-101915816D01*
X111844666Y-101892966D01*
X111844666Y-106494872D01*
X110066666Y-106494872D01*
X110066666Y-99610333D01*
X164826250Y-99610333D01*
X164877302Y-99800833D01*
G37*
X164877302Y-99800833D02*
X164886437Y-99918613D01*
X164894676Y-100189846D01*
X164902018Y-100598655D01*
X164908462Y-101129163D01*
X164914009Y-101765493D01*
X164918656Y-102491766D01*
X164922405Y-103292106D01*
X164925254Y-104150635D01*
X164927203Y-105051476D01*
X164928251Y-105978752D01*
X164928398Y-106916584D01*
X164927644Y-107849096D01*
X164925987Y-108760411D01*
X164923427Y-109634650D01*
X164919965Y-110455936D01*
X164915598Y-111208393D01*
X164910327Y-111876142D01*
X164904151Y-112443307D01*
X164897070Y-112894009D01*
X164889083Y-113212372D01*
X164880190Y-113382518D01*
X164877750Y-113400417D01*
X164824833Y-113665000D01*
X137502194Y-113665000D01*
X135361496Y-113664827D01*
X133264423Y-113664317D01*
X131217301Y-113663484D01*
X129226458Y-113662339D01*
X127298222Y-113660897D01*
X125438919Y-113659170D01*
X123654877Y-113657171D01*
X121952424Y-113654914D01*
X120337886Y-113652411D01*
X118817591Y-113649675D01*
X117397867Y-113646720D01*
X116085040Y-113643558D01*
X114885438Y-113640203D01*
X113805389Y-113636668D01*
X112851219Y-113632965D01*
X112029256Y-113629108D01*
X111345828Y-113625109D01*
X110807262Y-113620983D01*
X110419885Y-113616741D01*
X110190024Y-113612397D01*
X110123111Y-113608555D01*
X110114438Y-113517152D01*
X110106173Y-113269042D01*
X110098415Y-112876855D01*
X110091267Y-112353217D01*
X110084830Y-111710756D01*
X110079205Y-110962100D01*
X110074495Y-110119876D01*
X110070799Y-109196711D01*
X110068220Y-108205233D01*
X110066859Y-107158070D01*
X110066666Y-106581222D01*
X110066666Y-106494872D01*
X111844666Y-106494872D01*
X111845723Y-107362177D01*
X111848762Y-108178286D01*
X111853584Y-108927560D01*
X111859992Y-109594358D01*
X111867787Y-110163043D01*
X111876771Y-110617974D01*
X111886745Y-110943512D01*
X111897512Y-111124018D01*
X111903744Y-111155855D01*
X112024831Y-111183410D01*
X112080002Y-111169966D01*
X112197610Y-111156172D01*
X112456744Y-111144089D01*
X112829601Y-111134412D01*
X113288377Y-111127834D01*
X113805266Y-111125048D01*
X113883591Y-111125000D01*
X115570000Y-111125000D01*
X115570000Y-109437212D01*
X114617500Y-109413273D01*
X113665000Y-109389333D01*
X113652819Y-108834402D01*
X116346872Y-108834402D01*
X116348197Y-109494617D01*
X116350986Y-110056769D01*
X116355174Y-110504794D01*
X116360696Y-110822629D01*
X116367487Y-110994211D01*
X116370834Y-111019167D01*
X116428041Y-111056273D01*
X116578298Y-111084363D01*
X116837700Y-111104350D01*
X117222346Y-111117149D01*
X117748333Y-111123673D01*
X118234342Y-111125000D01*
X120057333Y-111125000D01*
X120819333Y-111125000D01*
X124544666Y-111125000D01*
X124544666Y-109437212D01*
X123592166Y-109413273D01*
X122639666Y-109389333D01*
X122607887Y-107941560D01*
X125315728Y-107941560D01*
X125317929Y-108476155D01*
X125325037Y-108896012D01*
X125337625Y-109219317D01*
X125356263Y-109464260D01*
X125381523Y-109649028D01*
X125413977Y-109791808D01*
X125430261Y-109844748D01*
X125683711Y-110373149D01*
X126053047Y-110778670D01*
X126539978Y-111062770D01*
X127022623Y-111205054D01*
X127290282Y-111256074D01*
X127476763Y-111278151D01*
X127651922Y-111271095D01*
X127885616Y-111234715D01*
X128063950Y-111202222D01*
X128661314Y-111029726D01*
X129126290Y-110753556D01*
X129463246Y-110369895D01*
X129676548Y-109874929D01*
X129702923Y-109770333D01*
X129736976Y-109535938D01*
X129765136Y-109180772D01*
X129784444Y-108753369D01*
X129791930Y-108309833D01*
X129794000Y-107230333D01*
X128016000Y-107230333D01*
X128014751Y-108182833D01*
X128003412Y-108677660D01*
X127972333Y-109059924D01*
X127923787Y-109305104D01*
X127906799Y-109347000D01*
X127732947Y-109533682D01*
X127501939Y-109583482D01*
X127268835Y-109486329D01*
X127247017Y-109467681D01*
X127202472Y-109419458D01*
X127166898Y-109352133D01*
X127139290Y-109247695D01*
X127118645Y-109088133D01*
X127103959Y-108855437D01*
X127094226Y-108531595D01*
X127088442Y-108098597D01*
X127085604Y-107538432D01*
X127084707Y-106833089D01*
X127084666Y-106556060D01*
X127085341Y-105752016D01*
X127088995Y-105101424D01*
X127098075Y-104588402D01*
X127115029Y-104197070D01*
X127142301Y-103911547D01*
X127182340Y-103715951D01*
X127237591Y-103594402D01*
X127310500Y-103531019D01*
X127403515Y-103509920D01*
X127519082Y-103515225D01*
X127552546Y-103518903D01*
X127744138Y-103578492D01*
X127877819Y-103720825D01*
X127961895Y-103968094D01*
X128004673Y-104342492D01*
X128014751Y-104753833D01*
X128016000Y-105537000D01*
X129814022Y-105537000D01*
X129776371Y-104457500D01*
X129743569Y-103864188D01*
X129719690Y-103674333D01*
X130296076Y-103674333D01*
X131402666Y-103674333D01*
X131402666Y-111125000D01*
X133180666Y-111125000D01*
X135043333Y-111125000D01*
X136818375Y-111125000D01*
X136841020Y-109029500D01*
X136863666Y-106934000D01*
X137117666Y-106959565D01*
X137259186Y-106980554D01*
X137368715Y-107024619D01*
X137450344Y-107111382D01*
X137508162Y-107260464D01*
X137546259Y-107491487D01*
X137568724Y-107824072D01*
X137579645Y-108277839D01*
X137583114Y-108872411D01*
X137583333Y-109193849D01*
X137583333Y-111125000D01*
X139361333Y-111125000D01*
X139356554Y-109198833D01*
X139352013Y-108491083D01*
X139339846Y-107931684D01*
X139316365Y-107499703D01*
X139280911Y-107199812D01*
X140216775Y-107199812D01*
X140219043Y-108019992D01*
X140229527Y-108674011D01*
X140248209Y-109161008D01*
X140275073Y-109480119D01*
X140289890Y-109569014D01*
X140489219Y-110146550D01*
X140807353Y-110608274D01*
X141239551Y-110947642D01*
X141320085Y-110990712D01*
X141558057Y-111101958D01*
X141766098Y-111167733D01*
X142000310Y-111197344D01*
X142316799Y-111200100D01*
X142543270Y-111193642D01*
X142931218Y-111174393D01*
X143204580Y-111139636D01*
X143418083Y-111076285D01*
X143626458Y-110971253D01*
X143727306Y-110910513D01*
X144023208Y-110689682D01*
X144248090Y-110417106D01*
X144397702Y-110154499D01*
X144653000Y-109655306D01*
X144653000Y-103293333D01*
X144389902Y-102827667D01*
X144190405Y-102520968D01*
X143969798Y-102307748D01*
X143657471Y-102120096D01*
X143650444Y-102116467D01*
X143383982Y-101990691D01*
X143147254Y-101916535D01*
X142993524Y-101896333D01*
X145626666Y-101896333D01*
X145626666Y-111125000D01*
X147404666Y-111125000D01*
X147407241Y-108902500D01*
X147410447Y-108317128D01*
X147418175Y-107798935D01*
X147429714Y-107368392D01*
X147444354Y-107045965D01*
X147461386Y-106852122D01*
X147479919Y-106807000D01*
X147514961Y-106922322D01*
X147576684Y-107179945D01*
X147659882Y-107555865D01*
X147759348Y-108026079D01*
X147869876Y-108566583D01*
X147961984Y-109029500D01*
X148373946Y-111125000D01*
X150114000Y-111125000D01*
X150114000Y-101896333D01*
X151045333Y-101896333D01*
X151045333Y-111125000D01*
X152738666Y-111125000D01*
X152738666Y-106674200D01*
X153670827Y-106674200D01*
X153671293Y-107461853D01*
X153672950Y-108099095D01*
X153676909Y-108604852D01*
X153684282Y-108998047D01*
X153696181Y-109297604D01*
X153713719Y-109522446D01*
X153738008Y-109691497D01*
X153770159Y-109823681D01*
X153811285Y-109937922D01*
X153862498Y-110053143D01*
X153870395Y-110070126D01*
X154181214Y-110552608D01*
X154598798Y-110912313D01*
X155108323Y-111144320D01*
X155694962Y-111243705D01*
X156343890Y-111205546D01*
X156893732Y-111074002D01*
X157197227Y-110935630D01*
X157479849Y-110740060D01*
X157545607Y-110678601D01*
X157745466Y-110448637D01*
X157893532Y-110210107D01*
X157998334Y-109931463D01*
X158068401Y-109581157D01*
X158112262Y-109127640D01*
X158138445Y-108539364D01*
X158140214Y-108479167D01*
X158161317Y-107738333D01*
X158726380Y-107738333D01*
X158768818Y-108699989D01*
X158796050Y-109168081D01*
X158835420Y-109515032D01*
X158895550Y-109788998D01*
X158985066Y-110038136D01*
X159024399Y-110127212D01*
X159324655Y-110601137D01*
X159727943Y-110948027D01*
X160062333Y-111107512D01*
X160330949Y-111164034D01*
X160702265Y-111195134D01*
X161120134Y-111201325D01*
X161528404Y-111183119D01*
X161870926Y-111141028D01*
X162062826Y-111089270D01*
X162414446Y-110888409D01*
X162696665Y-110596708D01*
X162944126Y-110177154D01*
X162972967Y-110116806D01*
X163069288Y-109895904D01*
X163133058Y-109693343D01*
X163170854Y-109465002D01*
X163189255Y-109166757D01*
X163194836Y-108754486D01*
X163195000Y-108627333D01*
X163185735Y-108122800D01*
X163148004Y-107706922D01*
X163066903Y-107349648D01*
X162927527Y-107020926D01*
X162714971Y-106690703D01*
X162414330Y-106328927D01*
X162010701Y-105905545D01*
X161684345Y-105581399D01*
X161226616Y-105122112D01*
X160887211Y-104754933D01*
X160655194Y-104462585D01*
X160519627Y-104227790D01*
X160469575Y-104033270D01*
X160494099Y-103861749D01*
X160536752Y-103768548D01*
X160708776Y-103590402D01*
X160933369Y-103512898D01*
X161150334Y-103546590D01*
X161264658Y-103640919D01*
X161334129Y-103818413D01*
X161372200Y-104076055D01*
X161374666Y-104156182D01*
X161374666Y-104521000D01*
X163175419Y-104521000D01*
X163133142Y-103930127D01*
X163047092Y-103376307D01*
X162859507Y-102876727D01*
X162846599Y-102850627D01*
X162684064Y-102558430D01*
X162517268Y-102364411D01*
X162284957Y-102207296D01*
X162114257Y-102118001D01*
X161602983Y-101934846D01*
X161049027Y-101858786D01*
X160493896Y-101885899D01*
X159979099Y-102012262D01*
X159546144Y-102233954D01*
X159375906Y-102376738D01*
X159120968Y-102728596D01*
X158924543Y-103190607D01*
X158802625Y-103709015D01*
X158771206Y-104230066D01*
X158781402Y-104374904D01*
X158845672Y-104780918D01*
X158959015Y-105149241D01*
X159138426Y-105508347D01*
X159400901Y-105886711D01*
X159763434Y-106312810D01*
X160229883Y-106801823D01*
X160661767Y-107249843D01*
X160981761Y-107612681D01*
X161205601Y-107916450D01*
X161349024Y-108187258D01*
X161427764Y-108451216D01*
X161457557Y-108734433D01*
X161459333Y-108841847D01*
X161433264Y-109222876D01*
X161347494Y-109462059D01*
X161190675Y-109579834D01*
X161037822Y-109601000D01*
X160822224Y-109562732D01*
X160672985Y-109434180D01*
X160580711Y-109194721D01*
X160536013Y-108823734D01*
X160528000Y-108481494D01*
X160528000Y-107738333D01*
X158726380Y-107738333D01*
X158161317Y-107738333D01*
X158175789Y-107230333D01*
X156379333Y-107230333D01*
X156378861Y-108055833D01*
X156365138Y-108621238D01*
X156321506Y-109037501D01*
X156243156Y-109322941D01*
X156125282Y-109495879D01*
X155981431Y-109570474D01*
X155717264Y-109574984D01*
X155530647Y-109432026D01*
X155425876Y-109183714D01*
X155408637Y-109030790D01*
X155394598Y-108732230D01*
X155384143Y-108311708D01*
X155377656Y-107792898D01*
X155375519Y-107199473D01*
X155378115Y-106555108D01*
X155379968Y-106346043D01*
X155388449Y-105578203D01*
X155398785Y-104962831D01*
X155413894Y-104483061D01*
X155436692Y-104122032D01*
X155470095Y-103862879D01*
X155517020Y-103688740D01*
X155580384Y-103582751D01*
X155663102Y-103528049D01*
X155768092Y-103507770D01*
X155871333Y-103505000D01*
X156052078Y-103528562D01*
X156180266Y-103615696D01*
X156266450Y-103791077D01*
X156321184Y-104079377D01*
X156355025Y-104505269D01*
X156362191Y-104652490D01*
X156401529Y-105537000D01*
X158050787Y-105537000D01*
X158104715Y-104965500D01*
X158128949Y-104343360D01*
X158087607Y-103753191D01*
X157986589Y-103233955D01*
X157831794Y-102824613D01*
X157763237Y-102710494D01*
X157395922Y-102325009D01*
X156912846Y-102053852D01*
X156328939Y-101903675D01*
X155886369Y-101874052D01*
X155283051Y-101920463D01*
X154795436Y-102066867D01*
X154395318Y-102324020D01*
X154202801Y-102516018D01*
X154071376Y-102675190D01*
X153963435Y-102836769D01*
X153876691Y-103018633D01*
X153808858Y-103238661D01*
X153757646Y-103514731D01*
X153720770Y-103864722D01*
X153695942Y-104306512D01*
X153680874Y-104857980D01*
X153673280Y-105537005D01*
X153670872Y-106361465D01*
X153670827Y-106674200D01*
X152738666Y-106674200D01*
X152738666Y-101896333D01*
X151045333Y-101896333D01*
X150114000Y-101896333D01*
X148420666Y-101896333D01*
X148420666Y-103970667D01*
X148417769Y-104543157D01*
X148409624Y-105055120D01*
X148397053Y-105483655D01*
X148380875Y-105805863D01*
X148361911Y-105998844D01*
X148346329Y-106045000D01*
X148310611Y-105965471D01*
X148249162Y-105741770D01*
X148167096Y-105396226D01*
X148069528Y-104951167D01*
X147961573Y-104428920D01*
X147871189Y-103970667D01*
X147470385Y-101896333D01*
X145626666Y-101896333D01*
X142993524Y-101896333D01*
X142876723Y-101880984D01*
X142508855Y-101871027D01*
X142451666Y-101870933D01*
X142066806Y-101878561D01*
X141787391Y-101910121D01*
X141549885Y-101978627D01*
X141290755Y-102097091D01*
X141252889Y-102116467D01*
X140938220Y-102304284D01*
X140716567Y-102516424D01*
X140517318Y-102820797D01*
X140513430Y-102827667D01*
X140250333Y-103293333D01*
X140222740Y-106214333D01*
X140216775Y-107199812D01*
X139280911Y-107199812D01*
X139277883Y-107174203D01*
X139220713Y-106934249D01*
X139141166Y-106758906D01*
X139035556Y-106627239D01*
X138900195Y-106518312D01*
X138882262Y-106506101D01*
X138614859Y-106326338D01*
X138861529Y-106180626D01*
X139059720Y-106040629D01*
X139204132Y-105871328D01*
X139302747Y-105645171D01*
X139363549Y-105334604D01*
X139394518Y-104912074D01*
X139403639Y-104350027D01*
X139403666Y-104309333D01*
X139401479Y-103828572D01*
X139391691Y-103480452D01*
X139369464Y-103228304D01*
X139329961Y-103035459D01*
X139268342Y-102865247D01*
X139192000Y-102705099D01*
X139060644Y-102469434D01*
X138918758Y-102287295D01*
X138743103Y-102151342D01*
X138510435Y-102054237D01*
X138197516Y-101988641D01*
X137781102Y-101947214D01*
X137237954Y-101922618D01*
X136673166Y-101909708D01*
X135043333Y-101880750D01*
X135043333Y-111125000D01*
X133180666Y-111125000D01*
X133180666Y-103674333D01*
X134281333Y-103674333D01*
X134281333Y-102829280D01*
X134279197Y-102444018D01*
X134268136Y-102195410D01*
X134241173Y-102050786D01*
X134191328Y-101977478D01*
X134111623Y-101942817D01*
X134090833Y-101937487D01*
X133951170Y-101924559D01*
X133670592Y-101915309D01*
X133277485Y-101910067D01*
X132800234Y-101909160D01*
X132267225Y-101912917D01*
X132122333Y-101914708D01*
X130344333Y-101938667D01*
X130320204Y-102806500D01*
X130296076Y-103674333D01*
X129719690Y-103674333D01*
X129686037Y-103406783D01*
X129594757Y-103052586D01*
X129460708Y-102768901D01*
X129274871Y-102523032D01*
X129229221Y-102473977D01*
X128829413Y-102173767D01*
X128312517Y-101973918D01*
X127703850Y-101883174D01*
X127504733Y-101878542D01*
X126889002Y-101928650D01*
X126395856Y-102081113D01*
X126004558Y-102348096D01*
X125694377Y-102741767D01*
X125545644Y-103028120D01*
X125493599Y-103147869D01*
X125451461Y-103266013D01*
X125418005Y-103401467D01*
X125392005Y-103573146D01*
X125372239Y-103799966D01*
X125357480Y-104100841D01*
X125346505Y-104494685D01*
X125338088Y-105000414D01*
X125331007Y-105636943D01*
X125324035Y-106423187D01*
X125323763Y-106455399D01*
X125317863Y-107274037D01*
X125315728Y-107941560D01*
X122607887Y-107941560D01*
X122592274Y-107230333D01*
X124375333Y-107230333D01*
X124375333Y-105537000D01*
X122597333Y-105537000D01*
X122597333Y-103674333D01*
X124465923Y-103674333D01*
X124441795Y-102806500D01*
X124417666Y-101938667D01*
X122618500Y-101915816D01*
X120819333Y-101892966D01*
X120819333Y-111125000D01*
X120057333Y-111125000D01*
X120057333Y-109685667D01*
X118194666Y-109685667D01*
X118194666Y-101890604D01*
X117284500Y-101914635D01*
X116374333Y-101938667D01*
X116352325Y-106426000D01*
X116348871Y-107284030D01*
X116347075Y-108092185D01*
X116346872Y-108834402D01*
X113652819Y-108834402D01*
X113641303Y-108309833D01*
X113617607Y-107230333D01*
X115400666Y-107230333D01*
X115400666Y-105537000D01*
X113622666Y-105537000D01*
X113622666Y-103674333D01*
X115491257Y-103674333D01*
X115467128Y-102806500D01*
X115443000Y-101938667D01*
X113643833Y-101915816D01*
X111844666Y-101892966D01*
X111844666Y-106494872D01*
X110066666Y-106494872D01*
X110066666Y-99610333D01*
X164826250Y-99610333D01*
X164877302Y-99800833D01*
G36*
X155899913Y-87184062D02*
G01*
X162856333Y-87206667D01*
X163273139Y-87411806D01*
X163772794Y-87733871D01*
X164203957Y-88158120D01*
X164518173Y-88636098D01*
X164537037Y-88675704D01*
X164576676Y-88765068D01*
X164610096Y-88857094D01*
X164637829Y-88966258D01*
X164660403Y-89107033D01*
X164678351Y-89293894D01*
X164692201Y-89541316D01*
X164702485Y-89863772D01*
X164709733Y-90275738D01*
X164714476Y-90791688D01*
X164717243Y-91426096D01*
X164718565Y-92193436D01*
X164718973Y-93108183D01*
X164719000Y-93641333D01*
X164719000Y-98213333D01*
X156829099Y-98234935D01*
X155688441Y-98237387D01*
X154596616Y-98238425D01*
X153565426Y-98238113D01*
X152606669Y-98236513D01*
X151732146Y-98233690D01*
X150953657Y-98229706D01*
X150283002Y-98224623D01*
X149731981Y-98218506D01*
X149312393Y-98211417D01*
X149036040Y-98203419D01*
X148914720Y-98194576D01*
X148910037Y-98192602D01*
X148905469Y-98099025D01*
X148902065Y-97850423D01*
X148899820Y-97461100D01*
X148898728Y-96945360D01*
X148898730Y-96914988D01*
X150368000Y-96914988D01*
X151828500Y-96886827D01*
X152372782Y-96874342D01*
X152776462Y-96858755D01*
X153068272Y-96836758D01*
X153276943Y-96805048D01*
X153431207Y-96760320D01*
X153559794Y-96699266D01*
X153585045Y-96684756D01*
X153957826Y-96369029D01*
X154221266Y-95924579D01*
X154346910Y-95506038D01*
X154377264Y-95257618D01*
X154399703Y-94847149D01*
X154414071Y-94281739D01*
X154420212Y-93568495D01*
X154419530Y-93308767D01*
X155626320Y-93308767D01*
X155627878Y-94011253D01*
X155641130Y-94582409D01*
X155669021Y-95041186D01*
X155714492Y-95406538D01*
X155780488Y-95697416D01*
X155869951Y-95932771D01*
X155985823Y-96131556D01*
X156131049Y-96312723D01*
X156252117Y-96439574D01*
X156581613Y-96710899D01*
X156941450Y-96876320D01*
X157375646Y-96949994D01*
X157841443Y-96950802D01*
X158224230Y-96913746D01*
X158519889Y-96830858D01*
X158809032Y-96679491D01*
X158810474Y-96678600D01*
X159185189Y-96368026D01*
X159422697Y-96013788D01*
X159639000Y-95593754D01*
X159664491Y-92864651D01*
X159669340Y-92017647D01*
X159667166Y-91289746D01*
X159658188Y-90691575D01*
X159642625Y-90233758D01*
X159620699Y-89926920D01*
X159601171Y-89805729D01*
X159398869Y-89311108D01*
X159088465Y-88941059D01*
X158663579Y-88690921D01*
X158117832Y-88556035D01*
X157858567Y-88533011D01*
X157203688Y-88554843D01*
X156666633Y-88695693D01*
X156242296Y-88958124D01*
X155925569Y-89344700D01*
X155817915Y-89557244D01*
X155772633Y-89677672D01*
X155736358Y-89820983D01*
X155707793Y-90007539D01*
X155685644Y-90257704D01*
X155668615Y-90591840D01*
X155655411Y-91030311D01*
X155644736Y-91593478D01*
X155635295Y-92301706D01*
X155633515Y-92456000D01*
X155626320Y-93308767D01*
X154419530Y-93308767D01*
X154417967Y-92714523D01*
X154415328Y-92399760D01*
X154407942Y-91660172D01*
X154400621Y-91069952D01*
X154391801Y-90609143D01*
X154379918Y-90257788D01*
X154363409Y-89995929D01*
X154340709Y-89803610D01*
X154310254Y-89660872D01*
X154270481Y-89547758D01*
X154219825Y-89444312D01*
X154177759Y-89368225D01*
X153921721Y-89030339D01*
X153627426Y-88798118D01*
X153492734Y-88728001D01*
X153354664Y-88677341D01*
X153183671Y-88642968D01*
X152950211Y-88621710D01*
X152624738Y-88610397D01*
X152177709Y-88605859D01*
X151828500Y-88605059D01*
X150368000Y-88603667D01*
X150368000Y-96914988D01*
X148898730Y-96914988D01*
X148898784Y-96317508D01*
X148899983Y-95591847D01*
X148902318Y-94782682D01*
X148905784Y-93904317D01*
X148910375Y-92971056D01*
X148912185Y-92645062D01*
X148943493Y-87161458D01*
X155899913Y-87184062D01*
G37*
X155899913Y-87184062D02*
X162856333Y-87206667D01*
X163273139Y-87411806D01*
X163772794Y-87733871D01*
X164203957Y-88158120D01*
X164518173Y-88636098D01*
X164537037Y-88675704D01*
X164576676Y-88765068D01*
X164610096Y-88857094D01*
X164637829Y-88966258D01*
X164660403Y-89107033D01*
X164678351Y-89293894D01*
X164692201Y-89541316D01*
X164702485Y-89863772D01*
X164709733Y-90275738D01*
X164714476Y-90791688D01*
X164717243Y-91426096D01*
X164718565Y-92193436D01*
X164718973Y-93108183D01*
X164719000Y-93641333D01*
X164719000Y-98213333D01*
X156829099Y-98234935D01*
X155688441Y-98237387D01*
X154596616Y-98238425D01*
X153565426Y-98238113D01*
X152606669Y-98236513D01*
X151732146Y-98233690D01*
X150953657Y-98229706D01*
X150283002Y-98224623D01*
X149731981Y-98218506D01*
X149312393Y-98211417D01*
X149036040Y-98203419D01*
X148914720Y-98194576D01*
X148910037Y-98192602D01*
X148905469Y-98099025D01*
X148902065Y-97850423D01*
X148899820Y-97461100D01*
X148898728Y-96945360D01*
X148898730Y-96914988D01*
X150368000Y-96914988D01*
X151828500Y-96886827D01*
X152372782Y-96874342D01*
X152776462Y-96858755D01*
X153068272Y-96836758D01*
X153276943Y-96805048D01*
X153431207Y-96760320D01*
X153559794Y-96699266D01*
X153585045Y-96684756D01*
X153957826Y-96369029D01*
X154221266Y-95924579D01*
X154346910Y-95506038D01*
X154377264Y-95257618D01*
X154399703Y-94847149D01*
X154414071Y-94281739D01*
X154420212Y-93568495D01*
X154419530Y-93308767D01*
X155626320Y-93308767D01*
X155627878Y-94011253D01*
X155641130Y-94582409D01*
X155669021Y-95041186D01*
X155714492Y-95406538D01*
X155780488Y-95697416D01*
X155869951Y-95932771D01*
X155985823Y-96131556D01*
X156131049Y-96312723D01*
X156252117Y-96439574D01*
X156581613Y-96710899D01*
X156941450Y-96876320D01*
X157375646Y-96949994D01*
X157841443Y-96950802D01*
X158224230Y-96913746D01*
X158519889Y-96830858D01*
X158809032Y-96679491D01*
X158810474Y-96678600D01*
X159185189Y-96368026D01*
X159422697Y-96013788D01*
X159639000Y-95593754D01*
X159664491Y-92864651D01*
X159669340Y-92017647D01*
X159667166Y-91289746D01*
X159658188Y-90691575D01*
X159642625Y-90233758D01*
X159620699Y-89926920D01*
X159601171Y-89805729D01*
X159398869Y-89311108D01*
X159088465Y-88941059D01*
X158663579Y-88690921D01*
X158117832Y-88556035D01*
X157858567Y-88533011D01*
X157203688Y-88554843D01*
X156666633Y-88695693D01*
X156242296Y-88958124D01*
X155925569Y-89344700D01*
X155817915Y-89557244D01*
X155772633Y-89677672D01*
X155736358Y-89820983D01*
X155707793Y-90007539D01*
X155685644Y-90257704D01*
X155668615Y-90591840D01*
X155655411Y-91030311D01*
X155644736Y-91593478D01*
X155635295Y-92301706D01*
X155633515Y-92456000D01*
X155626320Y-93308767D01*
X154419530Y-93308767D01*
X154417967Y-92714523D01*
X154415328Y-92399760D01*
X154407942Y-91660172D01*
X154400621Y-91069952D01*
X154391801Y-90609143D01*
X154379918Y-90257788D01*
X154363409Y-89995929D01*
X154340709Y-89803610D01*
X154310254Y-89660872D01*
X154270481Y-89547758D01*
X154219825Y-89444312D01*
X154177759Y-89368225D01*
X153921721Y-89030339D01*
X153627426Y-88798118D01*
X153492734Y-88728001D01*
X153354664Y-88677341D01*
X153183671Y-88642968D01*
X152950211Y-88621710D01*
X152624738Y-88610397D01*
X152177709Y-88605859D01*
X151828500Y-88605059D01*
X150368000Y-88603667D01*
X150368000Y-96914988D01*
X148898730Y-96914988D01*
X148898784Y-96317508D01*
X148899983Y-95591847D01*
X148902318Y-94782682D01*
X148905784Y-93904317D01*
X148910375Y-92971056D01*
X148912185Y-92645062D01*
X148943493Y-87161458D01*
X155899913Y-87184062D01*
G36*
X113623649Y-94442164D02*
G01*
X115337658Y-94465082D01*
X117051666Y-94488000D01*
X117051666Y-97451333D01*
X113556870Y-97473441D01*
X112658669Y-97478092D01*
X111916913Y-97479433D01*
X111318741Y-97477155D01*
X110851292Y-97470950D01*
X110501705Y-97460511D01*
X110257117Y-97445529D01*
X110104669Y-97425697D01*
X110031497Y-97400706D01*
X110021379Y-97388774D01*
X110015879Y-97290778D01*
X110011031Y-97035037D01*
X110006859Y-96633136D01*
X110003390Y-96096663D01*
X110000650Y-95437203D01*
X109998664Y-94666344D01*
X109997457Y-93795672D01*
X109997057Y-92836774D01*
X109997487Y-91801235D01*
X109998775Y-90700643D01*
X110000946Y-89546584D01*
X110002508Y-88900000D01*
X110024333Y-80518000D01*
X113580333Y-80518000D01*
X113623649Y-94442164D01*
G37*
X113623649Y-94442164D02*
X115337658Y-94465082D01*
X117051666Y-94488000D01*
X117051666Y-97451333D01*
X113556870Y-97473441D01*
X112658669Y-97478092D01*
X111916913Y-97479433D01*
X111318741Y-97477155D01*
X110851292Y-97470950D01*
X110501705Y-97460511D01*
X110257117Y-97445529D01*
X110104669Y-97425697D01*
X110031497Y-97400706D01*
X110021379Y-97388774D01*
X110015879Y-97290778D01*
X110011031Y-97035037D01*
X110006859Y-96633136D01*
X110003390Y-96096663D01*
X110000650Y-95437203D01*
X109998664Y-94666344D01*
X109997457Y-93795672D01*
X109997057Y-92836774D01*
X109997487Y-91801235D01*
X109998775Y-90700643D01*
X110000946Y-89546584D01*
X110002508Y-88900000D01*
X110024333Y-80518000D01*
X113580333Y-80518000D01*
X113623649Y-94442164D01*
G36*
X121768984Y-80496121D02*
G01*
X122121324Y-80511798D01*
X122309994Y-80537432D01*
X122343333Y-80558615D01*
X122425279Y-80597603D01*
X122660772Y-80625752D01*
X123034292Y-80641743D01*
X123359333Y-80645000D01*
X124375333Y-80645000D01*
X124375333Y-81830333D01*
X122428000Y-81830333D01*
X122428000Y-82846333D01*
X124375333Y-82846333D01*
X124375333Y-83947000D01*
X122343333Y-83947000D01*
X122343333Y-87079667D01*
X124375333Y-87079667D01*
X124375333Y-88265000D01*
X122428000Y-88265000D01*
X122428000Y-89281000D01*
X124375333Y-89281000D01*
X124375333Y-90381667D01*
X122343333Y-90381667D01*
X122343333Y-94191667D01*
X124375333Y-94191667D01*
X124375333Y-95292333D01*
X122428000Y-95292333D01*
X122428000Y-96308333D01*
X124375333Y-96308333D01*
X124375333Y-97493667D01*
X117509596Y-97493667D01*
X117559666Y-96350667D01*
X118173500Y-96325791D01*
X118787333Y-96300915D01*
X118787333Y-90381667D01*
X117517333Y-90381667D01*
X117517333Y-89281000D01*
X118787333Y-89281000D01*
X118787333Y-83947000D01*
X117517333Y-83947000D01*
X117517333Y-82846333D01*
X118782554Y-82846333D01*
X118806110Y-81682167D01*
X118829666Y-80518000D01*
X120586500Y-80495115D01*
X121256275Y-80490520D01*
X121768984Y-80496121D01*
G37*
X121768984Y-80496121D02*
X122121324Y-80511798D01*
X122309994Y-80537432D01*
X122343333Y-80558615D01*
X122425279Y-80597603D01*
X122660772Y-80625752D01*
X123034292Y-80641743D01*
X123359333Y-80645000D01*
X124375333Y-80645000D01*
X124375333Y-81830333D01*
X122428000Y-81830333D01*
X122428000Y-82846333D01*
X124375333Y-82846333D01*
X124375333Y-83947000D01*
X122343333Y-83947000D01*
X122343333Y-87079667D01*
X124375333Y-87079667D01*
X124375333Y-88265000D01*
X122428000Y-88265000D01*
X122428000Y-89281000D01*
X124375333Y-89281000D01*
X124375333Y-90381667D01*
X122343333Y-90381667D01*
X122343333Y-94191667D01*
X124375333Y-94191667D01*
X124375333Y-95292333D01*
X122428000Y-95292333D01*
X122428000Y-96308333D01*
X124375333Y-96308333D01*
X124375333Y-97493667D01*
X117509596Y-97493667D01*
X117559666Y-96350667D01*
X118173500Y-96325791D01*
X118787333Y-96300915D01*
X118787333Y-90381667D01*
X117517333Y-90381667D01*
X117517333Y-89281000D01*
X118787333Y-89281000D01*
X118787333Y-83947000D01*
X117517333Y-83947000D01*
X117517333Y-82846333D01*
X118782554Y-82846333D01*
X118806110Y-81682167D01*
X118829666Y-80518000D01*
X120586500Y-80495115D01*
X121256275Y-80490520D01*
X121768984Y-80496121D01*
G36*
X144221769Y-87698967D02*
G01*
X144803027Y-87897256D01*
X144860063Y-87925643D01*
X145337861Y-88264051D01*
X145707061Y-88721019D01*
X145956256Y-89276442D01*
X146074043Y-89910218D01*
X146081626Y-90078856D01*
X146092333Y-90678000D01*
X143637000Y-90678000D01*
X143593775Y-90212333D01*
X143548859Y-89867038D01*
X143481669Y-89659837D01*
X143375271Y-89559577D01*
X143225603Y-89535000D01*
X142987216Y-89599893D01*
X142857933Y-89794067D01*
X142832666Y-89998761D01*
X142848184Y-90172389D01*
X142907461Y-90332998D01*
X143029582Y-90501830D01*
X143233633Y-90700131D01*
X143538698Y-90949142D01*
X143963862Y-91270108D01*
X143996614Y-91294340D01*
X144625531Y-91779497D01*
X145120012Y-92211974D01*
X145497477Y-92614014D01*
X145775345Y-93007865D01*
X145971035Y-93415770D01*
X146101968Y-93859975D01*
X146135233Y-94025458D01*
X146195135Y-94746565D01*
X146113322Y-95422665D01*
X145898577Y-96034649D01*
X145559685Y-96563410D01*
X145105428Y-96989842D01*
X144653000Y-97249762D01*
X144266115Y-97368690D01*
X143773665Y-97445217D01*
X143234656Y-97476826D01*
X142708090Y-97461001D01*
X142252973Y-97395226D01*
X142115317Y-97357985D01*
X141521153Y-97094266D01*
X141053668Y-96721781D01*
X140711478Y-96238249D01*
X140493194Y-95641390D01*
X140397432Y-94928923D01*
X140395067Y-94528467D01*
X140419666Y-93726000D01*
X141520333Y-93712080D01*
X141990225Y-93712992D01*
X142366135Y-93727518D01*
X142621952Y-93754058D01*
X142726833Y-93785947D01*
X142788498Y-93929897D01*
X142823960Y-94232452D01*
X142832666Y-94576986D01*
X142850723Y-95016754D01*
X142910610Y-95310816D01*
X143020899Y-95479501D01*
X143190163Y-95543139D01*
X143240880Y-95545037D01*
X143438743Y-95510495D01*
X143559799Y-95392200D01*
X143619996Y-95161538D01*
X143635310Y-94837297D01*
X143624438Y-94537494D01*
X143576193Y-94294478D01*
X143470261Y-94077244D01*
X143286330Y-93854788D01*
X143004086Y-93596107D01*
X142614353Y-93279022D01*
X142004149Y-92787797D01*
X141518319Y-92374079D01*
X141142886Y-92017739D01*
X140863874Y-91698649D01*
X140667306Y-91396679D01*
X140539205Y-91091702D01*
X140465595Y-90763587D01*
X140432498Y-90392206D01*
X140426163Y-90127667D01*
X140445972Y-89587141D01*
X140527050Y-89166309D01*
X140686971Y-88821265D01*
X140943308Y-88508103D01*
X141150861Y-88317108D01*
X141647241Y-87993617D01*
X142244447Y-87765633D01*
X142900553Y-87637580D01*
X143573636Y-87613883D01*
X144221769Y-87698967D01*
G37*
X144221769Y-87698967D02*
X144803027Y-87897256D01*
X144860063Y-87925643D01*
X145337861Y-88264051D01*
X145707061Y-88721019D01*
X145956256Y-89276442D01*
X146074043Y-89910218D01*
X146081626Y-90078856D01*
X146092333Y-90678000D01*
X143637000Y-90678000D01*
X143593775Y-90212333D01*
X143548859Y-89867038D01*
X143481669Y-89659837D01*
X143375271Y-89559577D01*
X143225603Y-89535000D01*
X142987216Y-89599893D01*
X142857933Y-89794067D01*
X142832666Y-89998761D01*
X142848184Y-90172389D01*
X142907461Y-90332998D01*
X143029582Y-90501830D01*
X143233633Y-90700131D01*
X143538698Y-90949142D01*
X143963862Y-91270108D01*
X143996614Y-91294340D01*
X144625531Y-91779497D01*
X145120012Y-92211974D01*
X145497477Y-92614014D01*
X145775345Y-93007865D01*
X145971035Y-93415770D01*
X146101968Y-93859975D01*
X146135233Y-94025458D01*
X146195135Y-94746565D01*
X146113322Y-95422665D01*
X145898577Y-96034649D01*
X145559685Y-96563410D01*
X145105428Y-96989842D01*
X144653000Y-97249762D01*
X144266115Y-97368690D01*
X143773665Y-97445217D01*
X143234656Y-97476826D01*
X142708090Y-97461001D01*
X142252973Y-97395226D01*
X142115317Y-97357985D01*
X141521153Y-97094266D01*
X141053668Y-96721781D01*
X140711478Y-96238249D01*
X140493194Y-95641390D01*
X140397432Y-94928923D01*
X140395067Y-94528467D01*
X140419666Y-93726000D01*
X141520333Y-93712080D01*
X141990225Y-93712992D01*
X142366135Y-93727518D01*
X142621952Y-93754058D01*
X142726833Y-93785947D01*
X142788498Y-93929897D01*
X142823960Y-94232452D01*
X142832666Y-94576986D01*
X142850723Y-95016754D01*
X142910610Y-95310816D01*
X143020899Y-95479501D01*
X143190163Y-95543139D01*
X143240880Y-95545037D01*
X143438743Y-95510495D01*
X143559799Y-95392200D01*
X143619996Y-95161538D01*
X143635310Y-94837297D01*
X143624438Y-94537494D01*
X143576193Y-94294478D01*
X143470261Y-94077244D01*
X143286330Y-93854788D01*
X143004086Y-93596107D01*
X142614353Y-93279022D01*
X142004149Y-92787797D01*
X141518319Y-92374079D01*
X141142886Y-92017739D01*
X140863874Y-91698649D01*
X140667306Y-91396679D01*
X140539205Y-91091702D01*
X140465595Y-90763587D01*
X140432498Y-90392206D01*
X140426163Y-90127667D01*
X140445972Y-89587141D01*
X140527050Y-89166309D01*
X140686971Y-88821265D01*
X140943308Y-88508103D01*
X141150861Y-88317108D01*
X141647241Y-87993617D01*
X142244447Y-87765633D01*
X142900553Y-87637580D01*
X143573636Y-87613883D01*
X144221769Y-87698967D01*
G36*
X133763333Y-80491892D02*
G01*
X136694333Y-80518000D01*
X137244666Y-80781284D01*
X137848381Y-81140431D01*
X138325099Y-81587408D01*
X138689834Y-82141310D01*
X138957599Y-82821230D01*
X139016731Y-83034794D01*
X139051278Y-83179322D01*
X139080721Y-83331226D01*
X139105525Y-83504970D01*
X139126155Y-83715022D01*
X139143076Y-83975845D01*
X139156753Y-84301905D01*
X139167651Y-84707668D01*
X139176235Y-85207598D01*
X139182971Y-85816162D01*
X139188322Y-86547823D01*
X139192756Y-87417049D01*
X139196735Y-88438303D01*
X139197503Y-88657832D01*
X139200733Y-89722380D01*
X139202290Y-90632063D01*
X139201850Y-91401345D01*
X139199092Y-92044690D01*
X139193694Y-92576561D01*
X139185331Y-93011421D01*
X139173682Y-93363734D01*
X139158425Y-93647963D01*
X139139236Y-93878573D01*
X139115794Y-94070025D01*
X139087775Y-94236784D01*
X139071264Y-94318667D01*
X138837303Y-95138698D01*
X138510540Y-95842033D01*
X138098022Y-96417170D01*
X137606799Y-96852605D01*
X137462269Y-96944331D01*
X137235664Y-97065873D01*
X136998938Y-97164547D01*
X136732076Y-97242647D01*
X136415067Y-97302468D01*
X136027896Y-97346308D01*
X135550551Y-97376462D01*
X134963017Y-97395226D01*
X134245283Y-97404895D01*
X133422558Y-97407748D01*
X132683926Y-97407280D01*
X132097119Y-97404499D01*
X131644633Y-97398527D01*
X131308965Y-97388487D01*
X131072611Y-97373501D01*
X130918069Y-97352691D01*
X130827837Y-97325180D01*
X130784409Y-97290090D01*
X130776725Y-97275075D01*
X130768567Y-97170538D01*
X130761156Y-96910856D01*
X130754490Y-96510213D01*
X130748566Y-95982797D01*
X130743381Y-95342792D01*
X130738932Y-94604385D01*
X130737451Y-94276333D01*
X134366000Y-94276333D01*
X134649699Y-94276333D01*
X134945198Y-94246027D01*
X135201819Y-94182761D01*
X135413472Y-94072782D01*
X135551455Y-93937361D01*
X135553120Y-93934327D01*
X135571596Y-93816113D01*
X135587790Y-93547237D01*
X135601714Y-93146357D01*
X135613382Y-92632128D01*
X135622806Y-92023207D01*
X135630001Y-91338250D01*
X135634979Y-90595913D01*
X135637754Y-89814854D01*
X135638339Y-89013728D01*
X135636747Y-88211192D01*
X135632992Y-87425901D01*
X135627086Y-86676514D01*
X135619044Y-85981685D01*
X135608878Y-85360072D01*
X135596601Y-84830331D01*
X135582228Y-84411118D01*
X135565770Y-84121089D01*
X135547242Y-83978901D01*
X135546036Y-83975401D01*
X135450856Y-83780781D01*
X135320430Y-83670153D01*
X135108870Y-83620698D01*
X134810500Y-83609630D01*
X134366000Y-83608333D01*
X134366000Y-94276333D01*
X130737451Y-94276333D01*
X130735217Y-93781763D01*
X130732232Y-92889109D01*
X130729975Y-91940611D01*
X130728444Y-90950455D01*
X130727634Y-89932826D01*
X130727544Y-88901910D01*
X130728171Y-87871894D01*
X130729512Y-86856962D01*
X130731564Y-85871302D01*
X130734324Y-84929098D01*
X130737790Y-84044537D01*
X130741958Y-83231805D01*
X130746827Y-82505087D01*
X130752393Y-81878570D01*
X130758653Y-81366439D01*
X130765605Y-80982881D01*
X130773246Y-80742080D01*
X130779989Y-80661226D01*
X130832333Y-80465786D01*
X133763333Y-80491892D01*
G37*
X133763333Y-80491892D02*
X136694333Y-80518000D01*
X137244666Y-80781284D01*
X137848381Y-81140431D01*
X138325099Y-81587408D01*
X138689834Y-82141310D01*
X138957599Y-82821230D01*
X139016731Y-83034794D01*
X139051278Y-83179322D01*
X139080721Y-83331226D01*
X139105525Y-83504970D01*
X139126155Y-83715022D01*
X139143076Y-83975845D01*
X139156753Y-84301905D01*
X139167651Y-84707668D01*
X139176235Y-85207598D01*
X139182971Y-85816162D01*
X139188322Y-86547823D01*
X139192756Y-87417049D01*
X139196735Y-88438303D01*
X139197503Y-88657832D01*
X139200733Y-89722380D01*
X139202290Y-90632063D01*
X139201850Y-91401345D01*
X139199092Y-92044690D01*
X139193694Y-92576561D01*
X139185331Y-93011421D01*
X139173682Y-93363734D01*
X139158425Y-93647963D01*
X139139236Y-93878573D01*
X139115794Y-94070025D01*
X139087775Y-94236784D01*
X139071264Y-94318667D01*
X138837303Y-95138698D01*
X138510540Y-95842033D01*
X138098022Y-96417170D01*
X137606799Y-96852605D01*
X137462269Y-96944331D01*
X137235664Y-97065873D01*
X136998938Y-97164547D01*
X136732076Y-97242647D01*
X136415067Y-97302468D01*
X136027896Y-97346308D01*
X135550551Y-97376462D01*
X134963017Y-97395226D01*
X134245283Y-97404895D01*
X133422558Y-97407748D01*
X132683926Y-97407280D01*
X132097119Y-97404499D01*
X131644633Y-97398527D01*
X131308965Y-97388487D01*
X131072611Y-97373501D01*
X130918069Y-97352691D01*
X130827837Y-97325180D01*
X130784409Y-97290090D01*
X130776725Y-97275075D01*
X130768567Y-97170538D01*
X130761156Y-96910856D01*
X130754490Y-96510213D01*
X130748566Y-95982797D01*
X130743381Y-95342792D01*
X130738932Y-94604385D01*
X130737451Y-94276333D01*
X134366000Y-94276333D01*
X134649699Y-94276333D01*
X134945198Y-94246027D01*
X135201819Y-94182761D01*
X135413472Y-94072782D01*
X135551455Y-93937361D01*
X135553120Y-93934327D01*
X135571596Y-93816113D01*
X135587790Y-93547237D01*
X135601714Y-93146357D01*
X135613382Y-92632128D01*
X135622806Y-92023207D01*
X135630001Y-91338250D01*
X135634979Y-90595913D01*
X135637754Y-89814854D01*
X135638339Y-89013728D01*
X135636747Y-88211192D01*
X135632992Y-87425901D01*
X135627086Y-86676514D01*
X135619044Y-85981685D01*
X135608878Y-85360072D01*
X135596601Y-84830331D01*
X135582228Y-84411118D01*
X135565770Y-84121089D01*
X135547242Y-83978901D01*
X135546036Y-83975401D01*
X135450856Y-83780781D01*
X135320430Y-83670153D01*
X135108870Y-83620698D01*
X134810500Y-83609630D01*
X134366000Y-83608333D01*
X134366000Y-94276333D01*
X130737451Y-94276333D01*
X130735217Y-93781763D01*
X130732232Y-92889109D01*
X130729975Y-91940611D01*
X130728444Y-90950455D01*
X130727634Y-89932826D01*
X130727544Y-88901910D01*
X130728171Y-87871894D01*
X130729512Y-86856962D01*
X130731564Y-85871302D01*
X130734324Y-84929098D01*
X130737790Y-84044537D01*
X130741958Y-83231805D01*
X130746827Y-82505087D01*
X130752393Y-81878570D01*
X130758653Y-81366439D01*
X130765605Y-80982881D01*
X130773246Y-80742080D01*
X130779989Y-80661226D01*
X130832333Y-80465786D01*
X133763333Y-80491892D01*
G36*
X142031674Y-82789174D02*
G01*
X142286203Y-82819661D01*
X142376619Y-82854317D01*
X142434665Y-82956527D01*
X142471617Y-83163430D01*
X142490291Y-83498551D01*
X142494000Y-83835159D01*
X142489455Y-84253430D01*
X142468188Y-84563680D01*
X142418751Y-84827140D01*
X142329695Y-85105041D01*
X142191215Y-85454626D01*
X142009945Y-85891834D01*
X141870266Y-86196916D01*
X141747532Y-86393585D01*
X141617095Y-86505555D01*
X141454307Y-86556539D01*
X141234521Y-86570253D01*
X141031548Y-86570370D01*
X140711334Y-86559195D01*
X140448601Y-86531045D01*
X140297824Y-86491882D01*
X140294062Y-86489654D01*
X140234199Y-86429433D01*
X140216833Y-86325156D01*
X140243759Y-86138677D01*
X140316769Y-85831850D01*
X140326835Y-85792451D01*
X140408799Y-85478986D01*
X140478406Y-85223967D01*
X140522032Y-85077147D01*
X140524997Y-85068833D01*
X140494130Y-84999512D01*
X140322722Y-84967043D01*
X140172195Y-84963000D01*
X139779607Y-84963000D01*
X139803303Y-83883500D01*
X139827000Y-82804000D01*
X141043119Y-82780450D01*
X141619043Y-82776199D01*
X142031674Y-82789174D01*
G37*
X142031674Y-82789174D02*
X142286203Y-82819661D01*
X142376619Y-82854317D01*
X142434665Y-82956527D01*
X142471617Y-83163430D01*
X142490291Y-83498551D01*
X142494000Y-83835159D01*
X142489455Y-84253430D01*
X142468188Y-84563680D01*
X142418751Y-84827140D01*
X142329695Y-85105041D01*
X142191215Y-85454626D01*
X142009945Y-85891834D01*
X141870266Y-86196916D01*
X141747532Y-86393585D01*
X141617095Y-86505555D01*
X141454307Y-86556539D01*
X141234521Y-86570253D01*
X141031548Y-86570370D01*
X140711334Y-86559195D01*
X140448601Y-86531045D01*
X140297824Y-86491882D01*
X140294062Y-86489654D01*
X140234199Y-86429433D01*
X140216833Y-86325156D01*
X140243759Y-86138677D01*
X140316769Y-85831850D01*
X140326835Y-85792451D01*
X140408799Y-85478986D01*
X140478406Y-85223967D01*
X140522032Y-85077147D01*
X140524997Y-85068833D01*
X140494130Y-84999512D01*
X140322722Y-84967043D01*
X140172195Y-84963000D01*
X139779607Y-84963000D01*
X139803303Y-83883500D01*
X139827000Y-82804000D01*
X141043119Y-82780450D01*
X141619043Y-82776199D01*
X142031674Y-82789174D01*
G36*
X142614932Y-103546115D02*
G01*
X142785532Y-103693172D01*
X142823264Y-103767694D01*
X142853197Y-103883671D01*
X142876172Y-104059238D01*
X142893029Y-104312528D01*
X142904610Y-104661674D01*
X142911755Y-105124810D01*
X142915306Y-105720068D01*
X142916103Y-106465584D01*
X142916085Y-106508339D01*
X142913651Y-107319122D01*
X142906862Y-107973896D01*
X142895213Y-108485937D01*
X142878200Y-108868526D01*
X142855320Y-109134942D01*
X142826067Y-109298463D01*
X142808290Y-109347000D01*
X142638101Y-109528956D01*
X142411498Y-109584407D01*
X142188748Y-109504189D01*
X142129749Y-109450174D01*
X142089941Y-109392368D01*
X142058156Y-109304499D01*
X142033510Y-109168653D01*
X142015119Y-108966913D01*
X142002098Y-108681367D01*
X141993562Y-108294097D01*
X141988629Y-107787190D01*
X141986412Y-107142732D01*
X141986000Y-106538289D01*
X141986551Y-105779591D01*
X141988845Y-105172267D01*
X141993843Y-104698360D01*
X142002506Y-104339913D01*
X142015795Y-104078967D01*
X142034671Y-103897565D01*
X142060095Y-103777751D01*
X142093029Y-103701566D01*
X142134432Y-103651053D01*
X142140833Y-103645122D01*
X142379028Y-103519232D01*
X142614932Y-103546115D01*
G37*
X142614932Y-103546115D02*
X142785532Y-103693172D01*
X142823264Y-103767694D01*
X142853197Y-103883671D01*
X142876172Y-104059238D01*
X142893029Y-104312528D01*
X142904610Y-104661674D01*
X142911755Y-105124810D01*
X142915306Y-105720068D01*
X142916103Y-106465584D01*
X142916085Y-106508339D01*
X142913651Y-107319122D01*
X142906862Y-107973896D01*
X142895213Y-108485937D01*
X142878200Y-108868526D01*
X142855320Y-109134942D01*
X142826067Y-109298463D01*
X142808290Y-109347000D01*
X142638101Y-109528956D01*
X142411498Y-109584407D01*
X142188748Y-109504189D01*
X142129749Y-109450174D01*
X142089941Y-109392368D01*
X142058156Y-109304499D01*
X142033510Y-109168653D01*
X142015119Y-108966913D01*
X142002098Y-108681367D01*
X141993562Y-108294097D01*
X141988629Y-107787190D01*
X141986412Y-107142732D01*
X141986000Y-106538289D01*
X141986551Y-105779591D01*
X141988845Y-105172267D01*
X141993843Y-104698360D01*
X142002506Y-104339913D01*
X142015795Y-104078967D01*
X142034671Y-103897565D01*
X142060095Y-103777751D01*
X142093029Y-103701566D01*
X142134432Y-103651053D01*
X142140833Y-103645122D01*
X142379028Y-103519232D01*
X142614932Y-103546115D01*
G36*
X137413427Y-103625322D02*
G01*
X137584416Y-103718094D01*
X137587592Y-103721799D01*
X137681274Y-103932310D01*
X137729930Y-104243921D01*
X137731139Y-104593843D01*
X137682480Y-104919291D01*
X137638923Y-105052665D01*
X137537083Y-105256606D01*
X137416209Y-105346121D01*
X137206588Y-105367481D01*
X137164320Y-105367667D01*
X136821333Y-105367667D01*
X136821333Y-103589667D01*
X137149633Y-103589667D01*
X137413427Y-103625322D01*
G37*
X137413427Y-103625322D02*
X137584416Y-103718094D01*
X137587592Y-103721799D01*
X137681274Y-103932310D01*
X137729930Y-104243921D01*
X137731139Y-104593843D01*
X137682480Y-104919291D01*
X137638923Y-105052665D01*
X137537083Y-105256606D01*
X137416209Y-105346121D01*
X137206588Y-105367481D01*
X137164320Y-105367667D01*
X136821333Y-105367667D01*
X136821333Y-103589667D01*
X137149633Y-103589667D01*
X137413427Y-103625322D01*
G36*
X157934129Y-90053244D02*
G01*
X157985021Y-90122100D01*
X158012144Y-90259478D01*
X158034744Y-90554559D01*
X158052433Y-90995761D01*
X158064824Y-91571504D01*
X158071531Y-92270209D01*
X158072666Y-92746767D01*
X158072163Y-93458241D01*
X158069819Y-94019793D01*
X158064385Y-94450834D01*
X158054612Y-94770776D01*
X158039250Y-94999028D01*
X158017049Y-95155003D01*
X157986759Y-95258109D01*
X157947131Y-95327760D01*
X157903333Y-95377000D01*
X157751700Y-95501308D01*
X157649333Y-95546333D01*
X157532530Y-95491684D01*
X157395333Y-95377000D01*
X157346191Y-95320477D01*
X157307591Y-95247567D01*
X157278265Y-95138747D01*
X157256943Y-94974497D01*
X157242357Y-94735295D01*
X157233240Y-94401622D01*
X157228321Y-93953956D01*
X157226333Y-93372776D01*
X157226000Y-92771172D01*
X157227167Y-92046479D01*
X157231300Y-91472226D01*
X157239348Y-91029532D01*
X157252259Y-90699515D01*
X157270981Y-90463294D01*
X157296462Y-90301989D01*
X157329650Y-90196717D01*
X157357800Y-90146505D01*
X157538575Y-89998259D01*
X157751410Y-89966365D01*
X157934129Y-90053244D01*
G37*
X157934129Y-90053244D02*
X157985021Y-90122100D01*
X158012144Y-90259478D01*
X158034744Y-90554559D01*
X158052433Y-90995761D01*
X158064824Y-91571504D01*
X158071531Y-92270209D01*
X158072666Y-92746767D01*
X158072163Y-93458241D01*
X158069819Y-94019793D01*
X158064385Y-94450834D01*
X158054612Y-94770776D01*
X158039250Y-94999028D01*
X158017049Y-95155003D01*
X157986759Y-95258109D01*
X157947131Y-95327760D01*
X157903333Y-95377000D01*
X157751700Y-95501308D01*
X157649333Y-95546333D01*
X157532530Y-95491684D01*
X157395333Y-95377000D01*
X157346191Y-95320477D01*
X157307591Y-95247567D01*
X157278265Y-95138747D01*
X157256943Y-94974497D01*
X157242357Y-94735295D01*
X157233240Y-94401622D01*
X157228321Y-93953956D01*
X157226333Y-93372776D01*
X157226000Y-92771172D01*
X157227167Y-92046479D01*
X157231300Y-91472226D01*
X157239348Y-91029532D01*
X157252259Y-90699515D01*
X157270981Y-90463294D01*
X157296462Y-90301989D01*
X157329650Y-90196717D01*
X157357800Y-90146505D01*
X157538575Y-89998259D01*
X157751410Y-89966365D01*
X157934129Y-90053244D01*
G36*
X152519510Y-90008123D02*
G01*
X152661487Y-90092109D01*
X152708411Y-90143329D01*
X152745296Y-90215085D01*
X152773342Y-90326639D01*
X152793752Y-90497251D01*
X152807727Y-90746183D01*
X152816468Y-91092695D01*
X152821178Y-91556047D01*
X152823057Y-92155502D01*
X152823333Y-92686355D01*
X152820229Y-93450915D01*
X152811179Y-94099888D01*
X152796575Y-94621579D01*
X152776811Y-95004293D01*
X152752277Y-95236334D01*
X152735687Y-95297899D01*
X152611391Y-95416422D01*
X152381487Y-95460304D01*
X152311181Y-95461667D01*
X151974320Y-95461667D01*
X152019000Y-90000667D01*
X152259320Y-89973154D01*
X152519510Y-90008123D01*
G37*
X152519510Y-90008123D02*
X152661487Y-90092109D01*
X152708411Y-90143329D01*
X152745296Y-90215085D01*
X152773342Y-90326639D01*
X152793752Y-90497251D01*
X152807727Y-90746183D01*
X152816468Y-91092695D01*
X152821178Y-91556047D01*
X152823057Y-92155502D01*
X152823333Y-92686355D01*
X152820229Y-93450915D01*
X152811179Y-94099888D01*
X152796575Y-94621579D01*
X152776811Y-95004293D01*
X152752277Y-95236334D01*
X152735687Y-95297899D01*
X152611391Y-95416422D01*
X152381487Y-95460304D01*
X152311181Y-95461667D01*
X151974320Y-95461667D01*
X152019000Y-90000667D01*
X152259320Y-89973154D01*
X152519510Y-90008123D01*
D11*
%TO.C,D1*%
X124567000Y-80624000D02*
X124567000Y-83714000D01*
X129627000Y-82169000D02*
G75*
G03*
X129627000Y-82169000I-2500000J0D01*
G01*
X130117000Y-82169462D02*
G75*
G03*
X124567000Y-80624170I-2990000J462D01*
G01*
X130117000Y-82168538D02*
G75*
G02*
X124567000Y-83713830I-2990000J-462D01*
G01*
%TO.C,D2*%
X130117000Y-95503538D02*
G75*
G02*
X124567000Y-97048830I-2990000J-462D01*
G01*
X130117000Y-95504462D02*
G75*
G03*
X124567000Y-93959170I-2990000J462D01*
G01*
X129627000Y-95504000D02*
G75*
G03*
X129627000Y-95504000I-2500000J0D01*
G01*
X124567000Y-93959000D02*
X124567000Y-97049000D01*
%TO.C,D3*%
X124567000Y-87228000D02*
X124567000Y-90318000D01*
X129627000Y-88773000D02*
G75*
G03*
X129627000Y-88773000I-2500000J0D01*
G01*
X130117000Y-88773462D02*
G75*
G03*
X124567000Y-87228170I-2990000J462D01*
G01*
X130117000Y-88772538D02*
G75*
G02*
X124567000Y-90317830I-2990000J-462D01*
G01*
%TO.C,D1*%
D12*
X126388904Y-78661380D02*
X126388904Y-77661380D01*
X126627000Y-77661380D01*
X126769857Y-77709000D01*
X126865095Y-77804238D01*
X126912714Y-77899476D01*
X126960333Y-78089952D01*
X126960333Y-78232809D01*
X126912714Y-78423285D01*
X126865095Y-78518523D01*
X126769857Y-78613761D01*
X126627000Y-78661380D01*
X126388904Y-78661380D01*
X127912714Y-78661380D02*
X127341285Y-78661380D01*
X127627000Y-78661380D02*
X127627000Y-77661380D01*
X127531761Y-77804238D01*
X127436523Y-77899476D01*
X127341285Y-77947095D01*
%TO.C,D2*%
X126388904Y-91996380D02*
X126388904Y-90996380D01*
X126627000Y-90996380D01*
X126769857Y-91044000D01*
X126865095Y-91139238D01*
X126912714Y-91234476D01*
X126960333Y-91424952D01*
X126960333Y-91567809D01*
X126912714Y-91758285D01*
X126865095Y-91853523D01*
X126769857Y-91948761D01*
X126627000Y-91996380D01*
X126388904Y-91996380D01*
X127341285Y-91091619D02*
X127388904Y-91044000D01*
X127484142Y-90996380D01*
X127722238Y-90996380D01*
X127817476Y-91044000D01*
X127865095Y-91091619D01*
X127912714Y-91186857D01*
X127912714Y-91282095D01*
X127865095Y-91424952D01*
X127293666Y-91996380D01*
X127912714Y-91996380D01*
%TO.C,D3*%
X126388904Y-85265380D02*
X126388904Y-84265380D01*
X126627000Y-84265380D01*
X126769857Y-84313000D01*
X126865095Y-84408238D01*
X126912714Y-84503476D01*
X126960333Y-84693952D01*
X126960333Y-84836809D01*
X126912714Y-85027285D01*
X126865095Y-85122523D01*
X126769857Y-85217761D01*
X126627000Y-85265380D01*
X126388904Y-85265380D01*
X127293666Y-84265380D02*
X127912714Y-84265380D01*
X127579380Y-84646333D01*
X127722238Y-84646333D01*
X127817476Y-84693952D01*
X127865095Y-84741571D01*
X127912714Y-84836809D01*
X127912714Y-85074904D01*
X127865095Y-85170142D01*
X127817476Y-85217761D01*
X127722238Y-85265380D01*
X127436523Y-85265380D01*
X127341285Y-85217761D01*
X127293666Y-85170142D01*
%TD*%
M02*
