%TF.GenerationSoftware,KiCad,Pcbnew,(5.1.6)-1*%
%TF.CreationDate,2020-09-30T19:57:20-06:00*%
%TF.ProjectId,PCB_LDE,5043425f-4c44-4452-9e6b-696361645f70,v1.0*%
%TF.SameCoordinates,Original*%
%TF.FileFunction,Profile,NP*%
%FSLAX46Y46*%
G04 Gerber Fmt 4.6, Leading zero omitted, Abs format (unit mm)*
G04 Created by KiCad (PCBNEW (5.1.6)-1) date 2020-09-30 19:57:20*
%MOMM*%
%LPD*%
G01*
G04 APERTURE LIST*
%TA.AperFunction,Profile*%
%ADD10C,0.200000*%
%TD*%
G04 APERTURE END LIST*
D10*
X137656645Y-75834282D02*
X137410923Y-75769325D01*
X137410923Y-75769325D02*
X137163907Y-75711081D01*
X137163907Y-75711081D02*
X136915694Y-75659558D01*
X136915694Y-75659558D02*
X136666380Y-75614764D01*
X136666380Y-75614764D02*
X136416061Y-75576708D01*
X136416061Y-75576708D02*
X136164833Y-75545398D01*
X136164833Y-75545398D02*
X135912793Y-75520843D01*
X135912793Y-75520843D02*
X135660037Y-75503052D01*
X135660037Y-75503052D02*
X135406661Y-75492032D01*
X135406661Y-75492032D02*
X135152761Y-75487793D01*
X135152761Y-75487793D02*
X134983251Y-75488739D01*
X137744495Y-75859776D02*
X137656645Y-75834282D01*
X146424758Y-82752637D02*
X146424758Y-82410625D01*
X168692951Y-98018135D02*
X168715023Y-97807355D01*
X168715023Y-97807355D02*
X168726928Y-97618655D01*
X141843125Y-77827615D02*
X140973992Y-77827615D01*
X148621006Y-82178081D02*
X148404004Y-82183417D01*
X148404004Y-82183417D02*
X148188216Y-82199308D01*
X148188216Y-82199308D02*
X147974016Y-82225576D01*
X147974016Y-82225576D02*
X147761780Y-82262042D01*
X147761780Y-82262042D02*
X147551882Y-82308528D01*
X147551882Y-82308528D02*
X147344699Y-82364857D01*
X147344699Y-82364857D02*
X147140605Y-82430851D01*
X147140605Y-82430851D02*
X146939976Y-82506331D01*
X146939976Y-82506331D02*
X146743187Y-82591120D01*
X146743187Y-82591120D02*
X146550613Y-82685039D01*
X146550613Y-82685039D02*
X146424758Y-82752637D01*
X148749164Y-82178081D02*
X148621006Y-82178081D01*
X164854985Y-82920844D02*
X164666418Y-82830124D01*
X164666418Y-82830124D02*
X164475568Y-82745407D01*
X164475568Y-82745407D02*
X164282340Y-82666672D01*
X164282340Y-82666672D02*
X164086637Y-82593898D01*
X164086637Y-82593898D02*
X163888364Y-82527066D01*
X163888364Y-82527066D02*
X163687426Y-82466153D01*
X163687426Y-82466153D02*
X163483728Y-82411140D01*
X163483728Y-82411140D02*
X163277174Y-82362006D01*
X163277174Y-82362006D02*
X163067669Y-82318729D01*
X163067669Y-82318729D02*
X162855117Y-82281290D01*
X162855117Y-82281290D02*
X162639423Y-82249668D01*
X162639423Y-82249668D02*
X162420492Y-82223841D01*
X162420492Y-82223841D02*
X162198228Y-82203790D01*
X162198228Y-82203790D02*
X161972536Y-82189493D01*
X161972536Y-82189493D02*
X161743320Y-82180930D01*
X161743320Y-82180930D02*
X161510486Y-82178081D01*
X168736919Y-97113604D02*
X168736923Y-96892010D01*
X168736923Y-96892010D02*
X168736935Y-96670420D01*
X168736935Y-96670420D02*
X168736955Y-96448831D01*
X168736955Y-96448831D02*
X168736984Y-96227242D01*
X168736984Y-96227242D02*
X168737022Y-96005653D01*
X168737022Y-96005653D02*
X168737068Y-95784061D01*
X168737068Y-95784061D02*
X168737124Y-95562465D01*
X168737124Y-95562465D02*
X168737188Y-95340865D01*
X168737188Y-95340865D02*
X168737261Y-95119259D01*
X168737261Y-95119259D02*
X168737343Y-94897645D01*
X168737343Y-94897645D02*
X168737435Y-94676023D01*
X168737435Y-94676023D02*
X168737536Y-94454391D01*
X168737536Y-94454391D02*
X168737647Y-94232748D01*
X168737647Y-94232748D02*
X168737767Y-94011092D01*
X168737767Y-94011092D02*
X168737898Y-93789423D01*
X168737898Y-93789423D02*
X168738038Y-93567739D01*
X168738038Y-93567739D02*
X168738189Y-93346039D01*
X168738189Y-93346039D02*
X168738349Y-93124321D01*
X168738349Y-93124321D02*
X168738520Y-92902585D01*
X168738520Y-92902585D02*
X168738702Y-92680829D01*
X168738702Y-92680829D02*
X168738894Y-92459051D01*
X168738894Y-92459051D02*
X168739096Y-92237251D01*
X168739096Y-92237251D02*
X168739310Y-92015428D01*
X168739310Y-92015428D02*
X168739535Y-91793579D01*
X168739535Y-91793579D02*
X168739770Y-91571704D01*
X168739770Y-91571704D02*
X168740017Y-91349802D01*
X168740017Y-91349802D02*
X168740275Y-91127871D01*
X168740275Y-91127871D02*
X168740545Y-90905910D01*
X168740545Y-90905910D02*
X168740827Y-90683917D01*
X168740827Y-90683917D02*
X168741120Y-90461892D01*
X168741120Y-90461892D02*
X168741425Y-90239833D01*
X168741425Y-90239833D02*
X168741742Y-90017740D01*
X168726928Y-97618655D02*
X168733051Y-97413212D01*
X168733051Y-97413212D02*
X168736498Y-97208176D01*
X168736498Y-97208176D02*
X168736919Y-97113604D01*
X168743464Y-89784507D02*
X168745256Y-89570613D01*
X168745256Y-89570613D02*
X168745152Y-89352863D01*
X168745152Y-89352863D02*
X168742464Y-89152685D01*
X168742464Y-89152685D02*
X168738297Y-88996614D01*
X168741742Y-90017740D02*
X168743464Y-89784507D01*
X168855086Y-99296761D02*
X168850821Y-99087782D01*
X168850821Y-99087782D02*
X168838254Y-98882183D01*
X168838254Y-98882183D02*
X168817726Y-98679981D01*
X168817726Y-98679981D02*
X168789575Y-98481193D01*
X168789575Y-98481193D02*
X168746212Y-98247178D01*
X168746212Y-98247178D02*
X168692951Y-98018135D01*
X168855086Y-112773974D02*
X168855086Y-99296761D01*
X168787799Y-113651009D02*
X168817451Y-113442689D01*
X168817451Y-113442689D02*
X168839795Y-113227946D01*
X168839795Y-113227946D02*
X168852962Y-113005475D01*
X168852962Y-113005475D02*
X168855488Y-112803450D01*
X168855488Y-112803450D02*
X168855086Y-112773974D01*
X130657245Y-75488739D02*
X130384895Y-75495507D01*
X130384895Y-75495507D02*
X130118023Y-75515614D01*
X130118023Y-75515614D02*
X129856903Y-75548765D01*
X129856903Y-75548765D02*
X129601811Y-75594664D01*
X129601811Y-75594664D02*
X129353025Y-75653014D01*
X129353025Y-75653014D02*
X129110819Y-75723520D01*
X129110819Y-75723520D02*
X128875470Y-75805886D01*
X128875470Y-75805886D02*
X128647255Y-75899817D01*
X128647255Y-75899817D02*
X128426448Y-76005015D01*
X128426448Y-76005015D02*
X128213326Y-76121185D01*
X128213326Y-76121185D02*
X128008166Y-76248032D01*
X128008166Y-76248032D02*
X127811243Y-76385259D01*
X127811243Y-76385259D02*
X127622833Y-76532571D01*
X127622833Y-76532571D02*
X127443212Y-76689672D01*
X127443212Y-76689672D02*
X127272658Y-76856265D01*
X127272658Y-76856265D02*
X127111445Y-77032056D01*
X140973992Y-77827615D02*
X140809273Y-77659763D01*
X140809273Y-77659763D02*
X140639295Y-77497526D01*
X140639295Y-77497526D02*
X140464124Y-77340983D01*
X140464124Y-77340983D02*
X140283826Y-77190212D01*
X140283826Y-77190212D02*
X140098467Y-77045291D01*
X140098467Y-77045291D02*
X139908114Y-76906300D01*
X139908114Y-76906300D02*
X139712832Y-76773317D01*
X139712832Y-76773317D02*
X139512690Y-76646420D01*
X139512690Y-76646420D02*
X139307752Y-76525688D01*
X139307752Y-76525688D02*
X139098085Y-76411199D01*
X139098085Y-76411199D02*
X138883756Y-76303032D01*
X138883756Y-76303032D02*
X138664830Y-76201266D01*
X138664830Y-76201266D02*
X138441375Y-76105978D01*
X138441375Y-76105978D02*
X138213456Y-76017248D01*
X138213456Y-76017248D02*
X137981141Y-75935155D01*
X137981141Y-75935155D02*
X137744495Y-75859776D01*
X161510486Y-82178081D02*
X161111739Y-82178331D01*
X161111739Y-82178331D02*
X160712996Y-82178565D01*
X160712996Y-82178565D02*
X160314256Y-82178783D01*
X160314256Y-82178783D02*
X159915518Y-82178985D01*
X159915518Y-82178985D02*
X159516782Y-82179171D01*
X159516782Y-82179171D02*
X159118046Y-82179340D01*
X159118046Y-82179340D02*
X158719311Y-82179493D01*
X158719311Y-82179493D02*
X158320575Y-82179631D01*
X158320575Y-82179631D02*
X157921838Y-82179752D01*
X157921838Y-82179752D02*
X157523100Y-82179857D01*
X157523100Y-82179857D02*
X157124359Y-82179946D01*
X157124359Y-82179946D02*
X156725616Y-82180018D01*
X156725616Y-82180018D02*
X156326869Y-82180075D01*
X156326869Y-82180075D02*
X155928118Y-82180115D01*
X155928118Y-82180115D02*
X155529361Y-82180139D01*
X155529361Y-82180139D02*
X155130600Y-82180148D01*
X155130600Y-82180148D02*
X154731832Y-82180139D01*
X154731832Y-82180139D02*
X154333058Y-82180115D01*
X154333058Y-82180115D02*
X153934277Y-82180075D01*
X153934277Y-82180075D02*
X153535487Y-82180018D01*
X153535487Y-82180018D02*
X153136689Y-82179946D01*
X153136689Y-82179946D02*
X152737882Y-82179857D01*
X152737882Y-82179857D02*
X152339065Y-82179752D01*
X152339065Y-82179752D02*
X151940237Y-82179631D01*
X151940237Y-82179631D02*
X151541398Y-82179493D01*
X151541398Y-82179493D02*
X151142548Y-82179340D01*
X151142548Y-82179340D02*
X150743685Y-82179171D01*
X150743685Y-82179171D02*
X150344809Y-82178985D01*
X150344809Y-82178985D02*
X149945920Y-82178783D01*
X149945920Y-82178783D02*
X149547016Y-82178565D01*
X149547016Y-82178565D02*
X149148098Y-82178331D01*
X149148098Y-82178331D02*
X148749164Y-82178081D01*
X146424758Y-82410625D02*
X146418906Y-82171360D01*
X146418906Y-82171360D02*
X146401528Y-81935625D01*
X146401528Y-81935625D02*
X146372890Y-81703689D01*
X146372890Y-81703689D02*
X146333260Y-81475815D01*
X146333260Y-81475815D02*
X146282904Y-81252273D01*
X146282904Y-81252273D02*
X146222088Y-81033327D01*
X146222088Y-81033327D02*
X146151079Y-80819245D01*
X146151079Y-80819245D02*
X146070144Y-80610293D01*
X146070144Y-80610293D02*
X145979550Y-80406738D01*
X145979550Y-80406738D02*
X145879562Y-80208846D01*
X145879562Y-80208846D02*
X145770449Y-80016884D01*
X145770449Y-80016884D02*
X145652475Y-79831119D01*
X145652475Y-79831119D02*
X145525909Y-79651817D01*
X145525909Y-79651817D02*
X145391017Y-79479244D01*
X145391017Y-79479244D02*
X145248064Y-79313668D01*
X145248064Y-79313668D02*
X145097319Y-79155354D01*
X145097319Y-79155354D02*
X144939047Y-79004570D01*
X144939047Y-79004570D02*
X144773516Y-78861582D01*
X144773516Y-78861582D02*
X144600991Y-78726656D01*
X144600991Y-78726656D02*
X144421740Y-78600060D01*
X144421740Y-78600060D02*
X144236030Y-78482059D01*
X144236030Y-78482059D02*
X144044126Y-78372921D01*
X144044126Y-78372921D02*
X143846295Y-78272912D01*
X143846295Y-78272912D02*
X143642805Y-78182298D01*
X143642805Y-78182298D02*
X143433921Y-78101346D01*
X143433921Y-78101346D02*
X143219911Y-78030323D01*
X143219911Y-78030323D02*
X143001041Y-77969495D01*
X143001041Y-77969495D02*
X142777578Y-77919129D01*
X142777578Y-77919129D02*
X142549788Y-77879491D01*
X142549788Y-77879491D02*
X142317938Y-77850849D01*
X142317938Y-77850849D02*
X142082295Y-77833467D01*
X142082295Y-77833467D02*
X141843125Y-77827615D01*
X134983251Y-75488739D02*
X130657245Y-75488739D01*
X168738297Y-88996614D02*
X168724335Y-88746530D01*
X168724335Y-88746530D02*
X168702777Y-88499290D01*
X168702777Y-88499290D02*
X168673690Y-88254998D01*
X168673690Y-88254998D02*
X168637141Y-88013757D01*
X168637141Y-88013757D02*
X168593196Y-87775672D01*
X168593196Y-87775672D02*
X168541923Y-87540847D01*
X168541923Y-87540847D02*
X168483387Y-87309386D01*
X168483387Y-87309386D02*
X168417655Y-87081394D01*
X168417655Y-87081394D02*
X168344795Y-86856974D01*
X168344795Y-86856974D02*
X168264873Y-86636230D01*
X168264873Y-86636230D02*
X168177955Y-86419267D01*
X168177955Y-86419267D02*
X168084109Y-86206189D01*
X168084109Y-86206189D02*
X167983402Y-85997100D01*
X167983402Y-85997100D02*
X167875899Y-85792105D01*
X167875899Y-85792105D02*
X167761668Y-85591306D01*
X167761668Y-85591306D02*
X167640775Y-85394810D01*
X167640775Y-85394810D02*
X167513288Y-85202718D01*
X167513288Y-85202718D02*
X167379272Y-85015137D01*
X167379272Y-85015137D02*
X167238796Y-84832169D01*
X167238796Y-84832169D02*
X167091924Y-84653920D01*
X167091924Y-84653920D02*
X166938725Y-84480492D01*
X166938725Y-84480492D02*
X166779265Y-84311991D01*
X166779265Y-84311991D02*
X166613610Y-84148521D01*
X166613610Y-84148521D02*
X166441828Y-83990185D01*
X166441828Y-83990185D02*
X166263985Y-83837088D01*
X166263985Y-83837088D02*
X166080148Y-83689334D01*
X166080148Y-83689334D02*
X165890383Y-83547027D01*
X165890383Y-83547027D02*
X165694758Y-83410271D01*
X165694758Y-83410271D02*
X165493338Y-83279171D01*
X165493338Y-83279171D02*
X165286192Y-83153830D01*
X165286192Y-83153830D02*
X165073385Y-83034353D01*
X165073385Y-83034353D02*
X164854985Y-82920844D01*
X127111445Y-77032056D02*
X126957507Y-76880988D01*
X126957507Y-76880988D02*
X126796399Y-76737501D01*
X126796399Y-76737501D02*
X126628410Y-76601893D01*
X126628410Y-76601893D02*
X126453828Y-76474465D01*
X126453828Y-76474465D02*
X126272939Y-76355513D01*
X126272939Y-76355513D02*
X126086032Y-76245338D01*
X126086032Y-76245338D02*
X125893396Y-76144237D01*
X125893396Y-76144237D02*
X125695316Y-76052510D01*
X125695316Y-76052510D02*
X125492083Y-75970455D01*
X125492083Y-75970455D02*
X125283982Y-75898372D01*
X125283982Y-75898372D02*
X125071303Y-75836559D01*
X125071303Y-75836559D02*
X124854333Y-75785314D01*
X124854333Y-75785314D02*
X124633359Y-75744937D01*
X124633359Y-75744937D02*
X124408671Y-75715727D01*
X124408671Y-75715727D02*
X124180554Y-75697981D01*
X124180554Y-75697981D02*
X123949299Y-75692000D01*
X168876445Y-114552332D02*
X168872083Y-114351629D01*
X168872083Y-114351629D02*
X168856592Y-114124517D01*
X168856592Y-114124517D02*
X168830184Y-113900055D01*
X168830184Y-113900055D02*
X168793158Y-113678488D01*
X168793158Y-113678488D02*
X168787799Y-113651009D01*
X105452280Y-114092304D02*
X105322735Y-114305865D01*
X105322735Y-114305865D02*
X105204031Y-114526375D01*
X105204031Y-114526375D02*
X105096583Y-114753476D01*
X105096583Y-114753476D02*
X105000807Y-114986809D01*
X105000807Y-114986809D02*
X104917117Y-115226017D01*
X104917117Y-115226017D02*
X104845929Y-115470740D01*
X104845929Y-115470740D02*
X104787658Y-115720622D01*
X104787658Y-115720622D02*
X104742718Y-115975304D01*
X104742718Y-115975304D02*
X104711526Y-116234428D01*
X104711526Y-116234428D02*
X104694496Y-116497636D01*
X104694496Y-116497636D02*
X104691216Y-116675200D01*
X167749899Y-119310009D02*
X167749899Y-118538997D01*
X162133704Y-123872349D02*
X163169644Y-123872349D01*
X159314583Y-123864081D02*
X159527782Y-123821247D01*
X159527782Y-123821247D02*
X159737946Y-123772043D01*
X159737946Y-123772043D02*
X159945104Y-123716743D01*
X159945104Y-123716743D02*
X160149285Y-123655621D01*
X160149285Y-123655621D02*
X160350520Y-123588950D01*
X160350520Y-123588950D02*
X160416949Y-123565542D01*
X133345625Y-124526228D02*
X133575997Y-124581091D01*
X133575997Y-124581091D02*
X133810311Y-124624601D01*
X133810311Y-124624601D02*
X134047619Y-124656814D01*
X134047619Y-124656814D02*
X134286977Y-124677787D01*
X134286977Y-124677787D02*
X134527436Y-124687576D01*
X134527436Y-124687576D02*
X134768052Y-124686236D01*
X134768052Y-124686236D02*
X135007879Y-124673824D01*
X135007879Y-124673824D02*
X135245969Y-124650397D01*
X135245969Y-124650397D02*
X135481378Y-124616010D01*
X135481378Y-124616010D02*
X135713158Y-124570720D01*
X135713158Y-124570720D02*
X135865196Y-124534497D01*
X163169644Y-123872349D02*
X163233723Y-123872694D01*
X137125412Y-124691593D02*
X137490835Y-124678432D01*
X137490835Y-124678432D02*
X137849902Y-124639488D01*
X137849902Y-124639488D02*
X138201584Y-124575566D01*
X138201584Y-124575566D02*
X138544855Y-124487471D01*
X138544855Y-124487471D02*
X138878687Y-124376008D01*
X138878687Y-124376008D02*
X139202053Y-124241983D01*
X139202053Y-124241983D02*
X139513925Y-124086202D01*
X139513925Y-124086202D02*
X139813275Y-123909470D01*
X139813275Y-123909470D02*
X140099076Y-123712591D01*
X140099076Y-123712591D02*
X140370301Y-123496373D01*
X140370301Y-123496373D02*
X140625922Y-123261620D01*
X140625922Y-123261620D02*
X140864912Y-123009137D01*
X140864912Y-123009137D02*
X141086242Y-122739730D01*
X141086242Y-122739730D02*
X141288887Y-122454205D01*
X141288887Y-122454205D02*
X141471818Y-122153366D01*
X141471818Y-122153366D02*
X141634008Y-121838020D01*
X104691216Y-116675200D02*
X104691216Y-117058295D01*
X105246048Y-80107234D02*
X105246048Y-96699159D01*
X127560104Y-121855935D02*
X127721391Y-122167200D01*
X127721391Y-122167200D02*
X127902825Y-122464214D01*
X127902825Y-122464214D02*
X128103450Y-122746200D01*
X128103450Y-122746200D02*
X128322312Y-123012383D01*
X128322312Y-123012383D02*
X128558454Y-123261987D01*
X128558454Y-123261987D02*
X128810920Y-123494236D01*
X128810920Y-123494236D02*
X129078756Y-123708356D01*
X129078756Y-123708356D02*
X129361005Y-123903570D01*
X129361005Y-123903570D02*
X129656713Y-124079102D01*
X129656713Y-124079102D02*
X129964923Y-124234177D01*
X129964923Y-124234177D02*
X130284680Y-124368019D01*
X130284680Y-124368019D02*
X130615028Y-124479853D01*
X130615028Y-124479853D02*
X130955012Y-124568903D01*
X130955012Y-124568903D02*
X131303677Y-124634394D01*
X131303677Y-124634394D02*
X131660066Y-124675549D01*
X131660066Y-124675549D02*
X132023225Y-124691593D01*
X166430772Y-122580783D02*
X166603449Y-122399774D01*
X166603449Y-122399774D02*
X166778027Y-122194348D01*
X166778027Y-122194348D02*
X166950338Y-121963960D01*
X166950338Y-121963960D02*
X167061894Y-121796230D01*
X167061894Y-121796230D02*
X167169354Y-121617003D01*
X167169354Y-121617003D02*
X167271485Y-121426117D01*
X167271485Y-121426117D02*
X167367051Y-121223409D01*
X167367051Y-121223409D02*
X167454818Y-121008719D01*
X167454818Y-121008719D02*
X167533550Y-120781885D01*
X167533550Y-120781885D02*
X167602012Y-120542746D01*
X167602012Y-120542746D02*
X167658970Y-120291139D01*
X167658970Y-120291139D02*
X167703189Y-120026905D01*
X167703189Y-120026905D02*
X167733434Y-119749880D01*
X167733434Y-119749880D02*
X167748470Y-119459904D01*
X167748470Y-119459904D02*
X167749899Y-119310009D01*
X105246048Y-96699159D02*
X105250830Y-96916735D01*
X105250830Y-96916735D02*
X105265025Y-97131253D01*
X105265025Y-97131253D02*
X105288401Y-97342543D01*
X105288401Y-97342543D02*
X105320729Y-97550435D01*
X105320729Y-97550435D02*
X105361778Y-97754760D01*
X105361778Y-97754760D02*
X105411318Y-97955348D01*
X105411318Y-97955348D02*
X105433461Y-98034499D01*
X109861098Y-75492873D02*
X109617987Y-75498607D01*
X109617987Y-75498607D02*
X109378808Y-75515652D01*
X109378808Y-75515652D02*
X109143807Y-75543771D01*
X109143807Y-75543771D02*
X108913226Y-75582724D01*
X108913226Y-75582724D02*
X108687312Y-75632275D01*
X108687312Y-75632275D02*
X108466309Y-75692186D01*
X108466309Y-75692186D02*
X108250461Y-75762218D01*
X108250461Y-75762218D02*
X108040015Y-75842135D01*
X108040015Y-75842135D02*
X107835214Y-75931698D01*
X107835214Y-75931698D02*
X107636303Y-76030670D01*
X107636303Y-76030670D02*
X107443528Y-76138813D01*
X107443528Y-76138813D02*
X107257132Y-76255889D01*
X107257132Y-76255889D02*
X107077362Y-76381661D01*
X107077362Y-76381661D02*
X106904461Y-76515890D01*
X106904461Y-76515890D02*
X106738674Y-76658339D01*
X106738674Y-76658339D02*
X106580247Y-76808770D01*
X106580247Y-76808770D02*
X106429424Y-76966945D01*
X106429424Y-76966945D02*
X106286450Y-77132627D01*
X106286450Y-77132627D02*
X106151570Y-77305579D01*
X106151570Y-77305579D02*
X106025028Y-77485561D01*
X106025028Y-77485561D02*
X105907069Y-77672336D01*
X105907069Y-77672336D02*
X105797939Y-77865668D01*
X105797939Y-77865668D02*
X105697882Y-78065317D01*
X105697882Y-78065317D02*
X105607142Y-78271046D01*
X105607142Y-78271046D02*
X105525966Y-78482618D01*
X105525966Y-78482618D02*
X105454596Y-78699794D01*
X105454596Y-78699794D02*
X105393279Y-78922337D01*
X105393279Y-78922337D02*
X105342259Y-79150009D01*
X105342259Y-79150009D02*
X105301781Y-79382572D01*
X105301781Y-79382572D02*
X105272090Y-79619790D01*
X105272090Y-79619790D02*
X105253431Y-79861422D01*
X105253431Y-79861422D02*
X105246048Y-80107234D01*
X137036700Y-124690559D02*
X137125412Y-124691593D01*
X115803371Y-76437045D02*
X115600387Y-76287984D01*
X115600387Y-76287984D02*
X115389039Y-76150020D01*
X115389039Y-76150020D02*
X115169723Y-76023655D01*
X115169723Y-76023655D02*
X114942838Y-75909390D01*
X114942838Y-75909390D02*
X114708782Y-75807727D01*
X114708782Y-75807727D02*
X114467954Y-75719169D01*
X114467954Y-75719169D02*
X114220750Y-75644217D01*
X114220750Y-75644217D02*
X113967570Y-75583372D01*
X113967570Y-75583372D02*
X113708811Y-75537137D01*
X113708811Y-75537137D02*
X113444871Y-75506013D01*
X113444871Y-75506013D02*
X113266231Y-75493907D01*
X123949299Y-75692000D02*
X123190000Y-75692000D01*
X113266231Y-75493907D02*
X113223684Y-75491840D01*
X152697932Y-121851801D02*
X152839729Y-121996257D01*
X152839729Y-121996257D02*
X152985900Y-122136446D01*
X152985900Y-122136446D02*
X153136384Y-122272299D01*
X153136384Y-122272299D02*
X153291123Y-122403748D01*
X153291123Y-122403748D02*
X153450057Y-122530723D01*
X153450057Y-122530723D02*
X153613125Y-122653156D01*
X153613125Y-122653156D02*
X153780269Y-122770979D01*
X153780269Y-122770979D02*
X153951430Y-122884123D01*
X153951430Y-122884123D02*
X154126546Y-122992519D01*
X154126546Y-122992519D02*
X154305560Y-123096099D01*
X154305560Y-123096099D02*
X154488411Y-123194793D01*
X154488411Y-123194793D02*
X154675040Y-123288534D01*
X154675040Y-123288534D02*
X154865387Y-123377253D01*
X154865387Y-123377253D02*
X155059393Y-123460880D01*
X155059393Y-123460880D02*
X155256998Y-123539349D01*
X155256998Y-123539349D02*
X155458143Y-123612589D01*
X167749899Y-118538997D02*
X167884083Y-118380414D01*
X167884083Y-118380414D02*
X168010230Y-118216562D01*
X168010230Y-118216562D02*
X168128239Y-118047681D01*
X168128239Y-118047681D02*
X168238009Y-117874007D01*
X168238009Y-117874007D02*
X168339441Y-117695779D01*
X168339441Y-117695779D02*
X168432433Y-117513235D01*
X168432433Y-117513235D02*
X168516886Y-117326614D01*
X168516886Y-117326614D02*
X168592698Y-117136153D01*
X168592698Y-117136153D02*
X168659770Y-116942091D01*
X168659770Y-116942091D02*
X168718001Y-116744667D01*
X168718001Y-116744667D02*
X168767290Y-116544117D01*
X168767290Y-116544117D02*
X168807538Y-116340681D01*
X168807538Y-116340681D02*
X168838643Y-116134596D01*
X168838643Y-116134596D02*
X168860505Y-115926101D01*
X168860505Y-115926101D02*
X168873025Y-115715434D01*
X168873025Y-115715434D02*
X168876101Y-115502834D01*
X105273092Y-99276779D02*
X105273092Y-112774663D01*
X132023225Y-124691593D02*
X132235900Y-124686240D01*
X132235900Y-124686240D02*
X132446647Y-124673820D01*
X132446647Y-124673820D02*
X132655253Y-124653979D01*
X132655253Y-124653979D02*
X132861503Y-124626361D01*
X132861503Y-124626361D02*
X133065187Y-124590612D01*
X133065187Y-124590612D02*
X133266090Y-124546377D01*
X133266090Y-124546377D02*
X133345625Y-124526228D01*
X135865196Y-124534497D02*
X136078338Y-124584217D01*
X136078338Y-124584217D02*
X136294760Y-124624722D01*
X136294760Y-124624722D02*
X136514215Y-124655807D01*
X136514215Y-124655807D02*
X136736460Y-124677268D01*
X136736460Y-124677268D02*
X136961247Y-124688901D01*
X136961247Y-124688901D02*
X137036700Y-124690559D01*
X121675709Y-75483916D02*
X118595793Y-75483916D01*
X118595793Y-75483916D02*
X118314049Y-75488750D01*
X118314049Y-75488750D02*
X118033757Y-75512533D01*
X118033757Y-75512533D02*
X117755841Y-75554758D01*
X117755841Y-75554758D02*
X117481231Y-75614920D01*
X117481231Y-75614920D02*
X117210851Y-75692513D01*
X117210851Y-75692513D02*
X116945630Y-75787031D01*
X116945630Y-75787031D02*
X116686493Y-75897968D01*
X116686493Y-75897968D02*
X116434370Y-76024820D01*
X116434370Y-76024820D02*
X116190185Y-76167079D01*
X116190185Y-76167079D02*
X115954866Y-76324241D01*
X115954866Y-76324241D02*
X115803371Y-76437045D01*
X104691216Y-117058295D02*
X104697470Y-117304813D01*
X104697470Y-117304813D02*
X104716031Y-117548137D01*
X104716031Y-117548137D02*
X104746595Y-117787964D01*
X104746595Y-117787964D02*
X104788858Y-118023988D01*
X104788858Y-118023988D02*
X104842516Y-118255906D01*
X104842516Y-118255906D02*
X104907266Y-118483416D01*
X104907266Y-118483416D02*
X104982803Y-118706212D01*
X104982803Y-118706212D02*
X105068825Y-118923991D01*
X105068825Y-118923991D02*
X105165027Y-119136450D01*
X105165027Y-119136450D02*
X105271106Y-119343285D01*
X105271106Y-119343285D02*
X105386757Y-119544191D01*
X105386757Y-119544191D02*
X105511678Y-119738866D01*
X105511678Y-119738866D02*
X105645564Y-119927005D01*
X105645564Y-119927005D02*
X105788112Y-120108305D01*
X105788112Y-120108305D02*
X105939017Y-120282463D01*
X105939017Y-120282463D02*
X106097977Y-120449173D01*
X106097977Y-120449173D02*
X106264687Y-120608133D01*
X106264687Y-120608133D02*
X106438845Y-120759038D01*
X106438845Y-120759038D02*
X106620145Y-120901586D01*
X106620145Y-120901586D02*
X106808284Y-121035472D01*
X106808284Y-121035472D02*
X107002959Y-121160393D01*
X107002959Y-121160393D02*
X107203865Y-121276044D01*
X107203865Y-121276044D02*
X107410700Y-121382123D01*
X107410700Y-121382123D02*
X107623159Y-121478325D01*
X107623159Y-121478325D02*
X107840938Y-121564347D01*
X107840938Y-121564347D02*
X108063734Y-121639884D01*
X108063734Y-121639884D02*
X108291244Y-121704634D01*
X108291244Y-121704634D02*
X108523162Y-121758292D01*
X108523162Y-121758292D02*
X108759186Y-121800555D01*
X108759186Y-121800555D02*
X108999013Y-121831119D01*
X108999013Y-121831119D02*
X109242337Y-121849680D01*
X109242337Y-121849680D02*
X109488856Y-121855935D01*
X168876101Y-114593674D02*
X168876445Y-114552332D01*
X168876101Y-115502834D02*
X168874550Y-115275124D01*
X168874550Y-115275124D02*
X168874034Y-115047737D01*
X168874034Y-115047737D02*
X168874550Y-114820608D01*
X168874550Y-114820608D02*
X168876101Y-114593674D01*
X163233723Y-123872694D02*
X163535512Y-123863514D01*
X163535512Y-123863514D02*
X163823618Y-123837077D01*
X163823618Y-123837077D02*
X164098059Y-123795036D01*
X164098059Y-123795036D02*
X164358853Y-123739045D01*
X164358853Y-123739045D02*
X164606020Y-123670757D01*
X164606020Y-123670757D02*
X164839578Y-123591824D01*
X164839578Y-123591824D02*
X165059546Y-123503900D01*
X165059546Y-123503900D02*
X165265942Y-123408639D01*
X165265942Y-123408639D02*
X165458785Y-123307693D01*
X165458785Y-123307693D02*
X165638093Y-123202716D01*
X165638093Y-123202716D02*
X165881721Y-123041309D01*
X165881721Y-123041309D02*
X166095001Y-122880131D01*
X166095001Y-122880131D02*
X166277997Y-122724762D01*
X166277997Y-122724762D02*
X166430772Y-122580783D01*
X109488856Y-121855935D02*
X127560104Y-121855935D01*
X162112345Y-123872349D02*
X162133704Y-123872349D01*
X155458143Y-123612589D02*
X155684490Y-123686739D01*
X155684490Y-123686739D02*
X155913011Y-123753125D01*
X155913011Y-123753125D02*
X156143660Y-123811740D01*
X156143660Y-123811740D02*
X156376390Y-123862579D01*
X156376390Y-123862579D02*
X156611154Y-123905636D01*
X156611154Y-123905636D02*
X156847907Y-123940906D01*
X156847907Y-123940906D02*
X157086602Y-123968382D01*
X157086602Y-123968382D02*
X157327193Y-123988061D01*
X157327193Y-123988061D02*
X157569632Y-123999935D01*
X157569632Y-123999935D02*
X157813874Y-124004000D01*
X157813874Y-124004000D02*
X158059873Y-124000250D01*
X158059873Y-124000250D02*
X158307581Y-123988680D01*
X158307581Y-123988680D02*
X158556952Y-123969283D01*
X158556952Y-123969283D02*
X158807941Y-123942055D01*
X158807941Y-123942055D02*
X159060500Y-123906989D01*
X159060500Y-123906989D02*
X159314583Y-123864081D01*
X141634008Y-121838020D02*
X152697932Y-121851801D01*
X160416949Y-123565542D02*
X160646942Y-123646791D01*
X160646942Y-123646791D02*
X160839806Y-123704529D01*
X160839806Y-123704529D02*
X161040774Y-123754998D01*
X161040774Y-123754998D02*
X161250052Y-123797445D01*
X161250052Y-123797445D02*
X161467844Y-123831119D01*
X161467844Y-123831119D02*
X161694355Y-123855269D01*
X161694355Y-123855269D02*
X161929789Y-123869141D01*
X161929789Y-123869141D02*
X162112345Y-123872349D01*
X105433461Y-98034499D02*
X105380906Y-98257996D01*
X105380906Y-98257996D02*
X105338038Y-98485898D01*
X105338038Y-98485898D02*
X105305480Y-98718158D01*
X105305480Y-98718158D02*
X105283851Y-98954728D01*
X105283851Y-98954728D02*
X105274626Y-99155128D01*
X105274626Y-99155128D02*
X105273092Y-99276779D01*
X113223684Y-75491840D02*
X113021663Y-75487361D01*
X113021663Y-75487361D02*
X112843173Y-75488739D01*
X112843173Y-75488739D02*
X109861098Y-75492873D01*
X105273092Y-112774663D02*
X105277754Y-112989639D01*
X105277754Y-112989639D02*
X105291527Y-113201376D01*
X105291527Y-113201376D02*
X105314093Y-113409786D01*
X105314093Y-113409786D02*
X105345131Y-113614780D01*
X105345131Y-113614780D02*
X105384322Y-113816271D01*
X105384322Y-113816271D02*
X105431348Y-114014170D01*
X105431348Y-114014170D02*
X105452280Y-114092304D01*
X123190000Y-75692000D02*
X122961120Y-75626450D01*
X122961120Y-75626450D02*
X122728725Y-75573183D01*
X122728725Y-75573183D02*
X122493260Y-75532165D01*
X122493260Y-75532165D02*
X122255170Y-75503367D01*
X122255170Y-75503367D02*
X122014900Y-75486756D01*
X122014900Y-75486756D02*
X121772896Y-75482301D01*
X121772896Y-75482301D02*
X121675709Y-75483916D01*
M02*
